<?xml version="1.0" standalone="no"?>
<!DOCTYPE svg PUBLIC "-//W3C//DTD SVG 20010904//EN"
 "http://www.w3.org/TR/2001/REC-SVG-20010904/DTD/svg10.dtd">
<svg version="1.0" xmlns="http://www.w3.org/2000/svg"
 width="1080.000000pt" height="1540.000000pt" viewBox="0 0 1080.000000 1540.000000"
 preserveAspectRatio="xMidYMid meet">

<g transform="translate(0.000000,1540.000000) scale(0.100000,-0.100000)"
fill="#000000" stroke="none">
<path d="M0 15365 c0 -35 1 -36 34 -30 20 4 36 2 40 -4 5 -7 -7 -11 -33 -11
l-41 0 0 -2525 0 -2525 22 -22 c12 -12 34 -23 48 -24 14 0 37 -2 51 -2 15 -1
37 -10 50 -21 l23 -18 -35 -31 c-43 -39 -100 -44 -136 -10 l-23 21 0 -82 c0
-63 5 -91 21 -122 22 -43 20 -69 -6 -69 -13 0 -15 -76 -15 -684 l0 -683 44
-17 c30 -12 48 -26 56 -44 15 -38 34 -69 57 -95 11 -12 24 -29 29 -38 9 -16
99 -89 110 -89 9 0 -3 86 -15 109 -6 11 -11 33 -11 50 0 16 -6 34 -13 38 -7 4
-23 28 -36 53 -13 25 -32 55 -42 66 -14 15 -21 40 -24 85 -2 35 -10 76 -16 92
-9 22 -9 31 0 40 10 9 15 9 24 -3 20 -25 63 -43 87 -35 15 5 27 1 41 -14 11
-12 24 -21 28 -21 5 0 12 -11 15 -24 3 -13 17 -31 31 -40 29 -19 75 -88 75
-112 0 -9 9 -18 20 -21 11 -3 20 -11 20 -17 0 -7 16 -31 35 -53 19 -23 35 -43
35 -46 0 -3 15 -32 34 -66 19 -33 37 -68 40 -78 19 -61 193 -362 311 -538 78
-117 135 -211 132 -219 -7 -18 -54 -39 -134 -60 -85 -22 -117 -21 -108 2 20
48 19 54 -12 51 -5 0 -10 10 -13 23 -4 16 -13 23 -29 23 -23 0 -80 46 -177
145 -49 49 -60 55 -105 60 -50 5 -52 6 -69 49 -12 32 -27 49 -54 63 -20 10
-41 16 -46 13 -6 -3 -26 10 -46 29 -21 20 -33 36 -29 36 4 0 0 9 -10 20 -11
13 -31 20 -52 20 -25 0 -36 5 -39 18 -6 20 -66 24 -85 5 -18 -18 -36 -16 -48
5 -7 11 -10 -1262 -11 -3985 l0 -4003 5400 0 5400 0 0 4700 c0 2585 -3 4700
-7 4700 -17 0 -35 -18 -29 -28 10 -16 -30 -33 -58 -26 -18 4 -29 17 -37 42 -6
21 -21 48 -33 61 l-21 23 35 -4 c19 -3 42 -7 50 -9 11 -3 14 3 12 22 -2 15 5
32 17 43 25 23 45 13 29 -14 -13 -21 3 -50 28 -50 11 0 14 17 14 70 0 39 -4
70 -8 70 -5 0 -21 -13 -36 -29 -28 -29 -66 -47 -66 -31 0 5 -13 11 -29 15 -16
3 -35 13 -42 21 -6 8 -22 14 -34 14 -13 0 -26 8 -29 17 -6 15 -11 13 -32 -15
-18 -23 -34 -32 -54 -32 -16 0 -32 -5 -36 -12 -6 -9 -33 58 -34 84 0 4 20 28
43 54 50 54 67 52 67 -6 0 -46 14 -58 41 -34 15 13 22 15 31 6 32 -32 81 11
167 142 l51 79 0 1174 0 1174 -51 -7 c-51 -7 -52 -7 -46 17 3 13 11 45 17 71
l12 48 28 -15 c16 -8 31 -15 35 -15 3 0 5 102 5 226 l0 226 -32 -7 c-18 -4
-38 -12 -45 -17 -7 -5 -20 -8 -30 -6 -13 3 -6 11 28 31 25 15 53 27 62 27 16
0 17 39 17 480 0 264 -2 480 -4 480 -3 0 -21 -9 -40 -21 -19 -11 -40 -18 -46
-14 -5 3 -40 -1 -77 -11 -72 -17 -92 -33 -175 -135 -41 -50 -48 -76 -20 -86 9
-3 26 -14 38 -25 21 -19 21 -18 36 4 9 13 39 36 67 52 41 22 60 27 89 22 20
-3 44 -6 54 -7 9 0 19 -12 23 -26 7 -30 11 -25 -42 -52 -54 -27 -60 -38 -32
-60 l22 -18 -23 -21 c-13 -12 -27 -22 -32 -22 -4 0 -8 -11 -8 -25 0 -18 -7
-26 -25 -31 -24 -6 -35 -24 -15 -24 7 0 7 -6 1 -17 -5 -10 -15 -47 -21 -83
-15 -77 -42 -106 -132 -142 -69 -27 -95 -61 -77 -101 9 -19 7 -31 -11 -62 -11
-20 -25 -56 -30 -79 -5 -22 -15 -60 -21 -83 -11 -34 -10 -47 1 -70 7 -15 14
-30 15 -33 0 -3 6 -15 13 -28 12 -20 10 -23 -13 -32 -15 -6 -25 -17 -25 -30 0
-13 -10 -24 -26 -31 -26 -9 -26 -10 -9 -29 17 -19 17 -21 2 -38 -20 -22 -22
-51 -4 -58 14 -5 57 26 106 78 31 31 79 52 141 62 55 8 144 57 166 92 18 27
68 57 78 47 8 -8 8 -88 -1 -96 -3 -4 -12 -2 -20 4 -26 22 -42 -7 -37 -66 3
-50 1 -55 -27 -79 -22 -19 -37 -24 -58 -20 -20 4 -35 -1 -59 -21 -21 -17 -38
-24 -51 -20 -22 7 -94 -32 -88 -49 7 -21 38 -17 62 8 13 14 30 26 36 26 12 0
-18 -38 -67 -85 -16 -15 -21 -33 -21 -75 -1 -44 -5 -57 -22 -68 -11 -8 -21
-23 -21 -34 0 -10 -7 -21 -15 -24 -10 -4 -13 -14 -9 -30 5 -21 3 -24 -20 -24
-14 0 -26 -4 -26 -10 0 -5 9 -10 20 -10 33 0 35 -28 5 -60 -31 -32 -73 -46
-89 -30 -8 8 -2 19 24 40 29 24 33 32 24 46 -20 34 -38 37 -77 14 -37 -22 -51
-60 -27 -75 6 -3 10 -15 10 -25 0 -12 5 -17 14 -14 20 8 30 -55 12 -75 -7 -9
-16 -30 -18 -48 -3 -24 0 -33 14 -36 22 -6 24 -40 2 -58 -9 -8 -13 -21 -10
-35 4 -13 2 -26 -4 -29 -5 -3 -10 -13 -10 -20 0 -8 -13 -36 -30 -62 -21 -33
-30 -59 -30 -90 0 -23 -6 -47 -12 -52 -7 -6 -27 -22 -44 -36 -18 -14 -35 -36
-38 -49 -3 -14 -16 -28 -28 -32 -13 -4 -38 -21 -56 -38 -26 -25 -32 -37 -28
-58 5 -24 2 -29 -27 -36 -26 -7 -32 -13 -32 -37 -1 -19 -8 -31 -23 -38 -42
-19 -22 -29 50 -25 63 2 73 1 76 -15 2 -11 -3 -17 -16 -17 -12 0 -30 -17 -48
-45 -22 -35 -34 -45 -55 -45 -15 0 -29 -7 -33 -15 -3 -9 -14 -15 -23 -13 -13
2 -19 -5 -21 -26 -2 -16 -13 -36 -23 -45 -12 -10 -21 -29 -21 -49 -1 -20 -6
-32 -15 -32 -7 0 -13 -3 -13 -6 0 -9 548 -554 640 -635 47 -42 98 -79 114 -83
15 -4 49 -27 74 -51 42 -39 45 -45 35 -67 -7 -12 -13 -32 -15 -43 -2 -13 -12
-21 -28 -23 -20 -2 -31 7 -55 43 -16 26 -54 67 -83 92 -29 25 -64 67 -77 93
-13 26 -38 56 -54 67 -17 10 -57 44 -88 74 -134 128 -216 173 -247 135 -9 -11
-26 -12 -86 -5 -118 13 -140 -1 -105 -67 20 -39 19 -58 -2 -50 -9 4 -20 1 -24
-5 -5 -8 -17 -4 -41 15 -47 35 -321 341 -332 370 -7 19 -2 35 24 77 52 84 128
167 161 174 16 4 29 12 29 19 0 23 109 276 156 363 87 160 95 177 109 240 13
58 12 67 -8 125 -20 60 -22 61 -28 33 -7 -33 -10 -28 -29 48 -9 34 -10 51 -2
59 7 7 7 17 0 34 -9 19 -8 32 5 59 9 19 23 35 32 35 18 0 85 -66 76 -75 -3 -4
3 -6 14 -3 25 4 66 85 73 144 4 40 2 44 -22 54 -15 5 -32 10 -38 10 -13 0 -93
-81 -100 -100 -3 -11 -13 -10 -51 6 -26 10 -47 25 -47 33 0 8 -6 22 -14 30 -9
10 -11 23 -6 36 5 11 9 14 9 7 1 -19 21 -4 21 15 0 9 -7 21 -15 27 -9 7 -18
45 -25 106 -6 52 -15 108 -21 124 -6 20 -6 33 1 40 16 16 31 -14 24 -48 -6
-27 -5 -28 27 -21 72 15 187 122 172 161 -8 24 -47 64 -76 79 -17 9 -21 19
-19 43 1 18 -2 32 -8 32 -5 0 -10 -8 -10 -19 0 -14 -10 -21 -35 -25 -21 -4
-41 -17 -51 -31 -20 -31 -44 -32 -44 -2 0 47 12 66 51 81 l38 16 -13 32 c-15
37 -68 78 -100 78 -12 0 -27 5 -33 11 -6 6 -23 9 -39 7 -26 -3 -29 -8 -32 -40
-2 -23 -8 -38 -16 -38 -16 0 -41 55 -39 83 5 54 85 87 149 62 176 -71 255
-164 323 -384 l27 -86 58 55 c70 66 95 107 147 242 73 186 99 268 139 433 4
17 23 67 43 112 35 76 49 119 26 81 -5 -10 -14 -18 -20 -18 -5 0 -28 -9 -51
-20 -29 -14 -45 -17 -54 -9 -8 7 -14 7 -19 -1 -3 -5 -15 -10 -26 -10 -10 0
-19 -5 -19 -11 0 -6 12 -10 28 -9 43 3 44 2 23 -29 -17 -24 -30 -29 -80 -35
-44 -5 -65 -13 -84 -31 -38 -39 -115 -68 -182 -71 -38 -1 -78 -10 -108 -24
-25 -12 -64 -23 -86 -24 -41 -2 -56 -11 -105 -58 -15 -15 -32 -25 -37 -22 -14
8 -11 97 5 135 7 19 17 43 21 54 5 11 10 34 12 50 2 17 12 53 22 80 10 28 24
66 31 85 7 19 16 78 21 130 8 102 17 143 42 203 18 43 31 46 58 15 16 -20 20
-21 28 -8 32 51 34 52 69 35 23 -12 32 -23 32 -41 0 -28 12 -30 70 -9 23 8 69
15 101 15 52 0 60 3 78 29 26 36 27 83 3 103 -9 9 -52 30 -95 48 -43 18 -91
43 -107 56 -41 35 -123 34 -161 -2 -34 -32 -59 -26 -59 14 0 30 16 48 138 150
53 44 84 85 61 80 -6 -2 -14 3 -17 11 -3 11 0 12 14 6 26 -11 79 -9 105 5 17
10 20 18 15 43 -7 37 -52 97 -72 97 -30 0 -11 28 75 110 48 47 109 113 135
147 26 34 73 83 106 108 95 73 195 128 318 176 13 5 70 9 127 9 l105 0 0 330
0 330 -5400 0 -5400 0 0 -35z m8058 -2 c27 -4 46 -12 49 -22 3 -9 23 -34 44
-56 46 -48 61 -101 33 -112 -11 -3 -30 -15 -43 -25 -15 -12 -41 -18 -71 -18
-41 0 -50 -4 -66 -27 -10 -17 -17 -43 -15 -63 1 -19 -1 -53 -5 -74 l-6 -40
-16 30 c-12 21 -16 58 -17 133 l0 104 -30 17 c-35 19 -105 107 -105 132 0 34
96 42 248 21z m-7738 -8 c-14 -16 -40 -20 -40 -6 0 10 17 19 39 20 11 1 11 -2
1 -14z m296 -72 c-11 -11 -19 6 -11 24 8 17 8 17 12 0 3 -10 2 -21 -1 -24z
m7564 -408 c0 -8 -9 -19 -19 -25 -29 -15 -116 -13 -130 4 -16 19 -3 26 43 24
20 -1 39 2 43 5 13 14 63 7 63 -8z m-6986 -474 c27 -23 49 -73 84 -186 18 -55
50 -129 72 -165 48 -77 60 -116 60 -193 0 -44 -4 -59 -16 -64 -10 -4 -20 0
-26 10 -5 10 -15 17 -22 17 -7 0 -18 17 -24 38 -7 22 -21 41 -34 47 -12 6 -33
32 -47 58 -20 39 -37 56 -88 85 -35 20 -63 42 -63 50 0 8 -34 46 -76 85 -72
68 -114 133 -114 175 0 19 53 47 115 61 54 12 156 2 179 -18z m-289 -301 c11
-17 44 -49 73 -71 28 -22 52 -45 52 -51 0 -5 14 -26 30 -45 17 -18 30 -37 30
-41 0 -4 -12 -15 -25 -25 -23 -16 -27 -17 -47 -3 -12 9 -31 16 -41 16 -12 0
-17 6 -15 18 2 11 11 16 26 14 27 -4 28 8 2 38 -11 13 -20 27 -20 31 0 4 -10
9 -22 11 -16 2 -24 11 -26 28 -2 14 -9 32 -15 40 -15 19 -37 58 -37 65 0 14
17 2 35 -25z m352 -226 c2 -6 -2 -14 -9 -16 -19 -7 -78 11 -78 23 0 14 82 7
87 -7z m2427 -122 c8 -16 22 -35 31 -42 43 -36 78 -161 53 -191 -15 -18 -64
-40 -71 -32 -3 3 -3 35 0 72 4 54 2 69 -11 80 -9 7 -16 26 -16 42 0 23 -5 29
-21 29 -16 0 -19 -4 -14 -20 4 -11 2 -20 -4 -20 -22 0 -24 -70 -3 -119 l20
-48 -32 6 c-33 7 -66 55 -66 97 0 22 46 114 63 125 4 3 10 15 12 25 2 10 4 20
4 22 1 1 10 2 21 2 11 0 26 -12 34 -28z m-364 9 c0 -10 -69 -103 -84 -113 -17
-12 -29 -9 -61 17 l-30 25 25 17 c64 47 150 78 150 54z m144 -39 c-6 -9 -19
-18 -28 -20 -22 -5 -21 34 2 47 23 13 40 -4 26 -27z m-2122 -23 c-12 -28 -16
-53 -12 -69 9 -33 52 -101 93 -148 18 -20 55 -73 82 -116 27 -44 60 -93 75
-110 39 -44 52 -74 45 -97 -7 -20 -7 -20 -27 -2 -11 10 -35 41 -53 68 -18 28
-44 63 -59 78 -15 16 -39 54 -55 85 -16 31 -43 70 -60 87 -18 16 -45 50 -61
75 l-29 45 16 55 c13 48 50 106 60 96 2 -2 -5 -23 -15 -47z m2078 -58 c0 -28
-14 -41 -46 -41 -18 0 -18 20 2 48 22 32 44 28 44 -7z m-356 -56 c3 -9 0 -15
-9 -15 -8 0 -15 7 -15 15 0 8 4 15 9 15 5 0 11 -7 15 -15z m-110 -34 c9 -13
-3 -39 -20 -45 -17 -6 -29 17 -20 39 6 17 32 20 40 6z m-1919 -71 c18 -11 37
-33 42 -48 24 -65 44 -174 38 -201 -8 -37 -41 -81 -61 -81 -24 0 -74 42 -90
75 -31 63 -39 75 -49 75 -10 0 -35 46 -35 65 0 6 -13 19 -30 28 -54 32 -37 51
85 94 45 16 65 15 100 -7z m2466 -47 c3 -18 4 -44 1 -58 -4 -22 -9 -26 -36
-24 -17 2 -46 -5 -64 -15 -39 -20 -62 -15 -62 14 0 18 4 20 34 15 28 -6 36 -3
45 13 10 20 19 52 20 80 1 8 11 12 28 10 22 -2 29 -10 34 -35z m159 -12 c0
-11 -4 -23 -10 -26 -6 -4 -10 5 -10 19 0 14 5 26 10 26 6 0 10 -9 10 -19z
m179 -30 c10 -7 12 -21 7 -56 -11 -71 -55 -135 -94 -135 -18 0 -23 51 -10 107
10 45 19 60 43 75 34 21 35 21 54 9z m-315 -122 c-3 -5 -10 -7 -15 -3 -5 3 -7
10 -3 15 3 5 10 7 15 3 5 -3 7 -10 3 -15z m356 -23 c0 -3 -4 -8 -10 -11 -5 -3
-10 -1 -10 4 0 6 5 11 10 11 6 0 10 -2 10 -4z m4515 -46 c-3 -5 -10 -10 -16
-10 -5 0 -9 5 -9 10 0 6 7 10 16 10 8 0 12 -4 9 -10z m298 0 c6 0 1 -7 -11
-16 -19 -13 -26 -13 -38 -3 -12 10 -12 14 -2 21 7 4 19 6 26 3 8 -3 19 -5 25
-5z m-4855 -44 c-2 -16 -12 -22 -38 -26 -28 -4 -39 -12 -56 -45 -11 -22 -28
-42 -38 -43 -16 -4 -18 1 -11 34 11 61 23 77 53 71 19 -4 31 1 44 19 22 27 51
22 46 -10z m-928 -160 c0 -16 -18 -31 -27 -22 -8 8 5 36 17 36 5 0 10 -6 10
-14z m930 -30 c0 -25 -35 -76 -52 -76 -12 0 -1 69 14 88 17 20 38 14 38 -12z
m-2466 -132 c22 -69 11 -87 -29 -50 -15 14 -37 26 -49 26 -12 0 -28 5 -36 10
-13 9 -12 13 5 26 19 15 73 43 86 44 3 0 13 -25 23 -56z m2643 -6 c-3 -7 -5
-2 -5 12 0 14 2 19 5 13 2 -7 2 -19 0 -25z m-273 7 c-6 -16 -24 -21 -24 -7 0
11 11 22 21 22 5 0 6 -7 3 -15z m-524 -14 c0 -14 -18 -23 -30 -16 -6 4 -8 11
-5 16 8 12 35 12 35 0z m1108 -62 c2 -23 2 -23 -13 -5 -18 24 -20 39 -2 34 6
-3 13 -15 15 -29z m-918 11 c0 -5 -7 -10 -16 -10 -8 0 -12 5 -9 10 3 6 10 10
16 10 5 0 9 -4 9 -10z m443 -67 c9 -9 -12 -33 -30 -33 -11 0 -11 4 -3 20 11
21 22 25 33 13z m207 -38 c0 -29 -19 -43 -31 -24 -6 11 -6 37 0 56 1 1 8 0 16
-3 8 -4 15 -17 15 -29z m83 -125 c-3 -12 -8 -19 -11 -16 -5 6 5 36 12 36 2 0
2 -9 -1 -20z m135 -8 c2 -7 -5 -16 -17 -19 -11 -3 -23 -14 -26 -24 -5 -15 -16
-19 -51 -19 -32 0 -44 4 -44 15 0 8 9 15 20 15 11 0 20 4 20 8 0 11 62 41 79
39 8 -1 16 -8 19 -15z m-878 -22 c0 -5 -4 -10 -9 -10 -6 0 -13 5 -16 10 -3 6
1 10 9 10 9 0 16 -4 16 -10z m534 -6 c3 -9 6 -29 6 -45 0 -19 8 -34 25 -45 33
-22 40 -55 21 -92 -9 -17 -16 -51 -16 -76 0 -56 -15 -66 -48 -32 -25 24 -26
28 -15 68 6 24 9 55 6 70 -3 15 -1 41 5 57 8 23 7 32 -4 42 -8 6 -14 21 -14
34 0 35 23 48 34 19z m5656 7 c0 -5 -7 -12 -16 -15 -24 -9 -28 -7 -14 9 14 17
30 20 30 6z m-8554 -47 c50 -27 71 -34 94 -29 16 4 32 11 35 16 13 21 25 7 25
-30 0 -31 5 -41 20 -46 31 -10 70 -63 70 -96 0 -34 -10 -37 -35 -9 -10 11 -24
20 -31 20 -7 0 -36 19 -63 43 -66 56 -149 119 -178 135 -24 13 -31 32 -13 32
6 0 40 -16 76 -36z m1939 -44 c0 -32 -30 -39 -38 -9 -8 28 0 41 21 37 11 -2
17 -13 17 -28z m-2146 -45 c2 -43 24 -97 52 -130 37 -41 130 -80 168 -69 27 8
124 6 152 -2 11 -3 19 -21 24 -50 3 -25 17 -68 31 -97 47 -101 26 -117 -78
-56 -40 23 -82 52 -94 63 -11 12 -37 35 -57 51 -69 55 -196 183 -210 212 -22
43 -28 92 -15 116 11 21 11 21 19 2 4 -11 8 -29 8 -40z m8784 -43 c12 -15 3
-27 -12 -17 -6 3 -10 21 -10 38 1 21 3 25 6 12 3 -11 10 -26 16 -33z m-5375
16 c7 -7 12 -42 12 -88 0 -84 15 -118 45 -107 13 5 15 13 10 30 -18 58 -17 68
5 93 13 13 27 24 31 24 18 0 33 -50 35 -120 1 -41 5 -133 9 -204 5 -109 3
-136 -12 -178 -31 -88 -62 -85 -72 8 -5 50 -9 59 -26 59 -18 0 -20 -8 -23 -63
-3 -58 -5 -64 -30 -73 -17 -7 -48 -7 -82 -2 -72 11 -83 30 -76 138 11 171 15
184 53 200 24 10 33 20 29 30 -3 8 -8 38 -12 66 -6 42 -3 55 15 80 12 16 24
43 28 61 10 54 34 73 61 46z m-844 -14 c14 -35 -32 -72 -73 -59 -48 15 -22 75
33 75 22 0 36 -6 40 -16z m423 -97 c-7 -19 19 -49 40 -45 11 2 18 -3 18 -12 0
-9 -6 -13 -15 -11 -8 3 -28 5 -44 5 -25 1 -31 -4 -38 -33 -6 -22 -6 -37 1 -44
22 -22 11 -37 -25 -37 -33 0 -36 2 -30 24 3 14 2 28 -4 31 -14 9 -13 68 2 83
7 7 23 12 36 12 15 0 26 7 29 20 3 11 12 20 20 20 8 0 13 -6 10 -13z m171
-179 c2 -9 -6 -26 -18 -38 -17 -17 -24 -19 -43 -9 -12 7 -26 18 -30 25 -9 15
-37 19 -37 5 0 -5 7 -14 15 -21 8 -7 12 -17 9 -22 -3 -5 2 -18 11 -28 25 -28
5 -79 -31 -80 -14 0 -41 60 -53 120 -6 24 -9 45 -8 47 1 1 28 3 60 6 31 2 60
7 64 11 13 13 58 1 61 -16z m5292 -118 c0 -26 -25 -36 -46 -19 -14 12 -14 14
2 26 26 19 44 16 44 -7z m-884 2 c6 -4 16 -17 22 -29 12 -22 1 -33 -35 -33
-22 0 -73 39 -73 56 0 15 65 20 86 6z m739 -42 c-3 -5 -31 -10 -61 -10 -34 0
-53 4 -49 10 3 6 31 10 61 10 34 0 53 -4 49 -10z m1416 -34 c-11 -12 -28 -45
-36 -73 -8 -28 -22 -56 -30 -63 -8 -7 -15 -18 -15 -25 0 -7 -7 -18 -16 -26
-13 -10 -17 -10 -24 0 -4 8 -12 11 -18 7 -6 -3 -13 -2 -16 3 -4 5 -2 12 4 16
6 3 18 22 28 40 23 46 136 169 140 155 2 -6 -5 -22 -17 -34z m-9216 -55 c45
-21 87 -46 94 -55 8 -9 34 -25 59 -36 25 -12 53 -27 61 -35 9 -7 28 -24 42
-37 16 -15 28 -40 33 -67 8 -54 3 -61 -29 -31 -19 18 -26 20 -29 9 -21 -59
-27 -69 -41 -69 -20 0 -19 17 3 30 16 10 16 10 0 20 -11 7 -18 23 -18 40 0 25
-4 29 -32 32 -29 3 -33 6 -30 28 1 18 -5 28 -19 35 -26 12 -29 29 -6 33 10 2
17 -3 17 -13 0 -10 7 -15 17 -13 34 6 17 23 -37 36 -30 8 -65 23 -78 35 l-22
21 -20 -22 -21 -22 35 -48 c20 -26 40 -53 46 -59 15 -18 30 -61 30 -87 0 -13
9 -30 21 -37 11 -8 24 -30 28 -49 6 -29 11 -35 34 -35 15 -1 35 -11 47 -24 24
-29 24 -28 1 -40 -14 -8 -32 -4 -77 19 -83 41 -110 66 -94 85 10 12 10 15 -1
15 -20 1 -65 37 -56 46 4 4 15 -1 26 -10 22 -20 29 -13 29 27 -1 28 -24 37
-45 16 -7 -7 -17 -7 -29 -1 -11 6 -44 16 -75 22 -44 10 -56 16 -52 29 5 20
-44 110 -63 118 -8 3 -14 12 -14 20 0 8 -13 19 -30 24 -40 14 -39 33 1 25 29
-5 31 -4 25 18 -5 20 -2 24 23 28 25 4 31 -1 45 -29 8 -18 13 -38 11 -46 -6
-15 34 -72 66 -95 12 -8 19 -10 15 -4 -4 6 3 16 15 23 20 10 20 12 6 21 -18
10 -23 38 -7 38 13 0 50 42 45 51 -3 4 -15 5 -28 2 -21 -5 -21 -5 -3 9 13 10
15 17 8 22 -7 4 -25 -6 -42 -24 -16 -16 -32 -30 -35 -30 -3 0 -5 14 -5 31 0
17 -4 38 -10 48 -9 17 -6 18 38 9 26 -4 83 -26 127 -47z m-370 19 c33 -35 29
-45 -15 -35 -33 7 -46 25 -36 50 8 22 19 19 51 -15z m115 -160 c0 -27 6 -42
18 -49 15 -9 15 -12 2 -21 -22 -15 -86 -12 -100 5 -13 15 -5 55 11 55 5 0 14
11 19 25 6 15 17 25 30 25 17 0 20 -7 20 -40z m2221 -25 c11 -25 17 -50 14
-55 -11 -18 -64 22 -70 52 -14 63 28 65 56 3z m-394 19 c8 -20 -8 -36 -26 -25
-15 10 -8 41 9 41 6 0 13 -7 17 -16z m793 -18 c0 -3 -4 -8 -10 -11 -5 -3 -10
-1 -10 4 0 6 5 11 10 11 6 0 10 -2 10 -4z m448 -59 c4 -18 -39 -34 -57 -22
-15 9 -14 42 2 48 19 7 52 -9 55 -26z m-325 -25 c27 -28 27 -31 23 -123 l-4
-94 -43 -22 c-23 -13 -48 -23 -55 -23 -18 0 -27 -36 -15 -59 9 -16 7 -23 -11
-35 -12 -9 -33 -16 -45 -16 -23 0 -23 0 -19 122 4 102 8 124 22 135 10 7 23
13 30 13 16 0 22 18 19 60 -2 19 1 43 6 52 15 28 61 22 92 -10z m-2343 1 c-1
-25 -14 -53 -26 -53 -18 0 -19 46 -1 53 19 8 27 8 27 0z m1901 -46 c-5 -5 -17
-7 -26 -3 -14 5 -15 9 -5 21 10 12 16 13 27 4 9 -8 10 -16 4 -22z m879 8 c0
-20 -38 -57 -53 -52 -17 5 -21 48 -5 58 22 14 58 10 58 -6z m-2306 -137 l58
-53 -9 -44 c-4 -25 -13 -46 -19 -48 -11 -4 -124 187 -124 208 0 15 28 -4 94
-63z m2136 43 c0 -6 -4 -13 -10 -16 -5 -3 -10 1 -10 9 0 9 5 16 10 16 6 0 10
-4 10 -9z m6270 -1 c0 -5 -4 -10 -8 -10 -4 0 -13 -19 -19 -42 -9 -34 -9 -46 3
-62 12 -17 11 -22 -3 -38 -9 -10 -26 -18 -39 -18 -13 0 -42 -13 -66 -28 -24
-16 -58 -34 -75 -42 -18 -7 -33 -16 -33 -20 0 -15 -29 -19 -64 -8 -38 12 -48
28 -17 28 33 0 70 25 61 40 -6 10 0 19 22 32 24 15 29 24 24 43 -5 20 -2 24
21 27 20 2 27 8 25 21 -2 12 4 17 20 17 12 0 38 10 57 23 77 49 91 55 91 37z
m-9651 -74 c13 -14 20 -29 16 -35 -7 -12 -56 -14 -91 -5 -29 8 -21 37 14 51
38 15 36 16 61 -11z m3631 -1 c0 -13 5 -36 12 -50 8 -19 8 -31 0 -48 -6 -12
-12 -33 -14 -47 -4 -31 -36 -39 -55 -14 -20 27 -16 75 9 101 12 12 22 33 24
45 1 13 3 26 3 31 2 19 21 4 21 -18z m-2740 5 c0 -5 -4 -10 -10 -10 -5 0 -10
5 -10 10 0 6 5 10 10 10 6 0 10 -4 10 -10z m2610 -18 c0 -16 -7 -37 -15 -48
-19 -25 -19 -48 0 -64 15 -12 13 -43 -6 -106 -7 -22 -6 -40 2 -58 11 -24 10
-30 -13 -53 -34 -34 -58 -25 -58 21 0 19 5 70 11 112 11 68 10 78 -5 86 -31
17 -9 90 36 122 33 24 48 20 48 -12z m-807 -19 c9 -9 -13 -34 -24 -27 -14 8
-11 34 4 34 8 0 17 -3 20 -7z m-365 -29 c2 -13 -4 -24 -13 -28 -24 -9 -35 1
-35 30 0 21 4 25 23 22 13 -2 23 -11 25 -24z m-2143 6 c3 -5 -3 -10 -14 -10
-12 0 -21 5 -21 10 0 6 6 10 14 10 8 0 18 -4 21 -10z m720 -10 c3 -5 1 -10 -4
-10 -6 0 -11 5 -11 10 0 6 2 10 4 10 3 0 8 -4 11 -10z m1903 -17 c5 -10 13
-54 16 -99 6 -68 4 -83 -9 -94 -12 -10 -24 -11 -43 -4 -26 9 -27 12 -28 89 0
66 3 84 19 103 25 27 33 28 45 5z m5752 -17 c0 -8 -4 -18 -10 -21 -5 -3 -10 3
-10 14 0 12 5 21 10 21 6 0 10 -6 10 -14z m-5292 -23 c2 -16 -7 -26 -40 -43
-24 -12 -48 -31 -53 -43 -6 -11 -16 -22 -22 -25 -22 -7 -26 28 -7 49 11 12 18
23 17 25 -11 16 2 36 30 48 44 20 71 16 75 -11z m-2328 8 c0 -5 -5 -11 -12
-13 -6 -2 -8 -10 -4 -16 10 -17 26 -15 26 3 0 10 10 15 30 15 23 0 30 -5 30
-19 0 -10 -7 -22 -16 -25 -15 -6 -15 -8 -1 -24 9 -9 16 -21 18 -27 1 -5 19
-15 39 -21 32 -10 37 -9 33 3 -3 7 -18 20 -34 29 -16 8 -29 19 -29 24 0 23 27
6 90 -60 38 -38 80 -72 93 -75 24 -6 43 -32 32 -43 -3 -3 -20 2 -37 11 -113
55 -327 136 -362 137 -6 0 -22 9 -35 19 -24 18 -24 19 -4 29 11 6 30 8 42 5
18 -5 22 -2 19 13 -2 13 3 19 14 18 10 -1 16 2 13 6 -3 5 3 11 12 13 31 8 43
7 43 -2z m-120 -16 c0 -8 -4 -15 -10 -15 -5 0 -10 7 -10 15 0 8 5 15 10 15 6
0 10 -7 10 -15z m520 -11 c0 -8 -4 -12 -10 -9 -5 3 -10 10 -10 16 0 5 5 9 10
9 6 0 10 -7 10 -16z m-600 -14 c0 -5 -7 -7 -15 -4 -8 4 -15 8 -15 10 0 2 7 4
15 4 8 0 15 -4 15 -10z m1894 -25 c-4 -8 -12 -15 -20 -15 -8 0 -14 7 -14 15 0
8 9 15 20 15 13 0 18 -5 14 -15z m430 -77 c0 -19 -9 -46 -19 -61 -17 -26 -19
-27 -36 -11 -26 23 -24 47 7 84 32 38 49 34 48 -12z m6516 -12 c0 -19 -27 -46
-45 -46 -17 0 -34 -30 -28 -47 7 -19 -18 -16 -32 4 -11 15 -16 16 -37 4 -27
-14 -77 -12 -81 4 -1 6 14 11 34 13 27 2 38 8 42 23 5 17 11 20 36 14 24 -5
32 -3 37 10 11 29 74 46 74 21z m-10006 -67 c60 -35 152 -69 186 -69 6 0 10 7
10 15 0 25 29 17 91 -24 33 -22 59 -38 59 -37 0 1 -9 21 -20 44 -38 77 -17 92
68 47 57 -29 328 -226 344 -249 5 -7 8 -4 8 7 0 9 4 17 9 17 14 0 33 -28 27
-39 -4 -5 4 -13 16 -16 13 -4 33 -17 46 -28 47 -43 20 5 -68 123 -74 98 -113
167 -105 181 10 15 60 4 95 -21 45 -32 90 -45 100 -30 10 16 68 2 140 -34 25
-12 77 -31 115 -41 39 -10 75 -22 81 -26 6 -5 30 -15 53 -24 41 -14 42 -14 50
8 6 15 3 34 -11 60 -34 67 -14 81 137 98 98 10 144 4 227 -35 18 -8 59 -22 92
-31 58 -17 153 -55 191 -77 46 -26 130 -68 137 -68 5 0 50 -33 101 -74 82 -66
129 -111 207 -202 33 -40 111 -154 120 -179 4 -11 30 -59 57 -106 52 -89 74
-169 47 -169 -8 0 -32 11 -54 25 -22 14 -99 56 -172 94 -319 164 -351 179
-511 233 -83 28 -103 31 -201 29 -60 0 -114 -5 -120 -10 -22 -17 -55 -18 -76
-4 -11 8 -47 16 -80 18 -32 1 -63 6 -70 10 -6 4 -17 2 -24 -4 -8 -7 -30 -12
-49 -13 -30 -1 -34 -4 -27 -17 12 -24 42 -48 65 -53 17 -4 15 -7 -15 -27 -26
-17 -45 -21 -75 -17 -26 3 -45 0 -55 -9 -8 -7 -67 -27 -130 -44 -63 -17 -143
-40 -178 -52 l-63 -21 -37 24 c-20 14 -49 32 -64 42 -19 11 -28 25 -28 42 0
40 -45 74 -125 95 -67 17 -95 14 -80 -10 3 -6 22 -18 41 -26 19 -8 34 -19 34
-24 0 -16 -26 -13 -40 3 -6 8 -21 16 -33 18 -17 2 -21 10 -22 44 -2 73 -123
219 -434 522 -109 106 -133 134 -121 142 28 18 63 10 134 -31z m1711 -57 c-3
-3 -11 0 -18 7 -9 10 -8 11 6 5 10 -3 15 -9 12 -12z m8065 -1 c0 -5 -7 -14
-15 -21 -18 -15 -42 1 -31 19 8 13 46 15 46 2z m538 -351 c38 -76 29 -110 -60
-227 -22 -29 -46 -53 -52 -53 -16 0 -53 51 -62 84 -10 41 3 79 26 73 28 -7 39
12 52 85 15 88 14 87 45 84 22 -2 33 -12 51 -46z m-9926 -221 c3 -20 0 -33 -9
-36 -7 -3 -13 -14 -13 -25 0 -26 -24 -18 -28 10 -2 15 2 22 14 22 13 0 15 6
11 30 -5 22 -3 30 7 30 8 0 16 -14 18 -31z m-192 -29 c0 -5 -2 -10 -4 -10 -3
0 -8 5 -11 10 -3 6 -1 10 4 10 6 0 11 -4 11 -10z m-32 -58 c2 -15 -3 -21 -20
-24 -20 -3 -23 -8 -20 -40 3 -42 -9 -54 -38 -38 -29 15 -36 56 -15 80 10 11
24 20 30 20 7 0 18 7 25 15 17 20 34 14 38 -13z m662 -227 c0 -7 -7 -18 -15
-25 -19 -16 -19 -47 0 -84 22 -41 19 -73 -7 -87 -23 -12 -44 -29 -75 -61 -25
-26 -36 -10 -13 19 11 14 20 31 20 38 0 7 6 18 14 24 7 6 16 38 20 71 4 33 11
62 16 65 6 4 10 22 10 42 0 30 2 34 15 23 8 -7 15 -18 15 -25z m1970 -10 c0
-8 -4 -15 -10 -15 -5 0 -10 7 -10 15 0 8 5 15 10 15 6 0 10 -7 10 -15z m100
-245 c0 -5 -4 -10 -10 -10 -5 0 -10 5 -10 10 0 6 5 10 10 10 6 0 10 -4 10 -10z
m-2505 -20 c3 -5 2 -10 -4 -10 -5 0 -13 5 -16 10 -3 6 -2 10 4 10 5 0 13 -4
16 -10z m236 -41 c-9 -23 -10 -22 -10 11 -1 23 2 31 9 24 7 -7 7 -19 1 -35z
m-161 21 c0 -5 -4 -10 -9 -10 -6 0 -13 5 -16 10 -3 6 1 10 9 10 9 0 16 -4 16
-10z m35 -10 c3 -5 2 -10 -4 -10 -5 0 -13 5 -16 10 -3 6 -2 10 4 10 5 0 13 -4
16 -10z m995 -339 c30 -4 85 -5 123 0 37 5 77 5 90 0 21 -8 125 -24 252 -39
54 -6 160 -3 505 14 162 8 273 4 290 -11 8 -7 29 -20 46 -28 16 -9 43 -36 60
-62 19 -31 49 -59 87 -82 43 -26 74 -57 122 -122 123 -167 137 -183 183 -214
118 -80 146 -133 193 -367 43 -211 53 -240 94 -280 20 -19 52 -65 70 -103 19
-37 41 -77 50 -89 21 -31 19 -38 -13 -38 -39 0 -56 17 -72 70 -15 51 -48 120
-56 120 -3 0 -4 -37 -3 -82 3 -70 2 -82 -11 -79 -8 2 -69 5 -135 7 -66 2 -142
5 -170 7 -43 2 -111 -3 -230 -17 -79 -9 -183 -30 -215 -42 -19 -8 -68 -15
-108 -16 -42 -1 -76 -6 -82 -13 -7 -9 -25 -10 -66 -3 -30 5 -60 5 -66 2 -22
-14 -154 -31 -175 -23 -15 5 -25 3 -33 -6 -15 -18 -34 -9 -26 11 3 8 0 14 -7
14 -7 0 -19 -16 -27 -35 -12 -30 -18 -35 -45 -35 -18 0 -52 -3 -76 -6 l-44 -6
-55 98 c-30 55 -62 116 -72 136 -9 20 -59 110 -111 200 -51 90 -110 192 -130
228 -21 36 -61 104 -90 151 -78 127 -115 194 -137 250 -11 28 -34 79 -50 114
-17 35 -30 70 -30 77 0 7 -18 50 -40 96 -22 45 -40 85 -40 90 0 4 -16 31 -35
60 -25 37 -32 54 -23 57 41 15 201 13 308 -4z m-322 -51 c2 -14 15 -40 29 -58
13 -18 32 -54 40 -80 9 -26 22 -56 30 -67 17 -25 17 -65 -1 -65 -12 0 -116
191 -116 215 0 6 -9 21 -20 35 -28 36 -25 52 8 48 20 -2 28 -9 30 -28z m182
-380 c0 -5 -7 -10 -15 -10 -8 0 -15 5 -15 10 0 6 7 10 15 10 8 0 15 -4 15 -10z
m-1518 -66 c-5 -9 -22 -22 -39 -29 -27 -12 -29 -11 -31 12 -1 14 2 21 8 18 6
-3 10 -1 10 4 0 6 14 11 30 11 26 0 29 -3 22 -16z m84 -34 c0 -14 4 -33 8 -42
11 -24 1 -48 -20 -48 -12 0 -15 6 -10 23 4 19 2 23 -22 22 -33 0 -43 30 -11
38 15 4 20 11 15 22 -4 13 -1 16 17 13 16 -2 22 -10 23 -28z m2860 -959 c-10
-16 -36 -13 -36 3 0 17 21 27 34 16 4 -5 5 -13 2 -19z m-131 9 c7 -11 -30 -36
-67 -45 -24 -6 -28 -4 -28 14 0 15 6 21 21 21 13 0 18 -5 14 -12 -3 -7 2 -3
11 10 17 23 39 29 49 12z m600 -192 c24 1 35 -5 48 -28 10 -16 36 -39 60 -52
23 -13 43 -31 45 -41 4 -19 -30 -37 -35 -20 -13 39 -115 113 -154 113 -29 0
-49 11 -49 27 0 12 6 13 28 7 15 -4 41 -7 57 -6z m789 -14 c9 -3 16 -12 16
-20 0 -8 9 -14 19 -14 29 0 35 -17 10 -31 -19 -10 -25 -7 -50 22 -39 46 -37
59 5 43z m-2089 -308 c8 -19 19 -37 25 -41 5 -3 10 -14 10 -24 0 -13 -9 -20
-32 -24 -18 -2 -34 -3 -36 -2 -6 5 -20 110 -15 118 11 18 35 4 48 -27z m89
-139 c29 -38 34 -67 11 -67 -14 0 -55 67 -55 90 0 20 19 10 44 -23z m-124 -12
c0 -8 -7 -15 -15 -15 -16 0 -20 12 -8 23 11 12 23 8 23 -8z m2081 -201 c70
-21 51 -29 -96 -38 -74 -5 -152 -18 -245 -42 -74 -20 -151 -40 -170 -44 -170
-42 -263 -63 -305 -70 -27 -5 -88 -16 -135 -24 -181 -33 -183 -10 -5 47 61 20
146 45 190 57 44 12 127 38 185 57 193 65 465 91 581 57z m473 -310 c11 -27 7
-37 -9 -24 -16 14 -20 40 -6 40 5 0 12 -7 15 -16z m-1100 -193 c3 -5 -10 -9
-28 -8 -19 0 -33 5 -30 9 7 11 51 10 58 -1z m5899 -462 c3 -13 1 -19 -6 -16
-15 5 -22 37 -9 37 5 0 12 -9 15 -21z m-7498 -1320 c59 -52 60 -60 19 -141
-20 -40 -59 -112 -85 -159 -69 -121 -65 -137 16 -71 26 20 78 67 115 104 104
103 151 125 195 94 11 -7 37 -19 57 -25 39 -13 103 -76 118 -117 39 -100 -53
-357 -174 -490 -54 -59 -54 -59 -75 -40 -21 19 -22 19 -36 0 -13 -17 -14 -17
-15 -1 0 9 5 17 10 17 6 0 10 4 10 9 0 6 13 29 29 53 108 161 200 436 161 483
-14 17 -78 20 -131 5 -96 -27 -376 -313 -479 -490 -39 -67 -68 -88 -85 -60 -6
10 -149 5 -166 -6 -25 -15 73 200 128 280 72 105 26 75 -130 -86 -165 -171
-202 -198 -237 -176 -15 10 -22 10 -32 0 -14 -14 -48 -16 -48 -3 0 12 119 170
174 231 22 25 51 53 65 62 37 25 168 177 186 215 9 18 29 40 45 48 30 15 81
75 118 135 39 65 154 160 193 160 10 0 34 -14 54 -31z m5908 20 c34 -18 77
-61 77 -78 0 -17 -76 -176 -120 -252 -17 -28 -29 -56 -27 -62 2 -6 28 12 59
39 203 178 239 196 306 159 15 -8 44 -21 64 -29 23 -9 50 -33 72 -63 34 -46
36 -52 36 -130 0 -45 -4 -85 -10 -88 -5 -3 -10 -19 -10 -35 0 -16 -4 -32 -10
-35 -5 -3 -10 -14 -10 -23 0 -25 -75 -167 -126 -238 -45 -63 -180 -194 -201
-194 -6 0 -9 8 -6 20 6 23 -8 26 -40 8 -24 -14 -77 -17 -77 -5 0 4 4 7 9 7 5
0 36 28 68 62 32 34 70 74 85 89 120 126 265 470 228 540 -11 20 -17 21 -71
15 -80 -8 -102 -21 -216 -128 -250 -233 -374 -430 -364 -575 3 -39 -14 -44
-23 -7 -6 21 -9 24 -22 13 -19 -16 -27 -6 -31 38 -4 61 -18 60 -69 -6 -45 -58
-48 -60 -61 -41 -12 16 -18 18 -34 9 -15 -7 -24 -7 -34 1 -8 6 -23 9 -35 5
-11 -3 -20 -2 -20 3 0 6 27 53 61 106 77 123 151 265 146 280 -4 13 -34 -17
-197 -198 -63 -71 -135 -144 -159 -164 l-43 -36 -43 15 c-29 11 -49 13 -60 7
-10 -6 -31 -6 -53 -1 l-37 9 1 94 c1 52 3 113 6 135 33 259 37 309 24 323 -4
4 -12 -1 -17 -11 -6 -9 -51 -79 -102 -154 -50 -76 -96 -146 -102 -155 -25 -42
-142 -202 -159 -219 -10 -10 -23 -16 -29 -12 -5 3 -14 -1 -19 -8 -7 -11 -11
-11 -15 -1 -2 6 -18 12 -33 12 -55 0 -55 1 75 200 110 168 354 564 390 633 52
97 82 107 146 50 l41 -37 -6 -105 c-6 -118 -19 -251 -35 -356 -6 -38 -15 -95
-20 -125 -4 -30 -11 -63 -16 -73 -11 -26 3 -69 19 -60 15 9 83 85 181 202 33
40 73 80 88 90 39 25 166 169 183 208 7 17 29 41 48 52 38 24 106 95 106 112
0 18 87 109 138 146 50 35 70 40 105 22z m-6771 -72 c15 -11 32 -33 37 -49 16
-45 -11 -327 -54 -558 -4 -19 -14 -61 -23 -92 -14 -53 -19 -58 -48 -64 -18 -3
-38 -3 -44 1 -12 8 -8 118 10 260 20 159 22 195 8 194 -7 0 -56 -66 -108 -146
-115 -177 -210 -301 -230 -302 -8 0 -32 -2 -52 -5 -21 -2 -38 -2 -38 0 0 14
32 76 64 124 20 30 36 58 36 62 0 4 33 60 74 125 75 120 199 326 247 410 27
47 65 76 84 65 5 -3 22 -15 37 -25z m1608 -112 c24 -13 33 -13 50 -3 25 16 51
2 63 -33 7 -18 -1 -47 -33 -122 l-42 -98 2 -152 c2 -84 2 -182 1 -219 -1 -65
-2 -68 -26 -68 -20 0 -25 6 -31 38 -3 20 -12 69 -20 107 -8 39 -14 82 -14 97
0 15 -4 30 -10 33 -12 7 -26 -9 -133 -154 -82 -110 -86 -114 -126 -117 -23 -2
-41 -1 -41 2 0 14 65 130 115 203 31 46 67 105 80 130 12 26 42 71 65 101 l41
55 -7 99 c-5 78 -3 100 7 107 19 12 26 11 59 -6z m1181 -6 c19 -9 45 -66 35
-76 -3 -4 -34 -10 -69 -14 -163 -20 -383 -127 -513 -251 -82 -77 -74 -94 31
-72 39 8 88 19 110 23 22 4 60 14 85 21 26 8 96 14 165 14 104 1 125 -2 155
-20 41 -24 80 -77 80 -110 0 -34 -84 -102 -197 -158 -54 -27 -105 -52 -114
-57 -10 -4 -40 -8 -68 -7 -29 0 -58 -6 -66 -12 -11 -9 -15 -9 -15 -1 0 6 3 11
8 11 4 0 14 12 23 28 14 24 53 48 201 125 39 20 108 89 108 109 0 17 -148 4
-315 -28 -249 -48 -274 -45 -316 37 -26 53 -21 74 38 140 51 56 197 169 220
169 7 0 31 16 52 36 25 22 54 37 78 41 21 3 48 12 60 20 60 39 177 56 224 32z
m1144 -10 c26 -25 11 -50 -38 -64 -20 -6 -42 -19 -50 -29 -8 -10 -33 -22 -58
-26 -24 -5 -82 -18 -129 -29 -47 -12 -95 -24 -108 -27 -12 -2 -27 -16 -32 -30
-23 -60 -107 -170 -273 -357 -119 -134 -154 -166 -177 -160 -29 8 -25 29 15
82 19 25 58 81 87 123 29 42 81 110 115 150 98 115 116 138 110 144 -6 7 -52
-3 -192 -41 -197 -54 -193 -53 -220 -20 -48 59 -29 72 200 136 22 6 51 15 65
20 14 4 59 15 100 24 41 9 86 21 100 25 14 4 61 18 105 29 317 85 342 88 380
50z m585 21 c25 -16 1 -29 -165 -90 -104 -38 -208 -81 -270 -110 -33 -16 -89
-39 -123 -51 -35 -12 -70 -32 -77 -43 -22 -34 -64 -165 -55 -171 10 -6 62 12
160 57 129 59 283 104 338 99 40 -4 -23 -69 -105 -108 -18 -8 -33 -19 -33 -23
0 -9 -42 -26 -85 -36 -16 -3 -50 -19 -75 -34 -25 -16 -65 -36 -90 -45 -25 -9
-54 -21 -65 -25 -11 -4 -46 -18 -79 -31 -51 -19 -63 -30 -95 -79 -33 -51 -39
-56 -59 -47 -12 6 -22 18 -22 28 0 10 -20 32 -45 49 -62 43 -59 62 13 89 104
40 104 40 139 131 18 46 33 90 33 96 0 7 -12 19 -27 26 -43 20 -41 44 4 58 21
7 50 23 64 37 20 18 33 22 52 18 23 -6 70 5 142 35 145 60 473 178 500 179 6
0 17 -4 25 -9z m536 -16 c40 -19 56 -34 77 -73 36 -66 35 -90 -10 -133 -70
-67 -131 -100 -460 -249 -35 -15 -63 -33 -63 -38 0 -6 10 -17 23 -26 12 -9 50
-36 84 -60 59 -42 163 -155 163 -176 0 -6 -30 17 -67 50 -62 55 -224 151 -257
151 -7 0 -36 -30 -64 -67 -64 -86 -121 -145 -133 -137 -5 3 -7 9 -4 13 2 5 -7
6 -20 3 -37 -7 -32 22 15 93 22 33 40 64 40 69 0 5 12 25 27 44 21 29 24 38
15 53 -17 27 -15 49 6 49 39 0 79 40 145 145 65 105 78 135 57 135 -15 0 -101
-30 -158 -56 -72 -33 -103 -31 -130 6 -12 16 -22 36 -22 43 0 14 143 79 241
110 185 58 267 75 374 75 53 0 83 -6 121 -24z m3663 7 c28 -28 16 -59 -37 -90
-25 -14 -67 -41 -95 -58 -27 -18 -56 -33 -66 -33 -43 -2 -82 -38 -134 -125
-30 -50 -79 -130 -111 -178 -31 -48 -54 -92 -51 -97 9 -15 39 -12 86 10 44 20
119 27 119 12 0 -10 -55 -67 -97 -102 -17 -14 -68 -47 -113 -75 -46 -27 -97
-62 -115 -77 -18 -16 -39 -28 -47 -28 -8 0 -27 -13 -43 -30 -37 -39 -53 -39
-47 1 4 24 1 30 -9 27 -8 -3 -20 2 -26 11 -11 13 -14 14 -22 2 -6 -10 -19 -12
-45 -7 -28 5 -38 3 -42 -8 -9 -22 -24 -9 -24 20 0 20 5 24 28 24 42 0 86 33
129 96 21 31 54 73 73 94 20 20 51 61 69 91 19 30 41 65 51 79 24 36 34 70 20
70 -7 0 -34 -11 -62 -25 -72 -36 -93 -33 -118 15 -11 22 -28 40 -36 40 -9 0
-51 -33 -93 -72 -43 -40 -158 -149 -258 -243 -99 -93 -195 -178 -212 -189 -33
-18 -33 -18 -27 2 6 19 3 20 -46 19 -29 -1 -65 1 -80 6 -22 6 -26 4 -22 -8 4
-10 0 -15 -10 -15 -9 0 -19 6 -22 14 -7 18 57 191 97 260 17 32 34 83 43 132
8 45 27 105 45 140 17 34 31 74 31 89 0 39 41 187 56 204 15 17 73 8 104 -17
20 -16 20 -21 10 -77 -25 -138 -57 -253 -114 -408 -20 -54 -36 -100 -36 -102
0 -22 47 17 175 145 83 83 174 167 203 187 28 20 52 40 52 43 0 4 43 46 95 93
76 68 108 90 157 106 l61 21 28 -21 c49 -35 42 -51 -71 -147 -34 -30 -36 -56
-2 -36 40 24 82 46 157 80 44 20 105 48 135 62 198 92 273 109 309 73z m752 9
c5 0 9 -4 9 -10 0 -11 -72 -44 -151 -70 -70 -23 -188 -71 -275 -111 -23 -11
-79 -35 -125 -53 -74 -30 -86 -38 -103 -72 -33 -67 -34 -71 -41 -107 l-7 -35
34 7 c18 5 63 22 100 39 61 29 181 72 285 102 46 14 93 7 93 -14 0 -17 -50
-61 -100 -86 -20 -10 -42 -25 -49 -34 -7 -8 -38 -22 -69 -32 -31 -10 -73 -27
-92 -39 -48 -28 -73 -40 -164 -75 -112 -44 -134 -57 -151 -90 -21 -40 -19 -60
6 -60 11 0 82 25 157 56 158 65 216 84 255 84 96 0 -89 -132 -273 -195 -30
-11 -73 -31 -95 -46 -22 -15 -61 -32 -87 -39 -26 -7 -56 -21 -67 -31 -28 -27
-36 -24 -17 6 22 34 13 45 -35 45 -32 0 -39 -3 -39 -20 0 -29 -18 -24 -26 7
-6 21 -1 31 23 52 34 29 73 90 73 114 0 9 -10 24 -22 34 -40 33 -59 60 -53 75
4 9 34 26 68 38 101 35 102 35 136 124 17 46 31 88 31 95 0 6 -11 16 -25 21
-50 19 -43 52 15 66 14 4 37 17 51 31 19 17 33 22 50 18 15 -4 54 4 99 20 143
51 215 77 235 86 94 42 304 109 323 103 8 -2 18 -4 23 -4z m-7303 -103 c2 -9
-60 -127 -137 -262 -78 -135 -141 -248 -141 -251 0 -3 -14 -26 -32 -50 -25
-35 -34 -41 -45 -32 -10 8 -17 8 -25 0 -17 -17 -28 -15 -28 7 0 46 234 515
286 572 41 45 114 55 122 16z m1941 -550 c-80 -73 -242 -124 -287 -91 -16 12
-15 13 3 19 20 8 52 21 160 71 66 29 107 42 145 43 23 0 22 -3 -21 -42z m3071
-222 c0 -8 -4 -15 -10 -15 -5 0 -10 7 -10 15 0 8 5 15 10 15 6 0 10 -7 10 -15z
m1320 -44 c0 -14 -18 -23 -30 -16 -6 4 -8 11 -5 16 8 12 35 12 35 0z m-5500
-471 c0 -11 -4 -20 -9 -20 -14 0 -23 18 -16 30 10 17 25 11 25 -10z m303 0
c-3 -11 -9 -17 -14 -15 -10 7 -1 35 11 35 5 0 6 -9 3 -20z m37 5 c0 -8 -2 -15
-4 -15 -2 0 -6 7 -10 15 -3 8 -1 15 4 15 6 0 10 -7 10 -15z m648 -212 l-3
-228 -2 205 c-2 116 -8 209 -13 214 -15 15 -12 36 5 36 13 0 15 -31 13 -227z
m937 -3 c0 -127 -3 -230 -7 -230 -5 0 -8 104 -8 230 0 127 3 230 8 230 4 0 7
-104 7 -230z m43 205 c-3 -3 -9 2 -12 12 -6 14 -5 15 5 6 7 -7 10 -15 7 -18z
m264 -81 c-4 -111 4 -138 33 -114 13 11 15 8 15 -20 0 -28 -2 -31 -15 -20 -29
24 -37 -3 -33 -104 1 -53 0 -96 -4 -96 -5 0 -8 104 -8 230 0 127 3 230 8 230
4 0 5 -48 4 -106z m48 90 c0 -14 -3 -14 -15 -4 -8 7 -15 14 -15 16 0 2 7 4 15
4 8 0 15 -7 15 -16z m-1611 -148 c-9 -8 -10 -1 -5 29 3 22 7 58 8 80 1 22 4 9
5 -29 3 -44 0 -73 -8 -80z m987 -14 c-12 -11 -16 6 -9 39 l8 34 3 -33 c2 -19
1 -36 -2 -40z m-999 -34 c-3 -8 -6 -5 -6 6 -1 11 2 17 5 13 3 -3 4 -12 1 -19z
m648 -22 c17 -12 17 -13 -8 -18 -21 -4 -27 -1 -27 13 0 22 10 24 35 5z m-646
-73 c0 -10 -4 -27 -9 -38 -7 -16 -9 -13 -9 18 -1 20 4 37 9 37 6 0 10 -8 9
-17z m972 -63 c-9 -23 -10 -23 -10 11 -1 20 2 39 7 43 11 12 14 -27 3 -54z
m-1324 -86 c-9 -9 -28 6 -21 18 4 6 10 6 17 -1 6 -6 8 -13 4 -17z m34 3 c-13
-13 -26 -3 -16 12 3 6 11 8 17 5 6 -4 6 -10 -1 -17z m944 13 c3 -5 1 -10 -4
-10 -6 0 -11 5 -11 10 0 6 2 10 4 10 3 0 8 -4 11 -10z m685 -5 c0 -8 -7 -15
-15 -15 -26 0 -18 20 13 29 1 1 2 -6 2 -14z m307 -12 c-3 -3 -11 -2 -17 2 -9
6 -9 10 1 16 14 8 27 -7 16 -18z m-952 7 c-3 -5 -10 -10 -16 -10 -5 0 -9 5 -9
10 0 6 7 10 16 10 8 0 12 -4 9 -10z m45 -941 c6 -57 14 -135 20 -174 5 -38 9
-80 10 -92 0 -38 -18 -26 -25 16 -3 22 -12 47 -20 57 -9 13 -10 25 -3 44 10
27 2 90 -12 90 -13 0 -22 -54 -15 -93 4 -20 3 -37 -4 -41 -5 -4 -13 -27 -17
-52 -12 -79 -22 -33 -12 56 5 47 12 131 16 188 5 74 12 106 22 112 24 15 30
-1 40 -111z m-2524 99 c5 -8 2 -9 -11 -5 -9 4 -24 2 -31 -4 -14 -11 -34 -5
-34 12 0 13 67 11 76 -3z m189 2 c-27 -12 -35 -12 -35 0 0 6 12 10 28 9 24 0
25 -1 7 -9z m309 -6 c3 -9 6 -40 6 -70 0 -36 8 -72 22 -102 26 -56 37 -184 18
-207 -24 -29 -40 2 -40 74 0 51 -6 77 -25 113 -19 35 -25 62 -25 108 0 80 26
130 44 84z m211 6 c-28 -12 -47 -12 -40 0 3 6 18 10 33 9 24 0 25 -1 7 -9z
m139 2 c3 -5 -8 -9 -24 -9 -17 0 -30 4 -30 9 0 11 47 11 54 0z m160 2 c12 -4
16 -20 16 -54 0 -29 10 -70 26 -105 14 -32 24 -67 22 -79 -3 -17 -8 -13 -28
24 -16 31 -25 68 -29 120 l-6 75 -37 3 c-21 2 -38 7 -38 13 0 10 50 12 74 3z
m176 1 c0 -2 -9 -9 -20 -15 -16 -9 -20 -8 -20 5 0 8 9 15 20 15 11 0 20 -2 20
-5z m83 -17 c3 -13 12 -60 19 -105 7 -51 17 -83 24 -83 13 0 29 -124 22 -170
-9 -66 -49 1 -65 110 -3 19 -11 42 -18 50 -7 8 -16 56 -20 105 -4 50 -12 96
-17 103 -8 9 -3 12 20 12 23 0 31 -5 35 -22z m157 13 c0 -19 -22 -23 -38 -7
-15 15 -14 16 11 16 15 0 27 -4 27 -9z m598 -16 c3 -19 2 -19 -9 -2 -8 14 -18
17 -36 12 -17 -4 -22 -2 -18 5 12 19 59 7 63 -15z m202 18 c-8 -3 -21 -13 -28
-22 -12 -15 -14 -15 -23 2 -12 21 -38 22 -67 1 -23 -16 -26 -15 -16 10 5 13
21 16 78 15 39 0 64 -3 56 -6z m122 -43 c17 -105 33 -160 44 -156 20 8 24
-175 5 -192 -8 -6 -18 -9 -22 -5 -4 5 -15 53 -24 108 -9 55 -19 102 -21 104
-13 13 -18 -20 -16 -99 1 -49 -2 -92 -8 -95 -9 -6 -13 363 -3 378 3 4 12 7 21
5 12 -2 19 -18 24 -48z m324 39 c4 -8 0 -9 -15 -4 -15 4 -23 1 -27 -10 -5 -12
-9 -13 -20 -4 -8 6 -14 15 -14 20 0 13 68 11 76 -2z m149 1 c-3 -5 -11 -10
-16 -10 -6 0 -7 5 -4 10 3 6 11 10 16 10 6 0 7 -4 4 -10z m165 -15 c5 -13 14
-66 20 -117 5 -51 14 -129 20 -172 5 -44 8 -82 5 -84 -9 -9 -25 11 -25 31 0
12 -6 34 -14 48 -8 16 -11 46 -8 81 5 63 -11 85 -30 43 -9 -20 -9 -34 0 -57 9
-24 9 -35 0 -46 -7 -7 -14 -32 -17 -55 -3 -23 -10 -40 -16 -37 -12 6 -7 124 7
160 5 14 12 67 14 119 2 51 7 98 10 102 10 16 24 9 34 -16z m580 18 c-8 -3
-21 -12 -27 -21 -16 -19 -17 -116 -2 -143 10 -19 12 -19 35 -4 24 15 24 15 24
-20 0 -33 -1 -35 -16 -21 -20 20 -40 20 -48 0 -3 -9 -6 -54 -6 -100 0 -46 -3
-84 -7 -84 -5 0 -7 81 -5 181 3 196 -1 212 -47 207 -25 -3 -26 -6 -29 -76 -2
-47 1 -79 9 -88 9 -11 9 -18 1 -26 -7 -7 -13 -44 -14 -82 l-1 -71 -6 81 c-3
45 -5 125 -3 178 l3 96 77 -1 c42 0 70 -3 62 -6z m395 -27 c-41 -135 -45 -160
-29 -221 8 -33 22 -77 31 -98 9 -20 13 -40 10 -43 -12 -12 -37 5 -37 25 0 11
-4 23 -10 26 -5 3 -10 15 -10 25 0 10 -8 23 -17 29 -15 8 -18 24 -17 97 1 57
5 89 13 92 6 2 21 26 32 53 21 47 48 59 34 15z m62 16 c-21 -23 -23 -130 -4
-155 21 -27 45 1 50 59 2 27 3 -23 3 -111 0 -88 -2 -123 -3 -78 -4 84 -17 111
-48 99 -12 -4 -15 -24 -15 -96 0 -49 -3 -90 -7 -90 -6 0 -9 367 -4 388 1 1 11
2 23 2 20 0 20 -1 5 -18z m188 8 c-3 -5 -10 -10 -16 -10 -5 0 -9 5 -9 10 0 6
7 10 16 10 8 0 12 -4 9 -10z m294 6 c-11 -9 -69 -15 -64 -6 3 6 20 10 37 10
17 0 29 -2 27 -4z m-4099 -54 c0 -57 22 -137 45 -162 23 -26 11 -180 -15 -180
-21 0 -26 24 -36 170 -4 62 -12 113 -20 125 -15 20 -19 77 -7 88 20 21 33 4
33 -41z m170 -21 c0 -78 -9 -131 -21 -131 -10 0 -12 122 -3 169 11 54 24 34
24 -38z m3798 -14 c-11 -39 -22 -79 -25 -88 -2 -9 7 -54 21 -101 14 -46 26
-92 26 -101 0 -34 -19 -15 -35 36 -28 85 -38 82 -48 -13 -2 -19 -4 51 -4 155
0 105 1 183 2 175 2 -8 6 -32 10 -53 7 -41 19 -42 29 -3 12 49 26 77 35 71 6
-3 1 -35 -11 -78z m-2538 -109 c0 -100 -3 -178 -7 -174 -10 10 -11 356 -1 356
5 0 8 -82 8 -182z m567 160 c-3 -8 -6 -5 -6 6 -1 11 2 17 5 13 3 -3 4 -12 1
-19z m374 10 c4 -103 -2 -333 -11 -342 -7 -7 -10 46 -10 172 0 115 4 182 10
182 6 0 10 -6 11 -12z m301 -211 c2 -86 0 -157 -4 -157 -5 0 -7 87 -6 193 2
216 6 201 10 -36z m685 176 c-3 -10 -5 -2 -5 17 0 19 2 27 5 18 2 -10 2 -26 0
-35z m310 15 c-3 -7 -5 -2 -5 12 0 14 2 19 5 13 2 -7 2 -19 0 -25z m-3297 -42
c0 -74 13 -92 60 -82 25 4 30 2 30 -14 0 -15 -7 -18 -37 -17 -22 1 -47 11 -60
23 -20 18 -23 31 -23 88 0 52 3 66 15 66 12 0 15 -14 15 -64z m917 32 c-3 -7
-5 -2 -5 12 0 14 2 19 5 13 2 -7 2 -19 0 -25z m1470 10 c-3 -8 -6 -5 -6 6 -1
11 2 17 5 13 3 -3 4 -12 1 -19z m50 0 c-3 -8 -6 -5 -6 6 -1 11 2 17 5 13 3 -3
4 -12 1 -19z m-2910 -105 c-2 -21 -4 -4 -4 37 0 41 2 58 4 38 2 -21 2 -55 0
-75z m1030 30 c-2 -16 -4 -3 -4 27 0 30 2 43 4 28 2 -16 2 -40 0 -55z m1070
-25 c-2 -13 -4 -5 -4 17 -1 22 1 32 4 23 2 -10 2 -28 0 -40z m-902 -33 c32
-68 38 -92 25 -100 -5 -3 -10 1 -10 9 0 14 -20 66 -41 108 -5 10 -9 28 -8 40
0 15 2 18 6 8 3 -8 16 -37 28 -65z m289 -72 c5 -14 3 -23 -3 -23 -6 0 -11 6
-11 14 0 8 -11 37 -25 64 -14 28 -25 58 -25 68 0 18 50 -78 64 -123z m436 77
c10 0 24 8 29 18 8 13 10 8 11 -26 0 -39 -1 -42 -16 -28 -18 19 -36 20 -51 5
-16 -16 -26 6 -18 39 6 23 8 25 16 9 6 -9 19 -17 29 -17z m-2130 -2 c0 -20 -5
-23 -45 -24 -37 -1 -45 2 -45 18 0 21 4 22 31 6 18 -11 23 -10 33 5 15 23 26
21 26 -5z m1070 7 c14 -16 6 -35 -16 -35 -8 0 -14 10 -14 25 0 28 12 32 30 10z
m950 0 c10 -12 10 -18 0 -30 -19 -23 -30 -18 -30 15 0 33 11 38 30 15z m-1940
-21 c0 -16 -16 -19 -25 -4 -8 13 4 32 16 25 5 -4 9 -13 9 -21z m784 -5 c-10
-16 -24 -9 -24 12 0 18 2 19 15 9 8 -7 12 -16 9 -21z m1862 20 c4 -8 9 -8 17
0 17 17 37 13 37 -7 0 -15 -8 -19 -45 -19 -28 0 -45 5 -45 12 0 24 24 33 36
14z m1637 -1 c21 -11 21 -11 2 -18 -18 -7 -34 4 -35 23 0 10 8 9 33 -5z
m-3727 -12 c1 -1 -14 -8 -32 -17 -34 -16 -34 -16 -34 7 0 21 3 23 33 17 17 -3
33 -6 33 -7z m1294 3 c0 -4 -18 -11 -40 -17 -35 -9 -40 -8 -40 7 0 13 9 17 40
16 22 0 40 -3 40 -6z m2186 0 c7 -12 -15 -31 -28 -23 -4 3 -8 12 -8 20 0 17
26 19 36 3z m-3909 -126 c-2 -21 -4 -6 -4 32 0 39 2 55 4 38 2 -18 2 -50 0
-70z m4583 83 c0 -21 -21 -31 -31 -15 -14 23 -24 0 -24 -59 0 -52 2 -57 23
-60 30 -5 23 -23 -13 -35 -44 -15 -58 11 -52 96 3 37 9 72 12 77 10 16 85 12
85 -4z m108 -87 c-2 -69 -6 -83 -18 -80 -8 2 -24 4 -35 5 -18 1 -20 9 -23 75
-3 79 10 113 27 70 6 -14 10 -17 10 -8 1 21 23 41 33 31 5 -5 8 -47 6 -93z
m-1654 26 c-3 -19 -10 -38 -15 -41 -10 -6 -12 89 -2 100 13 13 24 -24 17 -59z
m1271 -20 c0 -68 -3 -80 -17 -83 -14 -3 -18 3 -18 25 0 42 -14 57 -44 49 -21
-5 -26 -3 -26 13 0 10 7 21 15 25 8 3 15 14 15 25 0 12 8 21 23 24 50 10 52 7
52 -78z m102 16 c2 -35 7 -69 13 -76 15 -18 -7 -31 -50 -31 l-35 1 -3 74 c-2
41 -1 79 1 85 3 7 20 12 38 11 l34 0 2 -64z m353 1 c0 -26 3 -57 6 -69 5 -19
2 -23 -19 -23 -27 0 -37 27 -37 105 0 49 6 58 31 44 14 -7 19 -21 19 -57z
m-290 -23 c0 -62 -2 -70 -17 -67 -15 3 -17 13 -14 68 3 70 7 83 22 75 5 -4 9
-38 9 -76z m-2683 39 c-3 -7 -5 -2 -5 12 0 14 2 19 5 13 2 -7 2 -19 0 -25z
m1670 -90 c-2 -13 -4 -3 -4 22 0 25 2 35 4 23 2 -13 2 -33 0 -45z m-317 -20
c0 -5 -4 -8 -10 -8 -5 0 -10 10 -10 23 0 18 2 19 10 7 5 -8 10 -18 10 -22z
m-2280 -4 c0 -8 -4 -12 -10 -9 -5 3 -10 13 -10 21 0 8 5 12 10 9 6 -3 10 -13
10 -21z m1030 17 c0 -6 -4 -13 -10 -16 -5 -3 -10 1 -10 9 0 9 5 16 10 16 6 0
10 -4 10 -9z m2245 -1 c3 -5 1 -10 -4 -10 -6 0 -11 5 -11 10 0 6 2 10 4 10 3
0 8 -4 11 -10z m64 -16 c-15 -18 -22 -13 -13 10 3 9 10 13 16 10 5 -3 4 -12
-3 -20z m-4334 6 c3 -5 1 -10 -4 -10 -6 0 -11 5 -11 10 0 6 2 10 4 10 3 0 8
-4 11 -10z m-303 -105 c21 -119 34 -165 43 -156 7 7 11 -25 13 -94 3 -98 1
-105 -16 -105 -15 0 -21 9 -25 38 -17 113 -29 168 -38 177 -5 5 -10 -2 -10
-20 -2 -42 -17 68 -18 133 -1 57 -12 69 -56 58 -24 -6 -25 -10 -25 -79 0 -39
4 -79 10 -87 5 -9 5 -19 -1 -26 -6 -7 -8 -51 -6 -103 3 -50 1 -91 -3 -91 -12
0 -15 77 -12 249 l3 152 67 -3 67 -3 7 -40z m158 30 c0 -13 -4 -14 -20 -5 -11
6 -20 13 -20 15 0 3 9 5 20 5 11 0 20 -7 20 -15z m205 -112 c19 -109 35 -165
35 -120 0 9 5 17 10 17 15 0 13 -155 -3 -168 -7 -6 -17 -8 -23 -4 -10 7 -14
22 -33 130 -9 49 -21 67 -21 31 0 -13 -5 -31 -10 -39 -7 -10 -10 28 -10 116 0
147 -5 159 -60 147 -25 -4 -31 -3 -26 6 5 8 28 11 64 9 l56 -3 21 -122z m208
47 c20 -198 42 -259 50 -140 2 31 4 9 5 -51 2 -84 -1 -109 -13 -119 -12 -10
-16 -10 -19 1 -3 8 -14 37 -24 65 -13 36 -16 57 -10 69 13 23 3 71 -22 102
-15 19 -20 41 -20 83 0 61 5 72 30 68 11 -2 17 -23 23 -78z m117 70 c0 -13
-11 -13 -30 0 -12 8 -11 10 8 10 12 0 22 -4 22 -10z m446 -2 c5 -8 -8 -10 -52
-5 -33 3 -66 2 -74 -3 -16 -10 -33 -3 -25 11 9 13 142 11 151 -3z m268 -5 c3
-10 10 -59 15 -110 5 -50 14 -101 20 -112 6 -11 11 -34 11 -51 0 -17 7 -44 15
-61 18 -33 13 -49 -16 -49 -12 0 -19 7 -19 20 0 31 -31 101 -44 97 -16 -5 -36
-48 -36 -79 0 -15 -4 -30 -10 -33 -15 -10 -12 103 5 168 8 32 15 89 15 127 0
37 3 75 6 84 8 21 31 20 38 -1z m121 7 c-28 -12 -57 -12 -50 0 3 6 21 10 38 9
27 0 29 -2 12 -9z m253 -10 c5 -13 3 -13 -12 -1 -13 11 -22 12 -42 2 -19 -8
-30 -9 -39 -1 -7 6 -25 8 -39 4 -17 -4 -26 -2 -26 5 0 19 152 10 158 -9z m188
-75 l0 -90 -3 82 c-3 59 -8 83 -18 87 -19 7 -45 -3 -45 -18 0 -6 -4 -5 -9 4
-15 22 -2 31 37 28 l37 -3 1 -90z m116 60 c4 -16 10 -63 12 -102 3 -40 8 -78
12 -85 5 -7 11 -39 15 -71 5 -43 13 -63 28 -73 30 -22 26 -34 -13 -34 -32 0
-34 2 -40 41 -8 47 -22 79 -36 79 -15 0 -40 -56 -40 -90 0 -16 -5 -30 -11 -30
-7 0 -9 17 -5 53 4 28 11 88 16 132 5 44 12 111 16 148 5 55 9 68 22 65 8 -2
19 -16 24 -33z m137 21 c7 -8 11 -32 8 -53 l-4 -38 -1 41 c-2 46 -20 61 -52
44 -18 -10 -36 1 -23 14 12 11 60 6 72 -8z m125 -28 c2 -24 10 -88 16 -143 6
-55 16 -122 21 -149 6 -33 6 -53 -1 -60 -14 -14 -19 -6 -29 48 -16 89 -52 83
-66 -9 -3 -25 -10 -45 -16 -45 -14 0 -11 118 5 148 7 15 16 73 19 129 5 107
10 123 32 123 9 0 16 -15 19 -42z m336 32 c0 -6 -24 -8 -59 -5 -46 4 -63 2
-75 -11 -15 -14 -16 -14 -16 5 0 19 6 21 75 21 43 0 75 -4 75 -10z m506 -111
c5 -63 13 -107 17 -99 3 8 12 60 19 115 13 91 16 100 36 103 l22 3 -1 -198
c-1 -109 -4 -184 -6 -168 -2 17 -6 46 -10 65 -6 34 -6 33 -22 -30 -23 -92 -43
-89 -55 10 -4 41 -12 77 -15 80 -21 14 -41 217 -24 234 19 19 29 -11 39 -115z
m270 109 c5 -7 1 -9 -13 -6 -12 3 -27 2 -34 -3 -16 -9 -32 -2 -24 12 9 13 62
11 71 -3z m123 8 c-2 -2 -14 -9 -26 -15 -19 -10 -23 -9 -23 4 0 10 9 15 27 15
14 0 24 -2 22 -4z m112 -8 c1 -22 19 -180 29 -258 15 -121 16 -123 3 -127 -7
-3 -14 13 -18 41 -4 25 -13 53 -21 63 -13 17 -15 17 -28 0 -8 -10 -17 -35 -21
-55 -8 -42 -23 -65 -37 -56 -5 3 -3 15 5 27 8 13 17 64 21 122 3 55 11 135 18
178 9 64 15 77 30 77 10 0 18 -6 19 -12z m84 -110 c6 -89 16 -120 32 -104 3 3
10 48 14 101 8 93 20 138 32 118 4 -6 2 -48 -3 -94 -5 -46 -14 -129 -20 -183
-6 -55 -15 -105 -21 -113 -20 -23 -39 5 -39 56 0 25 -7 91 -15 146 -16 110
-19 178 -8 189 13 13 21 -19 28 -116z m279 116 c14 -5 16 -31 14 -198 -1 -105
-4 -150 -5 -101 -3 69 -7 93 -20 102 -15 12 -15 14 0 31 23 25 24 134 1 153
-12 10 -20 10 -34 1 -13 -8 -26 -8 -48 0 -46 18 -62 -1 -62 -74 0 -33 5 -68
11 -79 7 -15 7 -24 -2 -35 -8 -9 -10 -43 -7 -104 2 -49 1 -90 -4 -90 -4 0 -8
90 -8 200 l0 200 74 0 c41 0 81 -3 90 -6z m172 -72 c16 -110 29 -108 42 9 6
56 10 64 30 67 21 3 22 1 22 -92 0 -52 -4 -105 -9 -118 -5 -13 -17 -60 -27
-106 -10 -46 -21 -85 -25 -87 -19 -13 -33 34 -37 131 -5 107 -14 129 -31 72
-7 -26 -9 -6 -10 85 -1 108 1 118 17 115 13 -2 20 -20 28 -76z m273 51 c0 -28
0 -28 -10 -5 -7 18 -14 22 -29 17 -11 -4 -20 -2 -20 4 0 6 14 11 30 11 26 0
30 -3 29 -27z m235 -5 c3 -18 8 -62 11 -98 3 -36 11 -108 19 -160 8 -57 10
-99 4 -105 -13 -14 -28 13 -28 51 0 16 -6 39 -14 50 -20 26 -34 11 -50 -52 -7
-27 -17 -47 -22 -44 -11 6 -6 118 7 142 5 9 9 31 9 49 0 18 5 70 12 116 10 68
15 83 30 83 12 0 19 -10 22 -32z m190 16 c3 -9 5 -28 5 -42 -1 -26 -1 -26 -8
3 -4 21 -13 31 -29 33 -12 2 -20 8 -17 13 10 15 42 10 49 -7z m114 4 c8 -8 11
-45 10 -112 l-2 -101 -3 94 c-4 99 -14 126 -45 118 -10 -3 -18 -1 -18 4 0 13
44 11 58 -3z m362 10 c1 -2 8 -43 16 -93 8 -49 18 -106 21 -125 3 -19 19 -47
34 -63 35 -35 37 -69 6 -103 -30 -32 -57 -23 -58 20 0 17 -6 49 -13 71 l-13
40 -6 -35 c-4 -19 -8 -51 -9 -70 -2 -19 -6 50 -10 154 -4 103 -5 192 -2 197 4
8 33 13 34 7z m168 -40 c-1 -37 -2 -39 -5 -10 -3 24 -9 32 -24 32 -10 0 -19 5
-19 10 0 6 11 10 25 10 23 0 25 -3 23 -42z m-5511 0 c-3 -7 -5 -2 -5 12 0 14
2 19 5 13 2 -7 2 -19 0 -25z m773 17 c0 -8 -6 -34 -14 -57 -29 -86 -29 -112
-2 -207 31 -106 30 -101 11 -101 -9 0 -15 9 -15 21 0 11 -7 34 -15 50 -8 16
-22 42 -30 58 -24 47 -19 107 15 168 17 29 30 60 30 68 0 8 5 15 10 15 6 0 10
-7 10 -15z m467 -62 c-2 -16 -4 -3 -4 27 0 30 2 43 4 28 2 -16 2 -40 0 -55z
m1528 60 c-8 -19 -17 -49 -34 -118 -10 -38 -6 -98 8 -120 9 -15 30 -97 31
-119 0 -30 -28 0 -35 37 -14 69 -16 73 -30 53 -12 -15 -14 -9 -20 47 -4 36 -4
88 0 116 6 42 10 50 21 40 11 -9 15 -2 25 35 7 29 17 46 26 46 11 0 13 -5 8
-17z m262 -5 c-3 -8 -6 -5 -6 6 -1 11 2 17 5 13 3 -3 4 -12 1 -19z m1463 -39
c0 -37 -4 -58 -10 -54 -5 3 -10 31 -10 61 0 30 5 54 10 54 6 0 10 -27 10 -61z
m565 -116 c0 -159 1 -178 19 -200 l19 -25 -24 4 -24 3 -3 198 c-1 108 1 197 5
197 5 0 8 -79 8 -177z m105 -8 c0 -164 2 -185 17 -194 23 -12 11 -25 -16 -16
-20 6 -21 13 -21 201 0 123 4 194 10 194 6 0 10 -68 10 -185z m278 123 c2 -34
-1 -47 -13 -51 -16 -7 -18 0 -17 63 1 44 0 42 15 38 6 -3 13 -25 15 -50z
m-5081 -80 c-2 -24 -4 -5 -4 42 0 47 2 66 4 43 2 -24 2 -62 0 -85z m1140 55
c-2 -16 -4 -5 -4 22 0 28 2 40 4 28 2 -13 2 -35 0 -50z m1910 35 c-3 -8 -6 -5
-6 6 -1 11 2 17 5 13 3 -3 4 -12 1 -19z m-2580 -155 c-2 -32 -3 -6 -3 57 0 63
1 89 3 58 2 -32 2 -84 0 -115z m3730 110 c-3 -10 -5 -2 -5 17 0 19 2 27 5 18
2 -10 2 -26 0 -35z m-2080 -5 c-3 -7 -5 -2 -5 12 0 14 2 19 5 13 2 -7 2 -19 0
-25z m-2417 -33 c14 -16 42 -106 36 -112 -3 -3 -8 3 -12 13 -3 10 -12 33 -20
51 -8 17 -16 44 -18 60 -2 15 -1 21 1 13 3 -8 9 -20 13 -25z m-63 3 c-3 -7 -5
-2 -5 12 0 14 2 19 5 13 2 -7 2 -19 0 -25z m4430 -78 c16 -36 19 -57 14 -105
l-7 -60 -5 70 c-4 44 -14 84 -28 108 -11 21 -21 50 -21 65 l1 27 13 -30 c7
-16 22 -50 33 -75z m1081 -90 l-1 -75 -7 70 c-4 40 -16 88 -28 112 -12 23 -22
53 -21 65 0 16 9 5 29 -37 24 -51 29 -72 28 -135z m-3341 103 c-2 -16 -4 -3
-4 27 0 30 2 43 4 28 2 -16 2 -40 0 -55z m860 45 c-3 -7 -5 -2 -5 12 0 14 2
19 5 13 2 -7 2 -19 0 -25z m-1790 0 c-3 -8 -6 -5 -6 6 -1 11 2 17 5 13 3 -3 4
-12 1 -19z m261 -50 c0 -40 -3 -57 -5 -39 -3 19 -12 40 -20 46 -15 11 -14 15
3 38 10 15 20 27 22 27 1 0 1 -33 0 -72z m2994 -7 c-6 -16 -8 -56 -5 -89 4
-39 2 -62 -6 -66 -8 -5 -11 24 -10 106 1 62 4 117 7 123 12 19 24 -45 14 -74z
m-3431 22 c11 -25 18 -51 15 -57 -2 -6 -7 -2 -11 9 -3 11 -13 32 -21 47 -8 14
-14 31 -14 37 0 23 11 10 31 -36z m1429 5 c0 -9 -4 -20 -10 -23 -6 -4 -10 9
-10 32 0 28 3 34 10 23 5 -8 10 -23 10 -32z m861 -11 c-6 -6 -12 -34 -12 -61
l-2 -51 -8 65 c-4 36 -5 73 -2 83 5 17 6 17 20 -3 11 -16 12 -25 4 -33z m59
16 c0 -36 0 -36 -20 -18 -19 17 -19 19 -4 37 23 24 24 24 24 -19z m-3233 -20
c-16 -16 -17 -15 -17 17 0 32 1 33 17 17 16 -16 16 -18 0 -34z m768 24 c0 -26
-20 -25 -23 2 -3 16 1 22 10 19 7 -3 13 -12 13 -21z m2551 -16 c-13 -20 -26
-11 -26 16 0 25 1 26 16 11 9 -9 13 -21 10 -27z m454 9 c0 -10 -5 -22 -10 -25
-13 -8 -24 20 -16 41 8 20 26 9 26 -16z m610 -2 c0 -30 -1 -31 -17 -16 -13 14
-14 20 -3 32 18 22 20 20 20 -16z m-4088 -65 c7 -9 7 -17 -2 -27 -6 -8 -15
-36 -18 -61 -4 -25 -11 -44 -17 -43 -5 2 -9 10 -7 18 2 8 5 47 8 85 3 39 8 81
12 95 5 21 7 19 10 -15 2 -22 8 -45 14 -52z m963 57 c-5 -8 -11 -8 -17 -2 -6
6 -7 16 -3 22 5 8 11 8 17 2 6 -6 7 -16 3 -22z m140 0 c-5 -8 -11 -8 -17 -2
-6 6 -7 16 -3 22 5 8 11 8 17 2 6 -6 7 -16 3 -22z m269 -22 c-6 -19 -7 -19
-16 -4 -5 9 -6 26 -2 38 6 19 7 19 16 4 5 -9 6 -26 2 -38z m1183 -5 c-3 -10
-5 -2 -5 17 0 19 2 27 5 18 2 -10 2 -26 0 -35z m-3711 7 c12 0 25 -105 17
-127 -11 -28 -23 1 -23 53 0 34 -4 53 -10 49 -5 -3 -10 -37 -10 -76 0 -40 -4
-69 -10 -69 -6 0 -9 28 -8 70 1 38 -2 73 -6 77 -4 4 -16 -3 -26 -17 -17 -22
-19 -23 -25 -7 -15 36 18 61 70 51 11 -2 25 -4 31 -4z m198 -2 l39 2 -6 -75
c-3 -41 -8 -79 -12 -85 -3 -5 -40 -10 -81 -10 l-74 0 0 85 c0 70 3 85 15 85 9
0 18 -7 22 -17 5 -14 8 -13 15 6 6 17 13 21 26 15 9 -4 35 -7 56 -6z m94 -42
c2 -21 10 -40 18 -43 9 -3 14 -19 14 -44 0 -41 -20 -56 -21 -16 l0 22 -9 -21
c-12 -31 -26 -37 -44 -19 -13 14 -13 20 0 56 7 23 14 57 14 76 0 47 24 38 28
-11z m32 24 c0 -11 -4 -20 -10 -20 -5 0 -10 9 -10 20 0 11 5 20 10 20 6 0 10
-9 10 -20z m2457 -12 c-3 -8 -6 -5 -6 6 -1 11 2 17 5 13 3 -3 4 -12 1 -19z
m380 -25 c-3 -10 -5 -4 -5 12 0 17 2 24 5 18 2 -7 2 -21 0 -30z m2080 -40 c-3
-10 -5 -4 -5 12 0 17 2 24 5 18 2 -7 2 -21 0 -30z m429 -69 c-3 -8 -10 -14
-16 -14 -7 0 -8 6 0 19 5 11 11 37 12 58 l1 38 4 -44 c3 -24 2 -50 -1 -57z
m-4730 -12 c-11 -10 -12 3 -7 53 l6 50 3 -49 c2 -26 1 -51 -2 -54z m981 76
c-3 -8 -6 -5 -6 6 -1 11 2 17 5 13 3 -3 4 -12 1 -19z m930 -15 c-3 -10 -5 -4
-5 12 0 17 2 24 5 18 2 -7 2 -21 0 -30z m1240 0 c-3 -10 -5 -4 -5 12 0 17 2
24 5 18 2 -7 2 -21 0 -30z m1460 -25 c-2 -13 -4 -3 -4 22 0 25 2 35 4 23 2
-13 2 -33 0 -45z m-3370 0 c-2 -13 -4 -5 -4 17 -1 22 1 32 4 23 2 -10 2 -28 0
-40z m-1600 20 c-3 -8 -6 -5 -6 6 -1 11 2 17 5 13 3 -3 4 -12 1 -19z m930 0
c-3 -8 -6 -5 -6 6 -1 11 2 17 5 13 3 -3 4 -12 1 -19z m2080 -30 c-2 -13 -4 -5
-4 17 -1 22 1 32 4 23 2 -10 2 -28 0 -40z m-3657 0 c0 -22 -19 -33 -33 -19 -7
7 -7 18 2 38 10 22 14 24 22 12 5 -7 9 -22 9 -31z m3233 5 c4 -19 2 -33 -3
-33 -6 0 -10 17 -10 37 0 43 5 41 13 -4z m870 -22 c9 -10 7 -13 -8 -10 -10 2
-18 7 -17 12 1 4 3 19 3 35 2 27 2 27 6 2 3 -14 10 -31 16 -39z m-3457 -8
c-11 -11 -17 4 -9 23 7 18 8 18 11 1 2 -10 1 -21 -2 -24z m284 6 c0 -6 -4 -7
-10 -4 -5 3 -10 11 -10 16 0 6 5 7 10 4 6 -3 10 -11 10 -16z m660 0 c0 -11 -4
-17 -10 -14 -5 3 -10 13 -10 21 0 8 5 14 10 14 6 0 10 -9 10 -21z m820 0 c0
-5 -7 -9 -15 -9 -15 0 -20 12 -9 23 8 8 24 -1 24 -14z m1830 -5 c0 -8 -4 -14
-10 -14 -5 0 -10 9 -10 21 0 11 5 17 10 14 6 -3 10 -13 10 -21z m-2540 6 c0
-5 -4 -10 -9 -10 -6 0 -13 5 -16 10 -3 6 1 10 9 10 9 0 16 -4 16 -10z m1440 0
c0 -5 -4 -10 -10 -10 -5 0 -10 5 -10 10 0 6 5 10 10 10 6 0 10 -4 10 -10z
m-2688 -75 c0 -5 -5 -11 -11 -13 -6 -2 -11 4 -11 13 0 9 5 15 11 13 6 -2 11
-8 11 -13z m178 6 c25 -7 25 -7 -6 -14 -18 -3 -49 -3 -70 1 l-39 6 30 7 c39 9
54 9 85 0z m667 -3 c7 -12 12 -50 29 -243 4 -46 13 -87 21 -97 20 -22 13 -53
-12 -53 -16 0 -21 8 -23 40 -1 22 -6 47 -9 55 -4 8 -7 39 -7 69 -1 33 -6 56
-13 58 -17 6 -33 -57 -21 -80 6 -12 6 -28 -1 -45 -5 -15 -15 -46 -21 -69 -9
-37 -14 -43 -38 -43 -26 0 -26 0 -6 14 17 13 23 33 33 123 6 59 16 130 21 156
6 27 10 63 10 81 0 44 19 61 37 34z m413 -117 c0 -150 -10 -272 -22 -265 -5 3
-16 -2 -24 -12 -14 -18 -14 -18 -29 0 -8 11 -15 40 -15 67 0 31 -6 53 -17 64
-24 24 -33 265 -10 265 22 0 27 -22 27 -113 0 -82 9 -115 27 -104 6 4 13 50
17 104 6 93 18 129 37 117 5 -3 9 -58 9 -123z m510 -6 c7 -60 15 -134 17 -162
5 -59 23 -73 23 -18 0 19 4 35 10 35 6 0 9 -26 7 -62 -2 -56 -4 -63 -24 -66
-18 -3 -24 4 -33 40 -6 24 -15 54 -21 67 -7 16 -7 27 1 35 12 12 13 49 3 60
-5 4 -13 22 -19 39 l-11 32 -8 -50 c-5 -28 -4 -60 2 -75 7 -19 5 -32 -9 -55
l-18 -30 0 49 c0 85 23 281 34 288 22 15 34 -19 46 -127z m97 69 c7 -32 15
-80 19 -107 5 -35 10 -45 19 -37 9 8 14 -13 19 -87 5 -79 4 -99 -8 -112 -9 -8
-19 -12 -22 -8 -7 6 -43 194 -44 225 0 6 -4 12 -10 12 -5 0 -11 -17 -11 -37
-1 -21 -6 13 -11 75 -7 85 -6 117 3 128 20 24 32 11 46 -52z m1067 24 c11 -55
6 -85 -21 -134 -24 -43 -28 -60 -28 -136 0 -90 -4 -104 -29 -95 -11 4 -16 34
-20 124 -3 65 -9 153 -12 196 -7 96 10 104 22 10 12 -89 29 -92 38 -7 4 37 9
71 12 75 10 16 32 -3 38 -33z m192 31 c4 -6 12 -50 19 -98 7 -56 16 -85 23
-83 7 1 12 -6 13 -15 0 -10 2 -27 4 -38 11 -58 15 -152 6 -164 -17 -25 -41 6
-41 53 -1 22 -7 59 -15 81 -8 22 -15 54 -15 70 0 17 -6 39 -14 50 -17 26 -27
115 -15 137 11 21 25 23 35 7z m614 1 c0 -6 -7 -13 -15 -16 -20 -8 -48 3 -40
16 8 13 55 13 55 0z m75 -12 c-19 -11 -30 -5 -21 11 4 6 14 7 22 4 15 -5 14
-7 -1 -15z m109 12 c14 -5 26 -15 25 -22 0 -10 -2 -10 -6 0 -6 15 -49 16 -58
2 -5 -8 -11 -7 -21 1 -30 25 11 38 60 19z m492 -20 c0 -14 4 -33 8 -42 4 -9 3
-26 -4 -37 -13 -25 2 -61 25 -61 12 0 15 16 15 75 0 60 3 77 16 82 23 9 34
-14 34 -73 0 -69 -15 -87 -76 -88 l-49 -1 -3 73 -3 72 -29 0 c-35 0 -40 17 -7
23 50 10 72 3 73 -23z m299 21 c29 -7 29 -7 -13 -14 -45 -8 -67 -2 -57 14 7
10 25 10 70 0z m676 -1 c10 -6 19 -18 19 -28 -1 -16 -1 -16 -11 1 -12 20 -40
22 -57 5 -9 -9 -12 -8 -12 4 0 26 30 34 61 18z m-5503 -11 c-14 -8 -18 -24
-18 -75 0 -36 5 -75 11 -86 9 -16 7 -24 -5 -36 -15 -15 -16 -7 -16 96 0 110 0
112 23 112 20 -1 20 -2 5 -11z m490 -42 c4 -59 -15 -56 -24 5 -7 38 -8 40 -40
36 -19 -2 -34 0 -34 5 0 4 21 7 48 5 l47 -3 3 -48z m72 30 c0 -12 -7 -49 -15
-80 -8 -32 -15 -68 -15 -81 0 -12 -6 -31 -14 -42 -14 -18 -15 -18 -21 9 -10
37 1 90 25 120 12 14 20 40 20 61 0 20 5 36 10 36 6 0 10 -10 10 -23z m140 14
l-25 -7 -3 -187 c-2 -187 -2 -188 20 -197 23 -10 23 -10 -2 -7 l-25 2 -3 203
-2 202 32 -1 c30 -1 31 -2 8 -8z m133 2 c-7 -2 -19 -2 -25 0 -7 3 -2 5 12 5
14 0 19 -2 13 -5z m240 -78 c9 -86 22 -129 36 -121 8 6 21 -86 21 -155 0 -74
-39 -60 -51 18 -5 27 -16 77 -25 113 -9 36 -19 103 -21 148 -4 77 -3 83 14 80
15 -3 19 -17 26 -83z m512 76 c-29 -6 -30 -9 -31 -61 -1 -30 2 -70 7 -89 5
-21 5 -39 -1 -46 -6 -7 -8 -38 -6 -69 2 -31 0 -69 -4 -84 -5 -16 -9 46 -9 159
-1 102 2 189 6 192 3 4 20 6 37 6 l31 -1 -30 -7z m148 2 c-7 -2 -21 -2 -30 0
-10 3 -4 5 12 5 17 0 24 -2 18 -5z m1074 -83 c19 -128 27 -161 38 -159 12 3
22 -39 24 -97 1 -29 -5 -46 -18 -58 -19 -17 -20 -17 -30 21 -6 21 -16 64 -22
96 -6 32 -14 56 -17 52 -3 -3 -9 -40 -13 -83 -4 -55 -6 -21 -7 121 -2 184 -1
198 16 195 13 -3 20 -21 29 -88z m298 -17 c-17 -265 -19 -288 -36 -291 -12 -2
-18 8 -23 44 -11 87 -7 137 19 192 16 34 25 72 25 101 0 43 5 61 17 61 3 0 1
-48 -2 -107z m282 101 c-3 -3 -12 -4 -19 -1 -8 3 -5 6 6 6 11 1 17 -2 13 -5z
m236 -1 c-7 -2 -19 -2 -25 0 -7 3 -2 5 12 5 14 0 19 -2 13 -5z m100 0 c-7 -2
-19 -2 -25 0 -7 3 -2 5 12 5 14 0 19 -2 13 -5z m679 -48 c0 -111 2 -105 -41
-105 -22 0 -41 5 -44 13 -3 9 -9 9 -26 -1 -17 -10 -22 -10 -25 0 -8 25 -13
120 -6 108 5 -7 12 -3 23 13 13 20 23 24 67 23 l52 -1 0 -50z m318 45 c-19
-13 -30 -13 -30 0 0 6 10 10 23 10 18 0 19 -2 7 -10z m297 4 c-3 -3 -12 -4
-19 -1 -8 3 -5 6 6 6 11 1 17 -2 13 -5z m319 -11 c7 -10 13 -27 13 -38 0 -14
-4 -11 -14 13 -15 35 -30 39 -79 18 -27 -11 -35 -23 -51 -71 -10 -32 -18 -75
-18 -95 0 -46 31 -146 49 -161 18 -15 18 -49 -1 -49 -14 0 -36 39 -50 89 -8
27 -22 17 -27 -19 -8 -54 -16 170 -9 240 5 41 9 60 10 43 2 -45 18 -41 37 7
16 40 16 40 71 40 41 0 59 -5 69 -17z m318 -20 c-3 -21 -13 -53 -21 -71 -17
-36 -20 -119 -6 -148 15 -30 37 -133 30 -141 -11 -10 -19 3 -32 54 -9 32 -18
48 -28 47 -21 -2 -31 77 -22 163 6 57 8 62 20 46 12 -17 14 -16 20 12 10 46
23 75 35 75 7 0 9 -13 4 -37z m86 30 c-8 -3 -21 -10 -27 -16 -9 -7 -13 -5 -13
7 0 11 8 16 28 15 15 0 21 -3 12 -6z m-3353 -50 c-3 -10 -5 -2 -5 17 0 19 2
27 5 18 2 -10 2 -26 0 -35z m116 -145 c-2 -155 -5 -179 -20 -164 -8 8 -14 327
-6 339 3 5 10 4 17 -3 7 -7 10 -63 9 -172z m920 169 c3 -8 1 -20 -4 -28 -6
-10 -9 -7 -9 14 0 29 5 35 13 14z m684 -19 c-3 -7 -5 -2 -5 12 0 14 2 19 5 13
2 -7 2 -19 0 -25z m46 7 c-7 -21 -13 -19 -13 6 0 11 4 18 10 14 5 -3 7 -12 3
-20z m716 -165 c0 -105 -3 -188 -8 -186 -4 3 -6 42 -3 86 4 73 3 83 -18 105
l-22 23 21 11 c18 10 21 21 21 81 0 39 2 70 4 70 3 0 5 -86 5 -190z m-3202 88
c-2 -18 -4 -4 -4 32 0 36 2 50 4 33 2 -18 2 -48 0 -65z m1200 40 c-2 -13 -4
-5 -4 17 -1 22 1 32 4 23 2 -10 2 -28 0 -40z m673 31 c0 -5 -4 -9 -10 -9 -5 0
-10 7 -10 16 0 8 5 12 10 9 6 -3 10 -10 10 -16z m207 -1 c-3 -8 -6 -5 -6 6 -1
11 2 17 5 13 3 -3 4 -12 1 -19z m1290 -15 c-3 -10 -5 -4 -5 12 0 17 2 24 5 18
2 -7 2 -21 0 -30z m-70 5 c-3 -8 -6 -5 -6 6 -1 11 2 17 5 13 3 -3 4 -12 1 -19z
m483 12 c0 -5 -2 -10 -4 -10 -3 0 -8 5 -11 10 -3 6 -1 10 4 10 6 0 11 -4 11
-10z m-1629 -83 c-8 -8 -11 2 -10 39 l1 49 10 -38 c7 -28 7 -42 -1 -50z m1576
51 c-3 -7 -5 -2 -5 12 0 14 2 19 5 13 2 -7 2 -19 0 -25z m310 -20 c-3 -7 -5
-2 -5 12 0 14 2 19 5 13 2 -7 2 -19 0 -25z m-740 0 c-3 -8 -6 -5 -6 6 -1 11 2
17 5 13 3 -3 4 -12 1 -19z m-2940 -45 c-3 -10 -5 -2 -5 17 0 19 2 27 5 18 2
-10 2 -26 0 -35z m2775 -38 c2 -13 -3 -20 -12 -20 -15 0 -16 4 -11 73 l3 37 9
-35 c4 -19 9 -44 11 -55z m544 -63 c1 -124 1 -129 -6 -53 -6 64 -12 88 -26 98
-17 12 -17 14 4 36 12 13 22 31 22 40 0 9 1 17 3 17 1 0 3 -62 3 -138z m-379
96 c-3 -7 -5 -2 -5 12 0 14 2 19 5 13 2 -7 2 -19 0 -25z m-1230 -86 c-2 -11
-11 0 -25 31 -30 67 -27 93 4 34 14 -27 23 -56 21 -65z m-870 56 c-3 -7 -5 -2
-5 12 0 14 2 19 5 13 2 -7 2 -19 0 -25z m673 -4 c0 -24 -14 -32 -25 -14 -9 14
4 52 16 45 5 -4 9 -17 9 -31z m530 2 c0 -32 -10 -39 -31 -20 -14 12 -22 13
-38 4 -19 -10 -21 -8 -21 17 0 21 3 24 12 15 17 -17 47 -15 54 3 8 21 24 8 24
-19z m1648 13 c10 -13 9 -19 -3 -29 -13 -11 -15 -8 -15 20 0 19 1 31 3 29 1
-2 8 -11 15 -20z m-5612 -25 c-5 -13 -10 -14 -18 -6 -6 6 -8 18 -4 28 5 13 10
14 18 6 6 -6 8 -18 4 -28z m164 32 c0 -2 3 -11 6 -19 7 -19 -24 -31 -42 -16
-11 9 -11 15 -3 25 10 13 39 20 39 10z m1360 -28 c0 -30 -1 -31 -17 -16 -13
14 -14 20 -3 32 18 22 20 20 20 -16z m1040 2 c0 -4 -7 -10 -15 -14 -11 -4 -15
2 -15 21 0 21 2 24 15 13 8 -7 15 -16 15 -20z m48 -5 c-2 -10 -7 -12 -17 -5
-13 7 -13 11 -1 25 15 18 24 8 18 -20z m1991 21 c9 -10 8 -16 -4 -26 -13 -11
-15 -8 -15 14 0 30 3 32 19 12z m-4504 -5 c7 -12 -12 -24 -25 -16 -11 7 -4 25
10 25 5 0 11 -4 15 -9z m115 -11 c0 -13 -5 -18 -15 -14 -16 7 -19 17 -8 27 12
13 23 7 23 -13z m96 9 c8 -14 -18 -31 -30 -19 -9 9 0 30 14 30 5 0 12 -5 16
-11z m406 -4 c0 -5 -5 -11 -11 -13 -6 -2 -11 4 -11 13 0 9 5 15 11 13 6 -2 11
-8 11 -13z m2652 6 c3 -5 -1 -14 -9 -21 -13 -10 -15 -9 -15 9 0 21 14 28 24
12z m144 -9 c2 -7 -3 -12 -12 -12 -9 0 -16 7 -16 16 0 17 22 14 28 -4z m199
-4 c-3 -8 -6 -5 -6 6 -1 11 2 17 5 13 3 -3 4 -12 1 -19z m107 13 c3 -5 -1 -14
-8 -20 -16 -13 -32 2 -21 19 8 12 22 13 29 1z m1359 2 c9 -9 -13 -34 -24 -27
-14 8 -11 34 4 34 8 0 17 -3 20 -7z m185 -11 c10 -7 8 -13 -7 -26 -21 -19 -37
-7 -27 19 6 17 15 18 34 7z m-3801 -134 c-2 -24 -4 -7 -4 37 0 44 2 63 4 43 2
-21 2 -57 0 -80z m2898 23 c0 -59 -4 -86 -12 -88 -8 -3 -13 5 -13 21 0 13 -4
28 -10 31 -5 3 -10 15 -10 26 0 10 5 19 10 19 14 0 13 33 -1 47 -15 15 -2 35
19 31 14 -3 17 -17 17 -87z m-2815 69 c0 -5 -2 -10 -4 -10 -3 0 -8 5 -11 10
-3 6 -1 10 4 10 6 0 11 -4 11 -10z m460 -7 c0 -10 -4 -25 -10 -33 -8 -12 -10
-12 -16 3 -7 20 1 47 16 47 5 0 10 -8 10 -17z m-2225 -140 c3 -12 13 -24 23
-27 10 -3 6 -4 -8 -3 -25 2 -25 3 -26 92 0 54 1 64 3 25 2 -36 5 -75 8 -87z
m2167 106 c3 -45 -2 -92 -8 -86 -10 10 -24 109 -18 119 9 15 25 -5 26 -33z
m2455 -31 c-2 -13 -4 -5 -4 17 -1 22 1 32 4 23 2 -10 2 -28 0 -40z m-1190 -55
c-3 -10 -5 -2 -5 17 0 19 2 27 5 18 2 -10 2 -26 0 -35z m-1612 -23 c-5 -15
-10 -19 -17 -12 -5 5 -7 20 -3 32 5 15 10 19 17 12 5 -5 7 -20 3 -32z m2012 8
c-3 -8 -6 -5 -6 6 -1 11 2 17 5 13 3 -3 4 -12 1 -19z m-1622 -8 c3 -5 -3 -10
-14 -10 -12 0 -21 5 -21 10 0 6 6 10 14 10 8 0 18 -4 21 -10z m1795 -10 c0
-17 -7 -20 -45 -20 -25 0 -45 4 -45 9 0 6 16 7 35 4 26 -4 36 -2 41 11 8 22
14 20 14 -4z m1755 -13 c12 -3 8 -5 -10 -4 -21 1 -31 8 -33 22 -3 18 -3 19 10
3 7 -9 22 -19 33 -21z m-965 8 c0 -11 -11 -15 -40 -15 -22 0 -40 4 -40 8 0 5
13 7 29 4 16 -2 32 1 35 7 10 15 16 14 16 -4z m-4331 -11 c2 -2 -7 -4 -22 -4
-14 0 -29 5 -32 10 -6 10 42 4 54 -6z m376 6 c3 -5 1 -10 -4 -10 -6 0 -11 5
-11 10 0 6 2 10 4 10 3 0 8 -4 11 -10z m2830 -11 c9 -13 5 -16 -25 -21 -17 -2
-26 2 -28 15 -3 12 3 17 22 17 14 0 28 -5 31 -11z m-1950 -81 c-4 -30 -2 -65
4 -80 12 -33 -7 -55 -36 -40 -15 9 -17 22 -14 84 3 84 5 88 32 88 19 0 20 -4
14 -52z m248 -44 c14 -170 27 -175 43 -18 6 57 14 107 17 110 3 4 14 4 23 0
15 -6 16 -20 10 -132 -4 -68 -12 -139 -17 -157 -5 -17 -9 -46 -9 -64 0 -21 -6
-36 -17 -41 -30 -15 -43 -3 -43 41 0 23 -11 74 -25 112 -18 52 -25 91 -25 151
0 44 3 84 7 88 18 18 29 -8 36 -90z m699 74 c-7 -7 -12 -8 -12 -2 0 14 12 26
19 19 2 -3 -1 -11 -7 -17z m236 10 c-3 -7 -11 -13 -18 -13 -7 0 -15 6 -17 13
-3 7 4 12 17 12 13 0 20 -5 18 -12z m152 -4 c0 -9 -5 -14 -12 -12 -18 6 -21
28 -4 28 9 0 16 -7 16 -16z m317 -69 c7 -44 16 -106 19 -137 4 -32 11 -58 15
-58 9 0 12 14 10 42 -1 9 3 19 9 23 11 7 12 6 12 -94 0 -54 -5 -78 -16 -89
-23 -23 -33 -7 -46 73 -23 155 -30 159 -40 23 -6 -77 -7 -58 -8 105 -2 184 -1
198 16 195 13 -2 20 -21 29 -83z m331 74 c-2 -6 -8 -10 -13 -10 -5 0 -11 4
-13 10 -2 6 4 11 13 11 9 0 15 -5 13 -11z m-2274 -14 c8 22 25 18 36 -7 9 -23
9 -23 15 -2 6 18 14 20 78 20 l72 -1 3 -71 c3 -80 -9 -102 -50 -88 -23 8 -33
9 -78 12 -18 1 -29 11 -39 33 -16 37 -52 37 -61 -1 -6 -23 -7 -22 -12 10 -3
19 -3 53 0 74 4 34 7 37 17 22 11 -14 13 -15 19 -1z m424 -72 c-3 -74 -4 -76
-30 -80 -36 -5 -43 11 -13 31 35 23 32 41 -7 41 -22 0 -34 5 -36 17 -4 21 34
34 53 18 13 -10 15 -7 15 19 0 17 5 31 10 31 7 0 10 -28 8 -77z m664 26 c4
-58 -2 -89 -17 -89 -17 0 -18 15 -9 84 7 48 23 51 26 5z m915 -92 c-2 -23 -3
-1 -3 48 0 50 1 68 3 42 2 -26 2 -67 0 -90z m-1240 91 c-3 -7 -5 -2 -5 12 0
14 2 19 5 13 2 -7 2 -19 0 -25z m-427 -78 c0 -5 -5 -10 -11 -10 -5 0 -7 5 -4
10 3 6 8 10 11 10 2 0 4 -4 4 -10z m1429 -35 c23 -50 30 -98 8 -55 -8 14 -16
34 -19 45 -3 11 -9 28 -13 38 -15 37 4 15 24 -28z m-488 12 c25 5 29 2 29 -17
0 -17 -4 -20 -17 -14 -10 4 -28 7 -40 7 -17 -1 -23 5 -23 20 0 16 3 18 11 10
7 -7 25 -9 40 -6z m119 -7 c0 -4 -6 -13 -14 -19 -17 -14 -31 2 -22 24 5 15 36
10 36 -5z m120 10 c18 9 20 8 20 -16 0 -21 -3 -25 -17 -19 -10 4 -30 7 -45 6
-18 -1 -28 4 -28 12 0 21 11 27 31 16 13 -6 25 -6 39 1z m830 -20 c0 -26 -15
-33 -31 -14 -8 10 -21 13 -36 9 -17 -4 -23 -1 -23 11 0 12 6 15 23 11 12 -4
29 -2 37 3 18 11 30 4 30 -20z m-1290 -1 c0 -20 -15 -25 -25 -9 -3 6 -17 7
-31 4 -17 -4 -24 -2 -24 9 0 10 11 14 40 14 32 0 40 -3 40 -18z m1142 6 c0 -5
-5 -11 -11 -13 -6 -2 -11 4 -11 13 0 9 5 15 11 13 6 -2 11 -8 11 -13z m-1812
-99 c0 -80 -13 -116 -40 -116 -18 0 -20 6 -20 64 0 59 2 64 20 59 21 -6 23 -3
14 21 -3 8 -12 12 -20 9 -8 -3 -14 -1 -14 4 0 16 12 23 37 23 22 0 23 -4 23
-64z m487 42 c-3 -8 -6 -5 -6 6 -1 11 2 17 5 13 3 -3 4 -12 1 -19z m217 5 c7
-22 -2 -122 -12 -137 -7 -11 -20 131 -14 147 6 13 21 7 26 -10z m-664 -60 c0
-20 -3 -24 -11 -16 -7 7 -9 19 -6 27 10 24 17 19 17 -11z m337 -60 c-3 -10 -5
-2 -5 17 0 19 2 27 5 18 2 -10 2 -26 0 -35z m113 -33 c0 -5 -15 -9 -32 -9
l-33 1 30 8 c17 4 31 8 33 9 1 0 2 -3 2 -9z m409 -6 c2 -2 -5 -4 -17 -4 -12 0
-25 0 -29 -1 -4 0 -9 5 -11 11 -3 7 5 9 25 4 15 -4 30 -8 32 -10z m171 6 c0
-5 -21 -9 -47 -8 l-48 1 45 7 c25 4 46 8 48 8 1 1 2 -2 2 -8z m660 0 c0 -5
-15 -9 -32 -9 l-33 1 30 8 c17 4 31 8 33 9 1 0 2 -3 2 -9z m150 2 c0 -15 -11
-21 -27 -15 -12 5 -12 7 -1 14 17 11 28 11 28 1z m-1533 -8 c-3 -3 -12 -4 -19
-1 -8 3 -5 6 6 6 11 1 17 -2 13 -5z m426 -1 c-7 -2 -21 -2 -30 0 -10 3 -4 5
12 5 17 0 24 -2 18 -5z m614 1 c-3 -3 -12 -4 -19 -1 -8 3 -5 6 6 6 11 1 17 -2
13 -5z m436 -1 c-7 -2 -19 -2 -25 0 -7 3 -2 5 12 5 14 0 19 -2 13 -5z"/>
<path d="M1534 11656 c-8 -20 11 -66 27 -66 7 0 8 11 4 33 -9 41 -22 56 -31
33z"/>
<path d="M1178 10904 c-10 -10 4 -44 18 -44 20 0 30 30 13 41 -16 10 -24 11
-31 3z"/>
<path d="M645 10870 c3 -5 8 -10 11 -10 2 0 4 5 4 10 0 6 -5 10 -11 10 -5 0
-7 -4 -4 -10z"/>
<path d="M1200 10821 c0 -10 75 -87 111 -114 42 -31 80 -47 115 -47 41 0 44
11 7 27 -39 17 -66 35 -81 56 -7 9 -20 17 -29 17 -8 0 -37 16 -63 35 -50 37
-60 41 -60 26z"/>
<path d="M1590 10780 c0 -13 5 -20 13 -17 6 2 12 10 12 17 0 7 -6 15 -12 18
-8 2 -13 -5 -13 -18z"/>
<path d="M1400 10361 c0 -5 5 -13 10 -16 6 -3 10 -2 10 4 0 5 -4 13 -10 16 -5
3 -10 2 -10 -4z"/>
<path d="M1645 9345 c6 -30 21 -52 29 -44 2 2 -5 20 -15 39 l-20 35 6 -30z"/>
<path d="M1691 9268 c-1 -4 5 -25 13 -45 8 -21 17 -51 21 -66 3 -16 18 -47 32
-70 15 -23 30 -62 35 -87 5 -29 24 -65 54 -103 36 -47 47 -71 56 -120 7 -45
26 -90 69 -165 33 -57 64 -115 70 -129 14 -38 21 -22 10 23 -50 194 -179 481
-251 559 -10 11 -39 63 -63 115 -25 52 -46 92 -46 88z"/>
<path d="M2188 9235 c11 -16 42 -50 67 -75 40 -37 44 -40 29 -15 -10 17 -24
34 -31 38 -7 4 -29 24 -49 45 -32 32 -34 33 -16 7z"/>
<path d="M2330 9082 c0 -12 19 -26 26 -19 2 2 -2 10 -11 17 -9 8 -15 8 -15 2z"/>
<path d="M2530 8751 c0 -5 5 -13 10 -16 6 -3 10 -2 10 4 0 5 -4 13 -10 16 -5
3 -10 2 -10 -4z"/>
<path d="M2555 8700 c4 -14 9 -38 12 -55 3 -16 9 -34 13 -40 4 -5 15 -45 24
-88 9 -43 20 -87 26 -97 12 -22 52 -136 77 -215 8 -27 28 -83 45 -123 26 -61
34 -73 52 -70 11 2 22 12 24 22 5 23 -38 161 -84 273 -19 45 -34 85 -34 90 0
5 -8 20 -17 33 -10 14 -19 36 -21 48 -2 13 -13 40 -26 60 -12 21 -33 64 -46
97 -24 64 -59 113 -45 65z"/>
<path d="M2300 8508 c0 -12 3 -18 7 -14 11 10 12 36 2 36 -5 0 -9 -10 -9 -22z"/>
<path d="M2327 8451 c-3 -11 1 -28 9 -38 19 -26 17 -40 -8 -48 -21 -6 -21 -7
10 -16 36 -11 38 -16 18 -45 -13 -18 -12 -24 6 -52 11 -18 24 -29 29 -26 13 8
11 38 -3 53 -11 10 -8 16 10 30 33 24 27 66 -8 66 -17 0 -24 5 -21 15 3 8 5
29 5 45 1 23 -4 31 -20 33 -15 2 -23 -3 -27 -17z"/>
<path d="M2420 8180 c0 -19 5 -30 14 -30 22 0 28 17 16 40 -16 29 -30 25 -30
-10z"/>
<path d="M3530 8193 c-27 -5 -100 -78 -100 -101 0 -11 7 -13 28 -7 15 4 59 10
97 14 62 5 70 8 73 28 2 12 -4 33 -14 47 -16 26 -29 28 -84 19z"/>
<path d="M2400 8085 c0 -8 5 -15 10 -15 6 0 10 7 10 15 0 8 -4 15 -10 15 -5 0
-10 -7 -10 -15z"/>
<path d="M2505 7980 c-3 -5 -1 -10 4 -10 6 0 11 5 11 10 0 6 -2 10 -4 10 -3 0
-8 -4 -11 -10z"/>
<path d="M2230 7380 c0 -5 5 -10 11 -10 5 0 7 5 4 10 -3 6 -8 10 -11 10 -2 0
-4 -4 -4 -10z"/>
<path d="M6060 4523 c-59 -6 -80 -13 -80 -26 0 -7 -18 -43 -40 -81 -61 -105
-55 -115 41 -66 99 50 229 145 229 168 0 12 -63 14 -150 5z"/>
<path d="M4276 1357 c-9 -33 -7 -75 3 -81 18 -11 32 22 25 58 -8 44 -20 54
-28 23z"/>
<path d="M4945 1351 c-8 -46 1 -84 18 -78 14 5 13 95 -1 109 -6 6 -12 -4 -17
-31z"/>
<path d="M5211 1356 c-14 -35 -11 -78 6 -83 17 -6 24 35 14 77 l-8 35 -12 -29z"/>
<path d="M6550 1316 c0 -30 4 -36 21 -36 17 0 20 5 17 32 -2 22 -9 34 -20 36
-15 3 -18 -4 -18 -32z"/>
<path d="M7594 1335 c-3 -19 -3 -42 0 -52 6 -15 8 -15 22 -1 11 11 14 25 9 52
-9 46 -22 46 -31 1z"/>
<path d="M2381 1224 c0 -11 3 -14 6 -6 3 7 2 16 -1 19 -3 4 -6 -2 -5 -13z"/>
<path d="M6861 984 c0 -11 3 -14 6 -6 3 7 2 16 -1 19 -3 4 -6 -2 -5 -13z"/>
<path d="M4304 296 c-6 -17 2 -36 17 -36 12 0 12 37 -1 45 -6 3 -13 -1 -16 -9z"/>
<path d="M10474 14359 c-95 -12 -141 -27 -220 -72 -67 -38 -76 -48 -109 -110
-27 -53 -33 -72 -25 -87 5 -10 9 -40 7 -66 -2 -40 1 -49 18 -53 11 -3 41 -21
67 -38 54 -38 71 -40 98 -13 11 11 27 20 35 20 10 0 16 16 21 50 7 57 18 69
69 77 29 5 41 1 60 -17 14 -13 25 -28 25 -33 0 -5 7 -15 16 -21 14 -10 11 -16
-23 -39 -22 -15 -47 -27 -56 -27 -9 0 -34 -9 -54 -20 -21 -11 -43 -20 -50 -20
-19 0 -16 -20 4 -27 17 -7 143 11 207 30 27 7 45 21 58 43 l19 32 79 -3 80 -4
0 193 0 192 -102 12 c-113 13 -133 13 -224 1z m217 -100 c32 -10 99 -72 99
-91 0 -24 -149 10 -208 48 -53 34 32 68 109 43z m-119 -136 c31 -28 21 -36
-39 -28 -113 14 -138 45 -36 45 38 0 62 -5 75 -17z m118 -109 c0 -8 -5 -12
-10 -9 -6 4 -8 11 -5 16 9 14 15 11 15 -7z"/>
<path d="M10392 13989 c2 -7 10 -15 17 -17 8 -3 12 1 9 9 -2 7 -10 15 -17 17
-8 3 -12 -1 -9 -9z"/>
<path d="M9753 13394 c-17 -8 -103 -95 -103 -105 0 -14 54 -10 110 8 44 14 60
15 109 5 31 -7 68 -12 82 -12 14 0 42 -9 64 -20 21 -11 40 -18 42 -16 3 2 -10
20 -28 41 -39 44 -94 73 -162 86 -29 5 -63 11 -77 14 -14 2 -30 2 -37 -1z"/>
<path d="M9664 13211 c-22 -14 -33 -29 -37 -53 -7 -47 5 -53 38 -18 16 16 34
30 40 30 7 0 20 9 30 20 20 22 74 27 93 8 8 -8 15 -8 28 2 15 13 14 15 -3 21
-10 4 -49 8 -88 8 -52 1 -78 -4 -101 -18z"/>
<path d="M10236 12305 c-3 -9 0 -15 9 -15 8 0 15 7 15 15 0 8 -4 15 -9 15 -5
0 -11 -7 -15 -15z"/>
<path d="M10360 12240 c0 -13 -9 -22 -27 -26 -48 -11 -112 -53 -128 -84 -14
-27 -14 -30 6 -40 14 -8 17 -15 11 -23 -6 -7 -12 -23 -14 -37 -2 -21 2 -26 25
-28 37 -4 60 15 53 44 -7 25 51 103 85 116 13 5 19 17 19 37 0 16 3 36 6 45 4
12 0 16 -15 16 -14 0 -21 -6 -21 -20z"/>
<path d="M10070 11930 c-11 -11 -20 -26 -20 -34 0 -7 -7 -19 -15 -26 -14 -12
-21 -50 -9 -50 3 0 17 14 31 30 15 18 34 30 49 30 29 0 32 16 5 23 -14 3 -18
11 -14 26 7 26 -1 27 -27 1z"/>
<path d="M290 7930 c0 -5 5 -10 10 -10 6 0 10 5 10 10 0 6 -4 10 -10 10 -5 0
-10 -4 -10 -10z"/>
</g>
</svg>
