<?xml version="1.0" standalone="no"?>
<!DOCTYPE svg PUBLIC "-//W3C//DTD SVG 20010904//EN"
 "http://www.w3.org/TR/2001/REC-SVG-20010904/DTD/svg10.dtd">
<svg version="1.0" xmlns="http://www.w3.org/2000/svg"
 width="1080.000000pt" height="1540.000000pt" viewBox="0 0 1080.000000 1540.000000"
 preserveAspectRatio="xMidYMid meet">

<g transform="translate(0.000000,1540.000000) scale(0.100000,-0.100000)"
fill="#000000" stroke="none">
<path d="M0 7700 l0 -7700 5400 0 5400 0 0 7700 0 7700 -2195 0 c-1207 0
-2195 -4 -2195 -8 0 -14 23 -32 42 -32 23 0 23 -16 1 -29 -15 -8 -16 -12 -5
-22 16 -17 15 -64 -2 -79 -20 -16 -8 -43 15 -37 29 8 34 -12 10 -44 -26 -35
-26 -42 -1 -34 18 6 20 2 20 -54 0 -34 -2 -61 -4 -61 -17 0 -75 32 -79 45 -4
8 -17 15 -31 15 -54 0 -56 4 -56 125 0 65 4 116 10 120 6 3 10 10 10 14 0 12
-77 30 -100 24 -11 -3 -46 -2 -77 2 -58 7 -58 7 -35 25 29 24 28 30 -8 30 -23
0 -30 -5 -30 -19 0 -30 -15 -34 -132 -39 -78 -3 -113 0 -124 9 -12 10 -20 9
-39 -1 -20 -11 -28 -10 -50 4 -15 10 -24 23 -21 31 4 12 -74 14 -487 15 -356
0 -502 -3 -527 -11 -26 -9 -35 -10 -38 -1 -2 7 -12 12 -23 12 -14 0 -19 -7
-19 -25 0 -15 -7 -28 -17 -32 -10 -3 -47 -19 -82 -35 -45 -21 -67 -26 -74 -19
-19 19 -45 12 -81 -19 -45 -40 -125 -65 -144 -46 -11 11 -2 19 55 50 37 21 79
43 93 51 32 18 32 32 -2 53 -26 15 -28 15 -40 -1 -17 -22 -64 -17 -62 7 1 12
-8 16 -42 16 -24 0 -44 -4 -44 -10 0 -5 10 -10 23 -10 18 -1 19 -2 6 -10 -13
-8 -37 -8 -81 -1 -5 0 -8 8 -8 16 0 9 -9 15 -25 15 -14 0 -25 -4 -25 -10 0 -5
10 -10 22 -10 31 0 11 -16 -31 -25 -33 -7 -33 -6 -27 19 6 26 6 26 -46 24 -30
-1 -61 -8 -71 -16 -15 -13 -17 -13 -17 1 0 19 -40 23 -70 7 -13 -7 -21 -7 -25
0 -3 6 -50 10 -105 10 -98 0 -100 0 -114 -27 l-15 -28 -1 28 c0 23 -4 27 -30
27 -32 0 -37 -9 -18 -28 10 -10 10 -15 -2 -22 -12 -7 -17 -3 -23 20 l-8 30
-240 0 -241 0 7 -62 c3 -35 13 -94 20 -133 8 -38 19 -113 25 -165 6 -52 13
-110 16 -127 4 -28 2 -33 -15 -33 -16 0 -21 11 -31 73 -6 39 -22 142 -36 227
-14 85 -27 170 -30 188 l-5 32 -1484 0 -1485 0 0 -7700z m6597 7657 c-2 -6
-23 -12 -46 -14 -38 -2 -42 -1 -31 12 7 9 21 13 31 10 9 -3 20 -1 24 5 8 13
27 2 22 -13z m183 -1 c0 -9 -10 -13 -25 -12 -23 1 -24 2 -8 14 22 16 33 15 33
-2z m-130 -6 c0 -5 -2 -10 -4 -10 -3 0 -8 5 -11 10 -3 6 -1 10 4 10 6 0 11 -4
11 -10z m40 0 c0 -5 -4 -10 -10 -10 -5 0 -10 5 -10 10 0 6 5 10 10 10 6 0 10
-4 10 -10z m-2715 -10 c3 -5 14 -10 24 -10 10 0 21 -9 24 -20 7 -26 -24 -43
-64 -35 -22 5 -29 3 -29 -9 0 -15 12 -21 34 -17 4 1 6 -16 4 -39 -3 -35 -1
-40 17 -40 12 0 26 5 33 12 7 7 29 11 50 10 26 -2 46 3 64 17 30 24 58 27 58
8 0 -35 -105 -97 -165 -97 -12 0 -28 -6 -34 -14 -7 -8 -24 -17 -39 -21 -15 -3
-52 -22 -82 -40 -94 -59 -240 -125 -277 -125 -9 0 -38 -13 -65 -30 -26 -16
-56 -30 -66 -30 -9 0 -30 -7 -46 -15 -15 -8 -36 -15 -45 -15 -9 0 -47 -23 -85
-50 -38 -28 -79 -53 -90 -55 -12 -3 -41 -10 -66 -15 -25 -5 -58 -12 -75 -16
-16 -3 -41 -17 -55 -29 -31 -28 -116 -70 -191 -95 -62 -20 -63 -21 -158 -69
-68 -34 -91 -34 -47 0 15 12 25 27 22 34 -7 19 13 32 69 46 28 7 64 18 82 25
17 8 38 14 46 14 8 0 45 15 83 34 38 19 92 42 119 51 75 25 110 43 225 111 95
57 112 63 179 70 64 6 79 11 110 39 42 38 85 60 197 105 44 17 103 48 130 69
l49 37 3 69 c1 39 6 79 11 90 5 11 12 28 15 38 6 19 21 23 31 7z m-455 -18 c0
-5 -9 -17 -20 -27 -20 -18 -20 -17 -20 8 0 20 5 27 20 27 11 0 20 -4 20 -8z
m80 -27 c0 -18 -4 -23 -15 -19 -15 6 -20 35 -9 47 12 11 24 -3 24 -28z m456
-2 c-11 -11 -19 6 -11 24 8 17 8 17 12 0 3 -10 2 -21 -1 -24z m-491 -67 c14
-5 15 -9 5 -21 -17 -21 -23 -19 -42 13 -12 20 -13 30 -4 38 8 8 13 7 18 -6 3
-9 14 -20 23 -24z m44 -43 l-2 -78 -11 60 c-12 61 -11 95 5 95 5 0 8 -35 8
-77z m1834 3 c127 -60 190 -90 402 -188 83 -39 175 -85 205 -103 69 -41 163
-85 260 -121 65 -23 149 -63 325 -152 57 -30 146 -68 175 -77 45 -14 340 -154
950 -452 151 -74 298 -144 325 -156 28 -12 259 -126 515 -255 256 -129 482
-240 502 -247 24 -9 89 -14 180 -15 79 -1 167 -4 197 -7 48 -5 52 -7 30 -16
-39 -15 -1817 -11 -3604 8 -225 2 -693 7 -1040 10 -635 5 -1834 20 -2435 30
-488 8 -1043 26 -1060 35 -16 9 -6 11 155 31 55 6 103 13 107 16 11 6 -3 33
-17 33 -19 0 -29 20 -17 32 7 7 16 6 29 0 22 -12 49 0 39 17 -4 6 -16 11 -27
11 -10 0 -19 5 -19 10 0 10 6 12 42 14 10 1 18 4 18 9 0 4 0 11 0 16 0 5 -9
11 -20 14 -11 3 -20 12 -20 20 0 20 38 46 125 87 91 42 261 123 350 166 91 44
284 130 360 160 33 14 73 31 88 39 16 8 34 15 41 15 7 0 39 14 71 31 31 17 64
28 72 25 8 -3 12 -2 9 3 -3 5 16 14 42 21 26 7 52 18 57 24 16 18 107 48 143
47 17 -1 32 3 32 9 0 5 17 10 38 10 21 0 47 7 58 15 10 8 28 15 40 15 11 0 29
6 40 14 10 8 29 12 42 9 12 -3 29 0 37 7 8 6 19 9 24 5 6 -3 29 4 51 15 22 11
45 18 50 15 5 -3 22 1 37 8 15 8 49 17 75 21 25 4 52 14 58 21 7 8 25 15 41
15 18 0 32 7 39 20 6 11 20 20 31 20 11 0 30 6 42 14 12 8 47 22 77 32 30 9
62 23 70 30 58 49 291 127 314 104 15 -15 69 -13 63 3 -2 6 -14 11 -25 9 -12
-2 -22 2 -22 7 0 6 5 11 11 11 6 0 25 11 43 25 18 14 40 25 50 25 9 0 33 7 54
16 34 15 91 31 134 38 9 1 24 8 33 16 13 11 21 11 35 2 14 -9 21 -8 30 3 10
12 10 15 0 15 -20 0 -5 23 18 27 12 1 41 15 65 30 23 15 60 36 82 46 22 10 47
23 55 27 86 51 117 66 190 95 47 18 128 54 180 79 52 25 106 46 118 46 13 0
74 -24 135 -54z m1967 -616 c0 -5 -7 -10 -15 -10 -8 0 -15 5 -15 10 0 6 7 10
15 10 8 0 15 -4 15 -10z m-4820 -10 c0 -5 -12 -10 -27 -10 -22 0 -25 2 -13 10
20 13 40 13 40 0z m-635 -10 c3 -5 -3 -10 -15 -10 -12 0 -18 5 -15 10 3 6 10
10 15 10 5 0 12 -4 15 -10z m115 0 c11 -7 1 -9 -35 -9 -44 1 -46 2 -20 9 17 4
32 8 35 9 3 0 12 -4 20 -9z m293 3 c-13 -2 -33 -2 -45 0 -13 2 -3 4 22 4 25 0
35 -2 23 -4z m95 0 c-10 -2 -28 -2 -40 0 -13 2 -5 4 17 4 22 1 32 -1 23 -4z
m5672 -3 c0 -5 -25 -10 -55 -10 -30 0 -55 5 -55 10 0 6 25 10 55 10 30 0 55
-4 55 -10z m347 -2 l28 -11 -40 -8 c-44 -9 -195 -1 -195 11 0 3 3 10 7 13 11
12 170 8 200 -5z m-6920 -4 c-3 -3 -12 -4 -19 -1 -8 3 -5 6 6 6 11 1 17 -2 13
-5z m833 -143 c0 -5 -15 -14 -32 -21 -18 -6 -42 -16 -53 -21 -11 -6 -6 3 13
20 30 29 72 42 72 22z m-778 -718 c-6 -2 -9 -10 -6 -15 4 -7 2 -8 -5 -4 -13 9
-5 26 12 25 9 0 8 -2 -1 -6z m7993 -283 c-3 -5 -10 -10 -16 -10 -5 0 -9 5 -9
10 0 6 7 10 16 10 8 0 12 -4 9 -10z m-4045 -37 c989 -11 1953 -15 2445 -10
132 1 371 -1 530 -5 160 -3 398 -9 530 -12 132 -3 258 -8 280 -11 22 -2 78 -7
125 -10 143 -11 151 -12 162 -23 7 -7 9 -14 6 -17 -16 -16 -291 -22 -1006 -21
-442 1 -805 -1 -807 -5 -8 -12 106 -17 450 -18 374 -2 553 -5 1020 -21 172 -6
319 -8 327 -5 7 3 22 -1 33 -9 18 -14 11 -15 -80 -16 -286 -2 -1850 2 -2040 5
-216 4 -1029 11 -2345 20 -366 3 -834 7 -1040 10 -206 3 -607 7 -890 10 -857
10 -1181 15 -1270 21 -47 3 -97 6 -112 5 -16 -1 -28 3 -28 8 0 18 462 23 1749
18 727 -3 1319 -2 1316 1 -8 9 -4 9 -595 16 -1154 14 -1457 20 -1705 32 -77 4
-232 6 -345 5 -169 -2 -208 0 -225 13 -21 15 -21 15 225 18 14 0 39 0 55 -1
51 -3 769 10 780 14 13 5 1566 -3 2455 -12z m4154 -94 c-7 -12 -41 -12 -48 0
-4 5 0 11 6 14 19 6 49 -4 42 -14z m6 -79 c0 -5 -4 -10 -9 -10 -6 0 -13 5 -16
10 -3 6 1 10 9 10 9 0 16 -4 16 -10z m-7333 -2563 c14 -14 14 -17 2 -21 -30
-10 -297 -21 -306 -12 -9 9 22 45 42 49 11 1 71 2 133 2 90 -1 116 -5 129 -18z
m-347 -17 c0 -5 -2 -10 -4 -10 -3 0 -8 5 -11 10 -3 6 -1 10 4 10 6 0 11 -4 11
-10z m147 -91 c0 -13 1 -32 2 -41 1 -20 31 -25 31 -5 1 7 8 3 18 -8 37 -45
159 -76 170 -45 14 39 47 -36 38 -85 -7 -37 -15 -42 -33 -24 -15 15 -68 7 -68
-11 0 -11 13 -16 44 -17 24 -2 47 -5 50 -8 14 -15 -2 -439 -18 -459 -5 -6 -5
-20 -1 -31 9 -26 0 -167 -13 -183 -5 -7 -18 -10 -28 -7 -11 4 -19 2 -19 -4 0
-6 -4 -11 -10 -11 -15 0 -12 22 6 45 11 14 18 16 21 7 3 -6 9 -10 14 -6 16 10
10 24 -11 24 -21 0 -27 15 -10 25 29 18 -7 30 -110 39 -88 7 -161 19 -166 27
-3 5 -13 9 -23 9 -10 0 -24 7 -31 15 -7 8 -23 15 -36 15 -13 0 -24 5 -24 10 0
17 31 24 40 10 9 -15 30 -5 30 15 0 18 -39 45 -55 39 -16 -6 -143 32 -162 48
-11 9 -16 9 -23 -1 -6 -11 -15 -11 -38 -3 -17 6 -33 8 -36 5 -3 -4 -6 5 -6 20
0 24 29 45 54 39 4 -2 24 2 44 9 30 10 37 9 48 -6 17 -23 33 -11 32 25 -1 17
1 31 3 33 56 33 68 35 120 23 49 -12 155 -12 204 -2 11 3 27 5 35 5 20 1 -56
41 -78 41 -10 0 -22 4 -27 9 -9 8 -74 6 -307 -11 -20 -1 -43 4 -52 11 -32 27
-51 3 -46 -56 1 -15 -4 -23 -14 -23 -18 0 -22 45 -5 55 6 4 8 25 4 54 -7 53
11 299 24 334 7 16 25 27 69 41 34 10 65 15 71 12 5 -4 27 -7 48 -7 21 -1 48
-7 60 -15 14 -9 38 -11 72 -7 36 4 56 2 67 -8 15 -12 16 -10 9 30 -6 34 -4 42
6 39 8 -3 15 -16 16 -29z m6208 -349 c3 -5 -1 -10 -9 -10 -9 0 -16 5 -16 10 0
6 4 10 9 10 6 0 13 -4 16 -10z m-525 -149 c0 -11 -4 -23 -10 -26 -6 -4 -10 5
-10 19 0 14 5 26 10 26 6 0 10 -9 10 -19z m510 9 c0 -5 -4 -10 -10 -10 -5 0
-10 5 -10 10 0 6 5 10 10 10 6 0 10 -4 10 -10z m-6599 -190 c15 0 31 -4 34
-10 3 -5 19 -10 36 -10 19 0 29 -5 29 -15 0 -24 -26 -29 -98 -19 -52 7 -68 13
-70 27 -5 25 18 51 32 37 5 -5 22 -10 37 -10z m6482 -12 c31 -6 57 -15 57 -19
0 -10 -65 -20 -84 -13 -10 4 -29 1 -43 -7 -23 -12 -27 -11 -43 9 -10 12 -25
22 -34 22 -16 0 -21 12 -10 23 8 8 77 1 157 -15z m-6305 -46 c3 -10 -4 -13
-24 -10 -15 2 -29 9 -32 16 -3 10 4 13 24 10 15 -2 29 -9 32 -16z m6072 -87
c0 -24 31 -31 45 -11 11 14 23 16 79 10 61 -6 65 -8 55 -26 -7 -14 -7 -23 2
-34 18 -22 30 -17 27 12 -4 36 12 39 45 9 23 -22 30 -24 48 -14 12 6 19 7 15
1 -3 -5 1 -12 9 -16 8 -3 15 -16 16 -28 0 -17 4 -13 15 17 19 51 31 64 40 41
4 -10 2 -21 -6 -26 -18 -11 5 -50 30 -50 15 0 20 -7 20 -25 0 -17 6 -25 18
-25 12 0 13 -3 5 -8 -10 -7 -10 -14 0 -35 9 -21 17 -26 34 -22 33 8 56 -4 42
-21 -7 -8 -9 -18 -5 -21 4 -4 11 -1 16 7 7 11 11 9 19 -11 5 -15 16 -29 24
-32 8 -3 19 -23 24 -44 5 -21 15 -37 21 -35 7 1 12 -6 12 -17 0 -13 -9 -20
-30 -24 -22 -5 -30 -12 -30 -27 0 -16 5 -20 26 -18 36 4 53 -22 35 -55 -7 -14
-10 -30 -6 -36 4 -7 1 -19 -6 -27 -9 -12 -10 -17 -1 -23 8 -4 9 -16 3 -36 l-8
-30 -13 30 c-7 17 -12 49 -12 73 0 24 -4 40 -9 36 -5 -3 -6 -10 -3 -16 5 -8
-10 -9 -49 -4 -36 4 -57 2 -57 -4 0 -5 -6 -9 -12 -8 -7 2 -12 -3 -10 -9 1 -7
-3 -13 -10 -13 -16 0 -48 -30 -48 -46 0 -8 8 -10 22 -6 18 4 20 2 14 -14 -15
-35 -27 -97 -21 -103 4 -3 19 9 34 27 31 39 45 34 24 -9 -17 -35 -52 -57 -63
-40 -7 13 -40 4 -40 -10 0 -5 -7 -9 -15 -9 -9 0 -20 -10 -26 -22 -38 -83 -56
-103 -76 -86 -11 9 -12 3 -8 -25 4 -20 2 -44 -3 -54 -9 -15 -12 -14 -33 8 -14
14 -32 23 -42 21 -23 -5 -17 -25 9 -32 10 -3 20 -13 22 -22 4 -24 -7 -23 -34
3 l-23 22 -12 -27 c-8 -17 -16 -23 -23 -17 -6 5 -26 12 -45 16 -32 7 -33 6
-28 -17 8 -32 -27 -53 -71 -43 -42 9 -67 72 -59 147 8 69 33 208 42 231 4 9 3
17 -3 17 -19 0 -24 40 -8 71 9 17 13 36 9 42 -11 18 -18 108 -15 197 2 30 0
122 -2 205 -4 128 -3 152 11 167 20 22 53 24 53 3z m283 -15 c3 -11 2 -20 -3
-20 -12 0 -31 26 -23 33 11 12 21 7 26 -13z m237 -25 c0 -8 -2 -15 -4 -15 -2
0 -6 7 -10 15 -3 8 -1 15 4 15 6 0 10 -7 10 -15z m-6226 -20 c6 -17 4 -18 -18
-9 -20 8 -21 24 -2 24 8 0 16 -7 20 -15z m6176 0 c0 -9 -6 -12 -15 -9 -8 4
-15 10 -15 15 0 5 7 9 15 9 8 0 15 -7 15 -15z m-35 -16 c11 -17 -1 -21 -15 -4
-8 9 -8 15 -2 15 6 0 14 -5 17 -11z m-6235 -9 c0 -5 -4 -10 -10 -10 -5 0 -10
5 -10 10 0 6 5 10 10 10 6 0 10 -4 10 -10z m6300 -17 c0 -5 -5 -15 -10 -23 -8
-12 -10 -11 -10 8 0 12 5 22 10 22 6 0 10 -3 10 -7z m40 -9 c0 -8 -5 -12 -10
-9 -6 4 -8 11 -5 16 9 14 15 11 15 -7z m-6325 -59 c78 -7 109 -2 137 22 32 28
39 6 35 -100 -5 -101 -12 -136 -30 -148 -5 -4 -4 -16 3 -29 8 -15 10 -49 6
-104 -3 -44 -7 -106 -7 -136 -1 -72 -7 -90 -28 -90 -9 0 -22 -5 -28 -11 -8 -8
-17 -8 -31 0 -11 6 -37 11 -56 11 -25 0 -36 5 -36 14 0 26 -20 28 -56 7 -25
-15 -40 -18 -53 -12 -9 5 -39 12 -67 14 -27 3 -56 7 -64 10 -8 3 -66 8 -129
11 -62 3 -120 11 -127 17 -8 6 -25 8 -39 5 -24 -6 -25 -4 -25 33 0 41 16 65
22 34 3 -14 12 -17 48 -14 25 1 48 8 52 14 4 6 22 10 40 9 18 -1 40 2 48 7 13
9 13 12 0 24 -20 19 -170 39 -186 26 -9 -7 -14 -1 -19 21 -8 35 7 60 36 60 10
0 23 8 28 18 10 15 11 15 17 -5 8 -28 24 -30 24 -5 0 28 41 45 91 38 122 -18
171 -21 175 -11 3 6 32 9 74 7 50 -3 70 0 70 8 0 8 -10 11 -25 8 -14 -3 -30 1
-36 8 -14 17 -69 18 -69 2 0 -9 -3 -9 -12 0 -7 7 -27 12 -46 12 -25 0 -35 5
-39 20 -3 11 -12 20 -19 20 -16 0 -19 36 -4 45 17 11 11 25 -15 35 -14 5 -25
16 -25 23 0 9 -11 14 -27 14 -107 1 -205 65 -107 70 19 1 42 7 49 13 20 17
185 10 206 -7 9 -8 23 -13 30 -11 8 2 15 -7 17 -19 2 -13 10 -23 18 -23 20 0
30 30 13 41 -9 5 1 6 23 2 37 -5 38 -4 45 28 l6 34 9 -27 c8 -24 15 -26 83
-33z m5633 -6 c2 -39 -1 -58 -8 -54 -12 7 -14 115 -2 115 4 0 9 -27 10 -61z
m752 11 c0 -5 -7 -10 -15 -10 -8 0 -15 5 -15 10 0 6 7 10 15 10 8 0 15 -4 15
-10z m-6924 -125 c3 -8 -1 -24 -10 -36 l-15 -22 -6 26 c-10 39 18 68 31 32z
m74 0 c0 -8 -7 -15 -15 -15 -16 0 -20 12 -8 23 11 12 23 8 23 -8z m6080 -52
c0 -19 -3 -24 -10 -17 -6 6 -8 18 -4 27 9 24 14 21 14 -10z m-2315 -34 c10
-15 -25 -38 -57 -39 -39 0 -36 25 5 38 43 14 45 14 52 1z m2331 -166 c6 -64 5
-73 -10 -73 -14 0 -16 15 -15 123 2 130 10 114 25 -50z m-6190 120 c-10 -10
-19 5 -10 18 6 11 8 11 12 0 2 -7 1 -15 -2 -18z m3937 3 c7 -17 -1 -26 -22
-26 -24 0 -44 16 -37 29 10 16 53 14 59 -3z m-23 -131 c65 -45 93 -105 49
-105 -12 0 -30 11 -41 25 -19 25 -78 36 -78 16 0 -28 15 -41 45 -41 18 0 38
-7 45 -16 7 -8 24 -14 38 -12 29 4 57 -30 67 -81 7 -34 7 -34 -24 -28 -30 6
-31 5 -31 -28 0 -28 -5 -37 -31 -50 -26 -14 -38 -15 -80 -4 -37 10 -61 10 -96
2 -27 -6 -80 -11 -119 -12 l-70 -1 -18 41 c-14 31 -16 52 -10 92 4 29 8 63 9
77 1 14 6 40 10 58 7 29 5 32 -15 32 -35 0 -6 27 44 42 22 6 46 16 51 21 6 5
55 7 113 4 91 -4 107 -8 142 -32z m2940 -89 c0 -13 -6 -29 -14 -35 -11 -9 -15
-6 -18 13 -6 28 9 59 23 51 5 -4 9 -17 9 -29z m65 -31 c0 -10 -6 -20 -12 -22
-8 -3 -13 5 -13 22 0 17 5 25 13 23 6 -3 12 -13 12 -23z m-1845 -100 c7 -8 13
-26 13 -40 0 -27 -20 -58 -33 -50 -20 12 -20 105 0 105 4 0 13 -7 20 -15z
m1125 -15 c8 -36 -4 -178 -15 -185 -11 -7 -24 157 -16 190 9 34 23 32 31 -5z
m-5555 -30 c0 -5 -5 -10 -11 -10 -5 0 -7 5 -4 10 3 6 8 10 11 10 2 0 4 -4 4
-10z m6100 -27 c-1 -18 -28 -44 -35 -33 -4 6 -1 17 5 25 13 16 30 20 30 8z m0
-173 c0 -5 -5 -10 -11 -10 -5 0 -7 5 -4 10 3 6 8 10 11 10 2 0 4 -4 4 -10z
m-3105 -66 c4 -31 2 -50 -7 -61 -11 -14 -14 -8 -19 43 -4 32 -5 62 -2 67 9 16
21 -4 28 -49z m2560 -4 c-4 -17 -11 -30 -16 -30 -10 0 -12 73 -2 84 12 12 25
-24 18 -54z m395 20 c-20 -13 -33 -13 -25 0 3 6 14 10 23 10 15 0 15 -2 2 -10z
m-1950 -53 c-1 -59 10 -107 25 -107 14 0 25 -21 25 -47 0 -10 -6 -13 -16 -9
-9 4 -23 1 -31 -5 -7 -7 -17 -9 -21 -5 -8 9 -13 206 -6 218 12 19 25 -6 24
-45z m1798 42 c-2 -6 -8 -10 -13 -10 -5 0 -11 4 -13 10 -2 6 4 11 13 11 9 0
15 -5 13 -11z m-1346 -15 c10 -10 40 -19 68 -22 55 -5 64 -12 55 -42 -4 -13
-15 -20 -30 -20 -30 0 -77 -18 -87 -33 -15 -23 -8 -56 17 -75 l25 -20 -24 -25
c-17 -18 -28 -48 -36 -97 -10 -62 -10 -74 5 -96 10 -16 14 -35 10 -53 -4 -19
-1 -32 10 -41 14 -12 14 -15 -6 -36 -17 -18 -21 -35 -22 -83 0 -65 -16 -85
-19 -26 -1 19 -3 50 -6 68 -6 47 -13 228 -15 418 -2 128 1 170 12 182 17 21
20 21 43 1z m1291 -72 c5 0 11 -3 15 -6 3 -3 -4 -6 -16 -6 -13 0 -26 -10 -34
-27 -27 -55 -49 -33 -40 40 l4 37 32 -19 c17 -11 35 -19 39 -19z m-2745 -38
c9 -8 38 -29 64 -45 l47 -30 -20 -40 c-12 -21 -26 -39 -32 -39 -5 0 -32 22
-59 50 -35 36 -48 57 -48 78 0 44 17 54 48 26z m2802 1 c0 -8 -7 -15 -15 -15
-8 0 -15 7 -15 15 0 8 7 15 15 15 8 0 15 -7 15 -15z m-2295 -31 c22 -8 67 -23
100 -33 50 -16 186 -65 344 -125 19 -8 40 -25 48 -39 7 -15 23 -31 34 -38 12
-6 18 -17 15 -25 -6 -15 21 -108 83 -284 22 -63 41 -124 41 -135 0 -11 14 -65
31 -120 38 -127 57 -223 51 -263 -4 -28 -7 -30 -24 -21 -19 10 -19 12 -2 30
16 18 16 21 -10 59 -37 56 -72 63 -106 22 -31 -38 -57 -41 -62 -9 -2 14 -11
23 -25 25 -44 6 -47 26 -13 93 29 59 30 63 13 81 -14 16 -15 24 -5 52 7 18 12
52 12 76 0 24 5 59 12 77 10 27 10 38 -2 56 -7 12 -16 35 -19 51 -4 16 -12 31
-18 33 -11 4 -17 -13 -43 -122 -13 -58 -16 -63 -32 -47 -8 8 -7 41 7 129 10
65 20 133 22 150 3 18 2 41 -2 50 -6 15 -9 14 -23 -12 -9 -16 -23 -52 -32 -79
-17 -51 -40 -73 -40 -38 0 31 -28 89 -46 96 -14 5 -15 0 -8 -36 11 -62 8 -81
-16 -97 -11 -8 -20 -25 -20 -40 -1 -25 -1 -25 -15 -7 -20 26 -37 10 -70 -62
-23 -50 -28 -55 -37 -39 -5 11 -10 80 -10 155 -1 98 -4 142 -14 158 -8 11 -17
49 -20 85 -4 35 -11 70 -17 77 -17 21 -98 52 -138 52 -43 0 -58 24 -39 60 13
24 40 25 95 4z m-587 -16 c11 -13 30 -43 41 -68 l20 -45 -39 -17 c-25 -11 -57
-40 -90 -82 -29 -36 -59 -66 -68 -66 -17 -1 -52 -22 -52 -32 0 -3 9 -8 20 -11
13 -3 20 -14 20 -30 0 -28 10 -39 26 -29 6 4 39 40 73 80 54 63 66 72 96 72
31 0 37 -5 70 -61 19 -33 35 -63 35 -66 0 -13 85 -190 107 -223 12 -19 23 -42
23 -52 0 -15 -7 -13 -46 12 -49 31 -202 90 -234 90 -21 0 -30 -25 -49 -133
-12 -68 -16 -76 -44 -86 -15 -6 -25 -4 -33 7 -8 11 -15 12 -32 3 -11 -6 -32
-11 -46 -11 -27 0 -56 -32 -56 -62 0 -27 17 -22 24 7 4 14 13 25 21 25 11 0
14 -13 12 -57 -1 -32 2 -84 7 -115 7 -48 6 -58 -6 -58 -9 0 -21 19 -30 48 -18
56 -43 63 -44 12 0 -19 -4 -53 -9 -75 -4 -22 -9 -80 -10 -130 -5 -239 -35
-522 -66 -605 -5 -14 -11 -54 -13 -90 -6 -89 -34 -345 -43 -378 -6 -24 -7 -24
-14 -7 -11 28 -9 248 2 320 5 33 12 101 15 152 6 84 5 93 -15 109 -26 23 -27
54 -1 174 30 140 30 117 -15 650 -8 99 -12 212 -8 260 3 47 2 82 -2 78 -4 -4
-16 -3 -26 3 -16 8 -20 4 -27 -23 -6 -22 -15 -33 -25 -32 -9 1 -14 -2 -11 -7
3 -5 7 -59 10 -121 3 -62 9 -131 14 -153 5 -22 10 -57 10 -77 0 -20 5 -40 10
-43 6 -3 10 -14 10 -23 -1 -29 -37 26 -61 91 -24 64 -37 71 -46 27 -3 -17 -13
-36 -22 -43 -9 -7 -22 -20 -29 -29 -12 -15 -10 -19 17 -33 27 -13 30 -19 21
-36 -6 -11 -29 -27 -51 -35 -21 -9 -39 -20 -39 -25 0 -12 35 -26 81 -34 21 -3
42 -12 48 -19 10 -12 0 -20 -53 -46 -37 -18 -66 -38 -66 -45 0 -7 19 -15 45
-18 46 -5 85 -29 85 -53 0 -7 -18 -18 -40 -24 -29 -8 -49 -22 -72 -55 -26 -35
-44 -48 -82 -60 -27 -8 -58 -15 -68 -15 -51 0 13 -79 100 -124 26 -14 40 -15
72 -6 52 14 57 25 24 55 -24 22 -25 25 -7 25 10 0 32 -13 48 -30 27 -28 27
-30 11 -54 -9 -14 -26 -30 -38 -37 -13 -6 -38 -25 -55 -42 -30 -28 -36 -30
-70 -21 -32 8 -46 6 -85 -14 -27 -13 -48 -28 -48 -33 0 -6 -12 -9 -27 -7 -25
3 -28 7 -28 37 l0 34 52 3 c29 1 57 5 63 9 13 8 -1 35 -46 85 -38 41 -43 76
-23 156 11 43 12 44 53 44 54 0 127 23 140 43 9 13 4 24 -21 49 l-32 31 -41
-28 c-24 -17 -44 -25 -50 -19 -11 12 14 132 40 191 11 25 32 99 46 166 85 391
97 439 124 503 12 26 26 70 31 96 8 36 20 55 46 77 32 27 69 43 283 129 36 14
86 41 111 59 40 29 103 61 120 63 3 0 15 -10 27 -22z m2832 2 c0 -5 -4 -10
-10 -10 -5 0 -10 5 -10 10 0 6 5 10 10 10 6 0 10 -4 10 -10z m-60 -22 c0 -16
-3 -19 -11 -11 -6 6 -8 16 -5 22 11 17 16 13 16 -11z m-1106 -38 c26 -9 37
-40 14 -40 -14 0 -48 30 -48 42 0 10 3 10 34 -2z m1136 -10 c0 -5 -2 -10 -4
-10 -3 0 -8 5 -11 10 -3 6 -1 10 4 10 6 0 11 -4 11 -10z m-1040 -20 c0 -5 -11
-10 -25 -10 -14 0 -25 5 -25 10 0 6 11 10 25 10 14 0 25 -4 25 -10z m1051 -71
c32 -22 38 -39 14 -39 -8 0 -15 -7 -15 -15 0 -10 10 -15 30 -15 22 0 30 5 30
18 0 10 -5 23 -11 29 -8 8 -2 15 22 27 29 15 33 15 44 -1 9 -12 19 -14 41 -8
54 15 144 -6 182 -42 7 -7 18 -13 23 -13 5 0 9 -11 9 -25 0 -21 -4 -25 -22
-21 -71 15 -127 16 -139 3 -7 -7 -24 -11 -37 -9 -23 5 -24 3 -18 -31 6 -35 6
-36 -26 -39 -35 -3 -42 -21 -11 -27 10 -1 25 -9 33 -17 9 -7 25 -11 36 -8 12
3 26 -1 33 -10 8 -9 20 -16 27 -16 8 0 14 -4 14 -10 0 -5 -14 -10 -31 -10 -26
0 -30 -3 -24 -17 17 -41 12 -48 -34 -48 -25 0 -51 6 -58 13 -11 12 -16 12 -29
1 -28 -23 -61 -22 -67 2 -6 24 -27 17 -27 -9 0 -13 -28 -78 -47 -111 -2 -2
-14 1 -28 7 -21 10 -25 18 -25 56 0 30 -5 46 -15 50 -10 3 -15 19 -15 43 1 35
2 36 15 20 12 -17 14 -7 18 80 2 64 10 115 23 148 27 72 38 77 85 44z m-5714
-13 c7 -6 6 -26 -2 -171 -3 -49 -6 -106 -5 -126 0 -21 -6 -42 -15 -49 -11 -9
-12 -17 -3 -33 7 -13 9 -61 6 -134 -5 -112 -12 -139 -27 -115 -6 9 -11 8 -23
-5 -27 -32 -30 -53 -6 -62 12 -4 17 -10 12 -13 -13 -8 -302 -13 -310 -6 -3 4
-21 4 -39 1 -19 -3 -42 -2 -52 2 -15 7 -13 9 12 15 17 4 52 8 78 9 29 1 46 5
42 11 -3 6 -18 7 -32 4 -16 -4 -28 -2 -34 7 -15 24 -10 31 20 24 30 -6 65 10
103 48 26 25 22 37 -12 37 -21 0 -34 8 -47 28 -31 49 -72 80 -113 87 -51 9
-89 37 -74 56 6 8 14 27 18 44 7 26 9 27 17 12 11 -18 44 -23 54 -8 3 6 13 10
23 9 9 0 34 3 55 6 21 3 47 1 58 -4 32 -17 87 -2 102 29 7 15 20 25 29 23 18
-3 42 31 31 42 -4 3 -15 -1 -25 -11 -17 -15 -18 -15 -18 15 0 30 -1 31 -46 28
-25 -1 -51 3 -58 9 -6 6 -19 14 -28 18 -36 13 -20 34 27 35 24 1 52 5 62 10
10 5 28 14 40 20 12 7 36 9 54 5 21 -4 34 -2 40 8 15 24 10 29 -31 29 -47 0
-52 15 -15 52 21 21 33 25 76 23 28 -2 53 -6 56 -9z m3413 -31 c0 -20 12 -59
26 -88 33 -65 171 -316 187 -339 9 -14 5 -30 -25 -90 -21 -40 -54 -125 -73
-188 -20 -63 -52 -155 -70 -205 -19 -49 -39 -111 -46 -137 -13 -56 -34 -79
-43 -50 -4 11 -3 27 0 37 5 13 2 16 -12 13 -13 -2 -18 -10 -16 -27 2 -15 0
-21 -7 -16 -12 7 -7 447 5 467 4 6 6 72 5 147 -1 91 5 184 19 280 11 80 20
164 20 188 0 32 4 43 15 43 11 0 15 -11 15 -35z m2773 -10 c19 -12 23 -22 19
-47 -4 -25 -7 -29 -16 -17 -6 8 -24 21 -41 31 -16 9 -33 26 -37 38 -8 21 -6
22 22 17 16 -4 40 -13 53 -22z m-6946 -127 c-2 -13 -4 -5 -4 17 -1 22 1 32 4
23 2 -10 2 -28 0 -40z m6723 32 c0 -5 -4 -10 -9 -10 -6 0 -13 5 -16 10 -3 6 1
10 9 10 9 0 16 -4 16 -10z m70 0 c0 -5 -4 -10 -10 -10 -5 0 -10 5 -10 10 0 6
5 10 10 10 6 0 10 -4 10 -10z m-6574 -99 c-9 -10 -14 -20 -11 -23 3 -3 -1 -8
-10 -11 -8 -4 -15 -3 -15 1 0 4 -14 13 -30 21 -42 18 -33 36 17 36 23 0 45 4
49 8 16 16 16 -14 0 -32z m5075 16 c-1 -12 -15 -9 -19 4 -3 6 1 10 8 8 6 -3
11 -8 11 -12z m129 -11 c0 -8 -8 -13 -17 -11 -10 2 -22 4 -28 5 -5 1 1 6 15
10 14 4 26 8 28 9 1 1 2 -5 2 -13z m-4870 -37 c0 -23 -28 -25 -36 -4 -4 8 -3
22 0 31 5 13 9 14 21 4 8 -7 15 -21 15 -31z m-235 21 c3 -5 -1 -10 -9 -10 -9
0 -16 5 -16 10 0 6 4 10 9 10 6 0 13 -4 16 -10z m-50 -20 c3 -5 1 -10 -4 -10
-6 0 -11 5 -11 10 0 6 2 10 4 10 3 0 8 -4 11 -10z m6592 -32 c-3 -8 -6 -5 -6
6 -1 11 2 17 5 13 3 -3 4 -12 1 -19z m-117 2 c0 -5 -7 -10 -15 -10 -8 0 -15 5
-15 10 0 6 7 10 15 10 8 0 15 -4 15 -10z m-2143 -62 c-3 -7 -5 -2 -5 12 0 14
2 19 5 13 2 -7 2 -19 0 -25z m1748 -130 c-10 -46 -23 -56 -31 -24 -8 33 1 56
21 56 13 0 15 -6 10 -32z m-1868 -79 c9 -118 9 -122 -3 -126 -13 -5 -24 64
-24 155 0 90 19 69 27 -29z m731 52 c2 -12 -4 -33 -12 -46 -18 -27 -21 -65 -6
-65 14 0 13 -149 -1 -190 l-12 -33 -13 24 c-19 34 -16 285 4 317 18 27 36 24
40 -7z m1246 -63 c21 3 36 -3 103 -44 37 -21 43 -49 13 -57 -14 -3 -24 1 -31
14 -13 24 -29 15 -29 -16 0 -34 -20 -42 -39 -16 l-16 21 -37 -20 c-33 -18 -39
-18 -53 -4 -20 20 -29 58 -21 90 5 20 11 24 27 19 15 -5 22 -2 26 14 5 18 8
19 21 9 8 -7 24 -11 36 -10z m-2907 -100 c-3 -8 -6 -5 -6 6 -1 11 2 17 5 13 3
-3 4 -12 1 -19z m3053 -23 c-7 -9 -15 -13 -18 -10 -3 2 1 11 8 20 7 9 15 13
18 10 3 -2 -1 -11 -8 -20z m70 -45 c0 -5 -7 -10 -16 -10 -8 0 -12 5 -9 10 3 6
10 10 16 10 5 0 9 -4 9 -10z m-103 -6 c-3 -3 -12 -4 -19 -1 -8 3 -5 6 6 6 11
1 17 -2 13 -5z m-5939 -53 c67 -5 118 -14 125 -21 10 -10 -43 -11 -258 -6
-380 9 -467 19 -225 26 102 3 199 6 215 7 17 1 81 -2 143 -6z m5669 -58 c-3
-10 -5 -2 -5 17 0 19 2 27 5 18 2 -10 2 -26 0 -35z m-1243 -89 c8 -22 8 -24
-8 -24 -18 0 -29 16 -21 30 9 15 22 12 29 -6z m-1579 -14 c0 -9 -12 -16 -30
-18 -16 -2 -35 -8 -42 -13 -13 -12 -28 5 -18 22 18 28 90 36 90 9z m355 0 c0
-5 -4 -10 -10 -10 -5 0 -10 5 -10 10 0 6 5 10 10 10 6 0 10 -4 10 -10z m1382
-72 c-9 -26 -9 -41 2 -73 13 -35 12 -43 -2 -67 -18 -32 -37 -36 -46 -11 -9 23
4 185 17 201 8 11 13 10 26 -2 12 -13 13 -21 3 -48z m-1294 29 c8 -6 12 -6 12
2 0 6 5 11 10 11 13 0 13 -97 0 -105 -13 -8 -76 30 -84 51 -3 9 -6 26 -6 38 0
20 4 22 28 18 15 -2 33 -9 40 -15z m1062 12 c0 -7 -16 -36 -35 -65 -19 -29
-35 -57 -35 -63 0 -14 -17 -14 -25 -1 -8 13 17 70 49 108 28 33 46 41 46 21z
m-1215 -38 c-7 -31 -25 -43 -25 -17 0 8 -3 21 -6 29 -3 10 1 17 13 19 25 6 26
4 18 -31z m1345 -56 c6 -19 9 -49 5 -65 -5 -23 0 -41 20 -75 36 -63 22 -74
-31 -25 -38 35 -49 40 -92 40 -50 0 -84 17 -102 51 -11 19 -10 19 26 4 20 -8
45 -15 55 -15 23 0 55 34 64 68 7 29 23 52 35 52 5 0 14 -16 20 -35z m-1170
-45 c0 -5 -4 -10 -10 -10 -5 0 -10 5 -10 10 0 6 5 10 10 10 6 0 10 -4 10 -10z
m193 -107 c-2 -27 -14 -104 -25 -173 -11 -69 -24 -149 -29 -178 -11 -74 -19
-76 -21 -6 -3 105 4 179 18 195 17 18 18 45 4 54 -8 5 -8 101 -1 143 1 2 10 0
21 -3 14 -5 20 -2 20 10 0 9 4 14 9 11 5 -3 7 -27 4 -53z m1037 -83 c0 -5 -2
-10 -4 -10 -3 0 -8 5 -11 10 -3 6 -1 10 4 10 6 0 11 -4 11 -10z m-40 -16 c0
-8 -15 -29 -32 -45 -32 -29 -34 -30 -108 -23 -77 7 -129 29 -111 47 6 6 22 5
46 -3 30 -10 45 -9 88 5 29 9 59 21 67 26 24 14 50 10 50 -7z m-1688 -19 c6
-14 15 -25 20 -25 4 0 8 -4 8 -10 0 -17 -36 -11 -54 9 -16 18 -13 51 5 51 5 0
15 -11 21 -25z m-42 -111 c0 -8 -7 -14 -15 -14 -10 0 -15 10 -15 26 0 22 2 25
15 14 8 -7 15 -19 15 -26z m1783 -46 c9 -11 17 -31 17 -44 0 -12 5 -26 10 -29
12 -7 44 -70 70 -139 20 -50 17 -70 -14 -96 -20 -16 -20 -30 -2 -30 18 0 22
-6 31 -48 l7 -33 -40 7 c-31 5 -54 20 -106 70 -42 41 -63 70 -60 79 9 22 -29
19 -76 -5 -53 -27 -61 -25 -88 14 -20 29 -22 38 -12 56 9 17 8 25 -4 39 -26
28 -20 92 12 134 38 50 55 56 152 50 69 -4 88 -9 103 -25z m-2275 -78 c40 -10
77 -22 83 -26 6 -3 8 -23 5 -45 -5 -36 -1 -46 40 -98 l46 -59 -23 -31 c-16
-22 -24 -50 -28 -98 l-6 -68 -44 -3 -44 -3 7 32 c6 33 -6 59 -29 59 -7 0 -27
-13 -44 -29 -26 -24 -31 -37 -31 -74 0 -25 4 -57 10 -71 l9 -25 -36 25 c-20
13 -40 24 -44 24 -5 0 -9 17 -9 38 0 51 -11 66 -34 49 -17 -12 -17 -14 1 -45
13 -23 15 -36 8 -48 -20 -32 -30 -19 -39 50 l-10 69 37 31 c40 33 49 53 18 36
-11 -5 -24 -10 -30 -10 -14 0 -14 51 -1 82 5 13 14 42 20 66 7 27 16 42 26 42
10 0 14 6 11 14 -3 8 -2 29 3 48 5 18 12 45 15 61 6 32 15 33 113 7z m542
-236 c0 -9 -5 -14 -12 -12 -18 6 -21 28 -4 28 9 0 16 -7 16 -16z m1649 -31
c49 -57 51 -88 6 -88 -26 0 -34 7 -58 54 -47 91 -15 111 52 34z m116 -420 c0
-63 -20 -107 -36 -81 -12 18 -11 91 1 123 17 45 35 24 35 -42z m16 -195 c1
-13 1 -26 0 -30 -4 -29 -9 -137 -10 -206 -1 -66 -4 -84 -17 -89 -9 -3 -19 -1
-23 5 -9 15 -7 315 2 330 14 21 47 14 48 -10z m1299 -137 c0 -10 -7 -24 -15
-31 -8 -7 -15 -24 -16 -39 -1 -31 -69 -96 -69 -66 0 10 -8 24 -17 31 -17 12
-17 13 2 20 21 7 75 60 75 73 0 9 22 31 32 31 4 0 8 -8 8 -19z m35 -175 c19
-19 23 -32 19 -54 -5 -23 -1 -33 16 -45 12 -9 17 -18 11 -21 -6 -4 -3 -19 10
-40 20 -35 34 -146 18 -146 -5 0 -14 12 -21 28 -6 15 -17 41 -24 59 -8 17 -14
40 -14 51 0 11 -13 52 -30 90 -43 102 -37 130 15 78z m-3075 -953 c75 -20 93
-38 115 -106 16 -52 16 -58 0 -108 -11 -33 -35 -71 -61 -100 -24 -25 -44 -51
-44 -57 0 -6 18 -24 39 -42 79 -61 80 -66 83 -338 2 -133 0 -242 -3 -242 -9 0
-33 32 -46 60 -17 38 -29 149 -32 305 -3 153 -9 175 -62 219 -28 24 -38 27
-98 24 l-66 -3 -3 -169 c-2 -144 0 -171 14 -187 9 -10 13 -22 10 -27 -5 -9
-115 -7 -124 3 -2 2 3 13 11 25 21 31 13 706 -9 731 -8 8 -14 19 -14 22 0 15
230 7 290 -10z m506 -29 c6 -21 19 -66 29 -99 9 -33 30 -105 47 -160 17 -55
36 -120 43 -145 48 -163 98 -310 111 -320 11 -10 19 -9 39 4 l25 16 0 344 c0
328 -1 344 -20 369 -11 14 -20 28 -20 31 0 3 43 6 95 6 57 0 95 -4 95 -10 0
-5 -9 -10 -19 -10 -50 0 -51 -2 -51 -171 l0 -159 25 -12 c14 -6 25 -15 25 -20
0 -5 -11 -13 -25 -18 -24 -9 -25 -13 -27 -112 -3 -169 3 -242 18 -251 26 -15
15 -34 -23 -41 -51 -8 -253 -8 -253 1 0 4 5 20 11 37 8 26 5 48 -18 126 l-28
95 -125 0 -125 0 -29 -98 c-29 -95 -29 -98 -13 -127 18 -29 17 -29 -5 -34 -65
-12 -92 2 -65 32 17 19 25 41 92 262 26 85 63 205 81 265 19 61 40 128 46 150
28 106 43 117 64 49z m583 18 c51 -25 72 -60 78 -130 5 -55 2 -69 -25 -124
-18 -38 -42 -70 -59 -79 -37 -22 -113 -35 -113 -20 0 7 8 14 18 18 38 13 85
58 103 97 21 46 25 132 8 168 -13 29 -82 78 -109 78 -11 0 -20 5 -20 11 0 14
74 2 119 -19z m-1987 6 c-17 -8 -26 -8 -34 0 -9 9 -4 12 23 11 32 0 33 -1 11
-11z m144 -3 c19 -14 19 -14 -1 -14 -11 0 -29 6 -39 14 -20 15 -20 15 0 15 11
0 29 -7 40 -15z m2234 -4 c129 0 130 0 130 -11 0 -6 -26 -10 -59 -10 -90 0
-89 1 -92 -207 -1 -98 -1 -201 0 -230 1 -28 -3 -54 -9 -58 -5 -3 -10 -5 -10
-3 0 2 -3 111 -7 243 -4 157 -10 243 -17 248 -16 12 -164 1 -182 -14 -13 -10
-17 -10 -25 2 -9 15 -12 43 -5 50 3 3 45 1 93 -3 48 -4 131 -7 183 -7z m193
-12 c-6 -6 -17 -8 -24 -3 -9 5 -8 9 7 14 23 9 31 3 17 -11z m-226 -561 c-3 -7
-5 -2 -5 12 0 14 2 19 5 13 2 -7 2 -19 0 -25z m3 -88 l-8 -35 -1 45 c-1 27 3
40 8 35 6 -6 6 -25 1 -45z m-2133 -732 c-2 -13 -4 -5 -4 17 -1 22 1 32 4 23 2
-10 2 -28 0 -40z m-317 -916 c0 -7 -4 -10 -10 -7 -5 3 -10 16 -10 28 0 18 2
19 10 7 5 -8 10 -21 10 -28z m1280 1 c0 -7 -4 -13 -10 -13 -5 0 -10 12 -10 28
0 21 2 24 10 12 5 -8 10 -21 10 -27z m-2203 5 c-3 -8 -6 -5 -6 6 -1 11 2 17 5
13 3 -3 4 -12 1 -19z m2283 -400 c0 -16 -3 -19 -11 -11 -6 6 -8 16 -5 22 11
17 16 13 16 -11z m-1277 -3 c4 -8 2 -17 -3 -20 -6 -4 -10 -4 -10 -1 0 2 -3 11
-6 20 -3 9 -2 16 4 16 5 0 12 -7 15 -15z m-1766 -127 c-3 -8 -6 -5 -6 6 -1 11
2 17 5 13 3 -3 4 -12 1 -19z m3790 -10 c-3 -7 -5 -2 -5 12 0 14 2 19 5 13 2
-7 2 -19 0 -25z m123 -18 c0 -27 -4 -50 -10 -50 -11 0 -14 83 -3 93 12 12 13
8 13 -43z m1240 0 c0 -27 -4 -50 -10 -50 -11 0 -14 83 -3 93 12 12 13 8 13
-43z m1290 18 c0 -5 -4 -8 -10 -8 -5 0 -10 10 -10 23 0 18 2 19 10 7 5 -8 10
-18 10 -22z m-2563 -215 c-3 -10 -5 -2 -5 17 0 19 2 27 5 18 2 -10 2 -26 0
-35z m1240 0 c-3 -10 -5 -2 -5 17 0 19 2 27 5 18 2 -10 2 -26 0 -35z m-5027
-188 c0 -5 -5 -3 -10 5 -5 8 -10 20 -10 25 0 6 5 3 10 -5 5 -8 10 -19 10 -25z
m1146 -131 c-3 -9 -6 -31 -6 -50 0 -19 -4 -34 -10 -34 -11 0 -14 59 -4 84 3 9
11 16 16 16 6 0 7 -7 4 -16z m781 -416 c-3 -8 -6 -5 -6 6 -1 11 2 17 5 13 3
-3 4 -12 1 -19z m17 -140 c-1 -18 -3 -37 -4 -43 0 -5 -4 -4 -8 3 -10 15 -3 72
8 72 4 0 6 -15 4 -32z"/>
<path d="M5136 15024 c-3 -9 -6 -29 -6 -46 0 -25 3 -29 23 -26 22 3 24 10 12
66 -6 26 -20 29 -29 6z"/>
<path d="M4870 15015 c-10 -12 -10 -15 4 -15 9 0 16 7 16 15 0 8 -2 15 -4 15
-2 0 -9 -7 -16 -15z"/>
<path d="M5050 14961 c0 -12 5 -21 10 -21 6 0 10 6 10 14 0 8 -4 18 -10 21 -5
3 -10 -3 -10 -14z"/>
<path d="M5150 14740 c0 -5 5 -10 11 -10 5 0 7 5 4 10 -3 6 -8 10 -11 10 -2 0
-4 -4 -4 -10z"/>
<path d="M5120 14651 c0 -11 31 -24 39 -16 3 3 -1 10 -9 15 -19 12 -30 12 -30
1z"/>
<path d="M5105 14612 c-11 -2 -26 -9 -34 -15 -24 -20 -137 -78 -356 -182 -38
-18 -131 -62 -205 -98 -74 -36 -166 -79 -205 -97 -73 -32 -79 -36 -257 -119
-59 -28 -110 -51 -113 -51 -5 0 -148 -65 -188 -85 -16 -8 -32 -15 -37 -15 -5
0 -48 -18 -97 -41 -48 -22 -97 -44 -108 -49 -11 -4 -55 -24 -99 -44 -43 -20
-82 -36 -86 -36 -5 0 -42 -16 -83 -35 -41 -19 -79 -35 -83 -35 -15 0 -122 -46
-137 -58 -8 -7 -33 -10 -61 -8 -25 3 -46 1 -46 -4 0 -5 -21 -8 -47 -7 -47 2
-48 3 -48 36 0 47 -20 50 -40 7 -19 -39 -35 -47 -35 -17 0 28 -20 37 -27 12
-7 -28 -43 -28 -43 -1 0 30 -28 36 -60 11 -35 -25 -44 -27 -36 -5 4 9 1 23 -5
30 -15 18 -30 18 -23 1 3 -8 -6 -19 -22 -26 -24 -11 -26 -10 -21 9 6 22 -3 25
-31 11 -52 -26 -134 -61 -142 -61 -5 0 -37 -13 -72 -29 -35 -16 -93 -43 -130
-59 -38 -17 -68 -35 -68 -39 0 -10 906 -9 945 2 27 7 97 37 199 86 22 11 43
19 47 19 4 0 72 31 152 69 79 38 155 72 168 76 13 4 40 16 59 26 19 11 38 19
41 19 7 0 239 108 292 135 16 8 33 15 39 15 5 0 53 21 106 46 54 25 111 52
127 59 17 8 69 32 118 55 48 22 91 40 96 40 4 0 35 13 67 30 32 16 67 30 77
30 10 0 28 9 40 20 12 12 33 23 47 26 14 3 35 10 47 16 12 6 33 11 47 11 13 0
27 5 29 11 3 7 44 32 91 56 67 34 89 41 98 32 17 -17 33 -15 18 3 -20 24 10
28 74 10 55 -16 57 -16 74 4 15 19 21 20 55 11 21 -6 37 -17 37 -26 0 -10 7
-13 24 -8 19 4 27 0 36 -16 8 -15 18 -20 32 -16 13 3 31 -3 46 -14 13 -11 39
-22 58 -26 19 -3 37 -10 40 -15 3 -5 14 -9 25 -9 11 0 37 -9 57 -20 44 -24
179 -85 242 -110 25 -10 94 -41 153 -69 59 -28 110 -51 112 -51 2 0 48 -20
101 -45 53 -25 97 -45 99 -45 5 0 325 -147 730 -335 286 -133 339 -154 396
-160 101 -11 103 14 4 53 -28 11 -112 50 -188 86 -77 36 -140 66 -142 66 -9 0
-301 146 -370 185 -44 25 -98 54 -120 64 -22 10 -107 51 -190 91 -82 39 -193
92 -245 117 -52 25 -198 96 -325 158 -126 62 -270 132 -320 155 -198 92 -225
105 -225 117 0 6 -8 9 -18 6 -16 -4 -91 29 -126 55 -6 5 -20 6 -31 4z"/>
<path d="M5161 14386 c-15 -18 -66 -22 -76 -6 -12 19 -22 10 -17 -15 3 -18 0
-25 -12 -25 -9 0 -33 -9 -53 -20 -21 -11 -45 -20 -54 -20 -9 0 -28 -9 -43 -21
-16 -13 -33 -18 -43 -14 -10 3 -14 3 -11 -1 8 -8 -34 -44 -51 -44 -6 0 -66
-28 -134 -63 -67 -34 -138 -69 -157 -77 -35 -14 -369 -172 -402 -190 -10 -6
-23 -10 -30 -10 -7 0 -41 -18 -76 -40 -34 -22 -68 -40 -74 -40 -5 0 -44 -16
-85 -35 -41 -19 -77 -35 -81 -35 -3 0 -42 -18 -86 -40 -45 -21 -144 -65 -221
-96 -154 -63 -164 -69 -148 -85 13 -13 80 5 173 46 30 13 74 29 96 35 29 7 41
15 40 27 -1 10 14 21 44 31 25 8 64 26 87 39 23 12 48 23 55 23 8 0 49 18 93
41 88 45 261 110 341 129 28 6 96 10 150 8 102 -3 627 -1 769 3 44 1 109 2
145 1 372 -9 570 -10 570 -3 0 18 -27 29 -65 25 -113 -11 -153 -12 -183 -2
-24 7 -37 7 -47 -2 -11 -9 -19 -9 -28 -1 -10 7 -17 7 -24 0 -16 -16 -98 2 -98
21 0 18 51 21 300 15 131 -3 209 -15 228 -35 10 -10 7 -11 -13 -7 -30 7 -56
-6 -45 -23 5 -8 21 -10 50 -5 50 7 185 -25 298 -70 10 -4 17 -3 17 4 0 6 -9
11 -19 11 -11 0 -22 4 -26 9 -8 13 -173 91 -193 91 -9 0 -25 9 -36 19 -21 20
-320 175 -546 284 -30 14 -66 33 -80 40 -14 8 -47 25 -74 38 -80 39 -84 42
-98 72 -12 26 -15 27 -27 13z m-407 -442 c24 -9 9 -24 -25 -24 -29 0 -40 14
-16 23 18 8 23 8 41 1z m584 -3 c17 0 32 -5 32 -11 0 -5 -65 -9 -160 -9 -102
0 -160 4 -160 10 0 6 4 8 8 5 4 -2 14 -1 21 3 11 7 124 8 259 2z m-408 -9 c0
-14 -11 -21 -26 -15 -8 3 -11 9 -8 14 7 11 34 12 34 1z m62 -4 c-9 -9 -15 -9
-24 0 -9 9 -7 12 12 12 19 0 21 -3 12 -12z"/>
<path d="M4953 14373 c-20 -7 -15 -23 7 -23 11 0 20 4 20 9 0 13 -12 19 -27
14z"/>
<path d="M4850 14320 c0 -5 5 -10 10 -10 6 0 10 5 10 10 0 6 -4 10 -10 10 -5
0 -10 -4 -10 -10z"/>
<path d="M2930 14296 c0 -9 30 -14 35 -6 4 6 -3 10 -14 10 -12 0 -21 -2 -21
-4z"/>
<path d="M2580 13740 c0 -5 4 -10 9 -10 6 0 13 5 16 10 3 6 -1 10 -9 10 -9 0
-16 -4 -16 -10z"/>
<path d="M6380 13743 c0 -10 50 -33 69 -33 9 1 -2 10 -23 20 -45 22 -46 23
-46 13z"/>
<path d="M7784 13606 c6 -25 -9 -46 -17 -24 -3 10 -7 10 -20 -1 -23 -18 -21
-28 6 -37 12 -4 39 -23 59 -43 21 -20 48 -39 60 -43 35 -9 288 -9 288 1 0 5
-24 18 -52 30 -29 12 -78 35 -108 51 -30 15 -81 37 -112 48 -48 17 -58 18 -58
6 0 -8 -4 -14 -10 -14 -5 0 -7 7 -3 16 3 9 0 20 -8 25 -24 15 -31 10 -25 -15z"/>
<path d="M3635 13600 c-4 -6 13 -10 44 -10 28 0 51 5 51 10 0 6 -20 10 -44 10
-25 0 -48 -4 -51 -10z"/>
<path d="M7560 13600 c0 -5 5 -10 11 -10 5 0 7 5 4 10 -3 6 -8 10 -11 10 -2 0
-4 -4 -4 -10z"/>
<path d="M6712 13568 c3 -7 19 -15 37 -19 18 -4 38 -12 44 -18 13 -13 37 -15
37 -3 0 8 -96 52 -114 52 -4 0 -6 -6 -4 -12z"/>
<path d="M4954 13279 c-6 -10 263 -16 396 -8 l105 5 -90 4 c-191 6 -406 6
-411 -1z"/>
<path d="M5810 13280 c-22 -4 -29 -9 -20 -13 8 -3 272 -8 585 -11 314 -4 726
-9 918 -13 257 -4 347 -3 347 6 0 6 -18 12 -42 13 -163 6 -295 8 -973 13 -418
3 -764 7 -770 8 -5 2 -26 0 -45 -3z"/>
<path d="M5482 13275 c10 -10 276 -16 283 -5 4 7 -41 10 -141 10 -81 0 -145
-2 -142 -5z"/>
<path d="M7670 13250 c0 -6 30 -10 70 -10 40 0 70 4 70 10 0 6 -30 10 -70 10
-40 0 -70 -4 -70 -10z"/>
<path d="M2277 10333 c-12 -12 -7 -31 9 -37 24 -9 35 3 24 25 -11 20 -22 24
-33 12z"/>
<path d="M1967 10023 c-4 -3 -7 -12 -7 -20 0 -15 26 -18 34 -4 7 11 -18 33
-27 24z"/>
<path d="M8360 9481 c0 -6 5 -13 10 -16 6 -3 10 1 10 9 0 9 -4 16 -10 16 -5 0
-10 -4 -10 -9z"/>
<path d="M8221 9414 c0 -11 3 -14 6 -6 3 7 2 16 -1 19 -3 4 -6 -2 -5 -13z"/>
<path d="M8106 9381 c-7 -11 22 -23 35 -15 5 3 9 9 9 15 0 12 -37 12 -44 0z"/>
<path d="M8605 9321 c-3 -5 -1 -12 5 -16 5 -3 10 1 10 9 0 18 -6 21 -15 7z"/>
<path d="M7980 9304 c0 -8 5 -12 10 -9 6 3 10 10 10 16 0 5 -4 9 -10 9 -5 0
-10 -7 -10 -16z"/>
<path d="M8540 9300 c0 -5 5 -10 10 -10 6 0 10 5 10 10 0 6 -4 10 -10 10 -5 0
-10 -4 -10 -10z"/>
<path d="M8585 9220 c-3 -5 -1 -10 4 -10 6 0 11 5 11 10 0 6 -2 10 -4 10 -3 0
-8 -4 -11 -10z"/>
<path d="M8153 8723 c-18 -7 -16 -23 2 -23 8 0 15 7 15 15 0 8 -1 15 -2 14 -2
0 -9 -3 -15 -6z"/>
<path d="M8000 8645 c0 -9 5 -15 11 -13 6 2 11 8 11 13 0 5 -5 11 -11 13 -6 2
-11 -4 -11 -13z"/>
<path d="M1955 9414 c-11 -18 -14 -29 -7 -36 14 -14 32 -1 32 23 0 10 5 19 10
19 6 0 10 -11 10 -25 0 -20 5 -25 24 -25 32 0 63 29 45 41 -8 4 -20 3 -27 -4
-11 -9 -18 -7 -32 11 -23 29 -34 28 -55 -4z"/>
<path d="M2140 9395 c-10 -12 -10 -15 4 -15 9 0 16 7 16 15 0 8 -2 15 -4 15
-2 0 -9 -7 -16 -15z"/>
<path d="M2266 9282 c-3 -5 6 -12 20 -15 15 -3 23 0 21 7 -5 14 -33 20 -41 8z"/>
<path d="M2190 9270 c0 -5 5 -10 10 -10 6 0 10 5 10 10 0 6 -4 10 -10 10 -5 0
-10 -4 -10 -10z"/>
<path d="M2320 9270 c0 -5 4 -10 9 -10 6 0 13 5 16 10 3 6 -1 10 -9 10 -9 0
-16 -4 -16 -10z"/>
<path d="M1913 9203 c-7 -2 -13 -8 -13 -13 0 -11 39 -20 57 -13 14 5 13 8 -3
20 -19 14 -22 14 -41 6z"/>
<path d="M1988 9179 c-15 -8 -16 -13 -5 -29 14 -23 33 -26 40 -6 9 23 -15 47
-35 35z"/>
<path d="M2056 9152 c-3 -5 6 -12 19 -15 14 -2 28 0 31 4 3 5 1 9 -5 9 -5 0
-16 3 -24 6 -8 3 -18 1 -21 -4z"/>
<path d="M2260 9110 c0 -5 5 -10 10 -10 6 0 10 5 10 10 0 6 -4 10 -10 10 -5 0
-10 -4 -10 -10z"/>
<path d="M2223 9043 c-13 -5 -18 -35 -7 -46 9 -9 54 23 54 39 0 14 -23 17 -47
7z"/>
<path d="M5370 9065 c-16 -20 -12 -24 31 -27 29 -3 34 0 37 20 3 18 -1 22 -26
22 -16 0 -35 -7 -42 -15z"/>
<path d="M5478 9033 c-25 -6 -31 -39 -13 -66 8 -13 12 -26 9 -30 -4 -3 6 -9
20 -13 34 -8 38 -4 43 50 3 37 0 47 -16 56 -11 5 -21 9 -23 9 -2 -1 -11 -3
-20 -6z"/>
<path d="M5120 7979 c0 -20 21 -49 35 -49 23 0 28 20 9 41 -19 21 -44 26 -44
8z"/>
<path d="M4844 7736 c-4 -10 -2 -58 4 -106 7 -48 12 -109 12 -136 0 -35 3 -45
11 -37 6 6 13 64 16 129 5 110 4 121 -15 144 -19 23 -21 24 -28 6z"/>
<path d="M8135 8190 c3 -5 8 -10 11 -10 2 0 4 5 4 10 0 6 -5 10 -11 10 -5 0
-7 -4 -4 -10z"/>
<path d="M8150 8145 c0 -8 5 -15 10 -15 6 0 10 7 10 15 0 8 -4 15 -10 15 -5 0
-10 -7 -10 -15z"/>
<path d="M8095 8100 c-3 -5 1 -10 9 -10 9 0 16 5 16 10 0 6 -4 10 -9 10 -6 0
-13 -4 -16 -10z"/>
<path d="M2265 7947 c-8 -32 -2 -42 20 -34 19 8 19 18 1 43 -14 18 -15 18 -21
-9z"/>
<path d="M2100 7640 c0 -5 5 -10 11 -10 5 0 7 5 4 10 -3 6 -8 10 -11 10 -2 0
-4 -4 -4 -10z"/>
<path d="M2150 7630 c0 -5 7 -10 15 -10 8 0 15 5 15 10 0 6 -7 10 -15 10 -8 0
-15 -4 -15 -10z"/>
<path d="M5814 7700 c-30 -12 -37 -26 -24 -50 14 -25 42 -26 64 -1 34 38 8 71
-40 51z"/>
<path d="M5700 7344 c0 -8 5 -12 10 -9 6 3 10 10 10 16 0 5 -4 9 -10 9 -5 0
-10 -7 -10 -16z"/>
<path d="M6541 6657 c-6 -8 -8 -17 -4 -20 17 -18 93 1 93 23 0 15 -76 12 -89
-3z"/>
<path d="M6700 6520 c0 -5 15 -10 34 -10 19 0 38 5 41 10 4 6 -10 10 -34 10
-23 0 -41 -4 -41 -10z"/>
<path d="M4380 6569 c0 -5 5 -7 10 -4 6 3 10 8 10 11 0 2 -4 4 -10 4 -5 0 -10
-5 -10 -11z"/>
<path d="M4904 4517 c-2 -7 -3 -87 -2 -177 l3 -165 55 -3 c72 -5 110 16 144
78 21 39 26 61 26 118 0 61 -3 74 -26 102 -15 17 -39 37 -55 45 -35 19 -138
20 -145 2z"/>
<path d="M5518 4348 c-9 -24 -23 -70 -33 -103 -9 -33 -21 -72 -27 -86 -5 -15
-8 -40 -6 -55 3 -28 5 -29 73 -36 39 -5 81 -5 94 -2 27 6 26 17 -9 129 -12 39
-28 92 -35 119 -8 27 -20 56 -28 63 -12 12 -16 8 -29 -29z"/>
<path d="M4410 15380 c0 -25 18 -25 50 0 l25 20 -37 0 c-31 0 -38 -4 -38 -20z"/>
<path d="M5850 15385 c7 -8 16 -15 21 -15 5 0 9 7 9 15 0 9 -9 15 -21 15 -18
0 -19 -2 -9 -15z"/>
<path d="M5910 15390 c0 -5 5 -10 10 -10 6 0 10 5 10 10 0 6 -4 10 -10 10 -5
0 -10 -4 -10 -10z"/>
<path d="M5958 15388 c9 -9 15 -9 24 0 9 9 7 12 -12 12 -19 0 -21 -3 -12 -12z"/>
<path d="M6025 15390 c4 -6 11 -8 16 -5 14 9 11 15 -7 15 -8 0 -12 -5 -9 -10z"/>
<path d="M6195 15390 c4 -6 11 -8 16 -5 14 9 11 15 -7 15 -8 0 -12 -5 -9 -10z"/>
<path d="M6240 15390 c0 -11 10 -13 60 -10 66 4 68 19 3 20 -36 0 -63 -4 -63
-10z"/>
<path d="M6362 15341 c-11 -7 -11 -9 1 -14 16 -6 27 0 27 15 0 10 -11 10 -28
-1z"/>
</g>
</svg>
