<?xml version="1.0" standalone="no"?>
<!DOCTYPE svg PUBLIC "-//W3C//DTD SVG 20010904//EN"
 "http://www.w3.org/TR/2001/REC-SVG-20010904/DTD/svg10.dtd">
<svg version="1.0" xmlns="http://www.w3.org/2000/svg"
 width="1080.000000pt" height="1540.000000pt" viewBox="0 0 1080.000000 1540.000000"
 preserveAspectRatio="xMidYMid meet">

<g transform="translate(0.000000,1540.000000) scale(0.100000,-0.100000)"
fill="#000000" stroke="none">
<path d="M1369 15349 c3 -44 1 -51 -18 -56 -14 -3 -21 -13 -21 -29 0 -13 -11
-34 -25 -48 -24 -24 -32 -55 -18 -69 13 -13 53 36 53 65 0 29 40 65 60 53 16
-10 12 -56 -7 -77 -12 -14 -14 -21 -5 -30 8 -8 14 -4 22 16 5 15 10 31 10 36
0 5 8 11 18 15 26 8 47 78 31 106 -11 21 -11 20 -30 -10 -25 -42 -39 -31 -39
30 0 40 -3 49 -17 49 -15 0 -17 -8 -14 -51z"/>
<path d="M1567 15383 c-3 -10 -8 -30 -11 -45 -4 -15 -17 -35 -31 -44 -17 -11
-25 -25 -25 -45 0 -17 -6 -32 -15 -35 -11 -4 -15 -21 -15 -59 0 -44 3 -54 20
-58 26 -7 33 7 26 48 -5 27 -2 38 16 54 12 12 30 21 40 21 21 0 61 -72 56
-103 -2 -18 -10 -22 -41 -22 -36 0 -38 -2 -44 -37 -4 -26 -15 -45 -37 -62 -40
-30 -56 -22 -63 34 l-6 43 -18 -24 c-15 -20 -20 -22 -44 -11 -14 7 -27 12 -29
12 -2 0 -6 -18 -10 -39 -6 -39 -7 -40 -41 -34 -34 5 -35 4 -35 -25 0 -30 -1
-30 -56 -34 -61 -3 -67 -1 -77 25 -6 17 -42 23 -64 9 -6 -4 -9 -19 -6 -33 4
-23 10 -26 41 -25 29 1 39 -4 47 -22 7 -16 22 -24 47 -29 31 -4 38 -10 38 -28
0 -33 -38 -76 -63 -73 -15 2 -23 -3 -25 -16 -5 -23 23 -46 55 -46 13 0 26 -6
29 -14 9 -23 -15 -56 -39 -56 -29 0 -67 27 -67 46 0 10 -6 13 -17 10 -10 -3
-23 -2 -29 2 -16 11 -34 48 -34 72 0 23 -35 41 -90 44 -19 1 -41 6 -49 10 -33
21 -42 -55 -9 -78 21 -15 21 -17 6 -32 -26 -26 -69 -21 -94 12 -19 23 -25 26
-38 15 -14 -12 -14 -16 -1 -42 20 -39 19 -63 -6 -85 -21 -19 -21 -18 -46 10
-13 16 -23 37 -20 46 3 12 -4 22 -18 28 -13 6 -26 20 -30 31 -12 39 -27 23
-20 -20 6 -32 19 -53 56 -89 51 -49 63 -76 30 -65 -34 10 -46 -3 -46 -50 1
-24 4 -47 8 -51 12 -12 8 -43 -9 -75 -14 -28 -17 -29 -37 -16 -26 17 -34 37
-14 37 22 0 41 26 26 36 -8 4 -18 -1 -27 -14 -18 -27 -26 -27 -61 -1 -32 23
-51 19 -51 -12 0 -12 7 -19 18 -19 22 0 52 -30 52 -52 0 -17 -41 -48 -64 -48
-27 0 -26 -32 2 -79 18 -29 37 -47 51 -49 26 -4 26 -39 -1 -56 -14 -8 -23 -5
-45 16 -61 56 -98 55 -98 -4 0 -29 -4 -33 -28 -36 -32 -4 -42 -21 -33 -57 4
-15 14 -25 25 -25 10 0 26 -9 35 -19 17 -19 17 -20 -5 -31 -19 -11 -25 -10
-36 6 -7 10 -13 21 -13 26 0 4 -15 8 -34 8 -30 0 -33 3 -29 24 4 20 -1 27 -30
41 -63 30 -98 -1 -60 -54 16 -23 15 -25 -10 -43 -33 -24 -34 -44 -3 -50 18 -4
28 1 37 19 14 26 44 31 53 7 9 -23 8 -24 -19 -34 -15 -6 -25 -17 -25 -29 0
-11 -4 -23 -10 -26 -5 -3 -10 -15 -10 -26 0 -22 -28 -26 -36 -4 -9 21 -25 19
-64 -10 -36 -27 -69 -32 -87 -14 -24 24 -33 -3 -33 -99 l0 -96 33 32 c32 31
47 33 47 7 0 -21 -42 -57 -61 -52 -16 4 -19 -1 -19 -29 0 -27 4 -34 20 -34 11
0 20 -4 20 -10 0 -5 -9 -10 -20 -10 -25 0 -28 -45 -4 -72 16 -16 16 -18 0 -24
-9 -3 -16 -17 -16 -30 0 -27 3 -28 31 -13 16 8 26 7 45 -6 32 -21 31 -58 -1
-79 -16 -11 -25 -26 -25 -43 0 -14 -7 -31 -17 -38 -9 -7 -13 -17 -9 -23 8 -14
46 -16 46 -3 0 5 14 14 32 20 30 11 31 12 13 25 -18 13 -18 16 -5 41 l14 27 8
-27 c11 -42 68 -76 68 -41 0 16 27 29 41 20 5 -3 9 -10 9 -16 0 -5 11 -23 25
-40 23 -28 26 -47 16 -120 -1 -4 -14 -14 -30 -22 -33 -17 -91 -73 -91 -87 0
-5 6 -18 13 -30 10 -17 9 -22 -7 -34 -11 -8 -30 -12 -46 -8 -28 5 -56 -17 -32
-25 17 -5 15 -28 -4 -57 -22 -34 -9 -51 23 -30 18 12 28 14 36 6 17 -17 25
-13 32 19 4 16 20 39 36 51 16 11 29 29 29 40 0 27 107 75 133 59 23 -14 35
-6 45 33 8 31 9 32 70 33 49 1 65 -3 79 -18 26 -29 6 -53 -46 -54 -30 0 -46
-6 -56 -21 -13 -19 -13 -21 5 -26 11 -3 20 -13 20 -23 0 -17 1 -17 14 1 9 13
20 16 37 12 18 -5 29 0 45 20 26 33 45 24 77 -37 19 -37 29 -45 52 -45 l28 0
2 75 c4 124 18 141 80 100 31 -21 65 -26 65 -11 0 5 -16 19 -35 31 -33 20 -46
40 -27 40 5 0 31 -7 59 -15 36 -11 53 -22 61 -40 7 -14 25 -33 41 -43 16 -9
37 -29 46 -44 9 -15 23 -28 32 -28 12 0 14 11 12 65 -4 67 11 91 22 36 4 -17
11 -37 17 -44 6 -7 7 -18 2 -26 -4 -8 -4 -27 2 -43 8 -23 14 -27 31 -22 17 5
19 3 14 -15 -4 -17 -1 -21 17 -21 12 0 31 -7 42 -15 10 -8 28 -15 39 -15 25 0
77 -53 70 -72 -2 -7 4 -23 15 -36 14 -18 23 -21 37 -14 46 24 57 -14 16 -52
-21 -20 -25 -28 -16 -37 9 -9 19 -9 42 1 17 7 40 10 50 7 16 -4 19 0 18 22 -2
24 1 26 38 26 32 0 42 -5 50 -22 5 -13 16 -23 24 -23 7 0 20 -8 27 -17 13 -17
15 -17 28 1 19 23 30 16 57 -40 15 -29 28 -43 37 -39 7 3 16 5 18 5 10 0 2 24
-12 34 -12 10 -4 12 42 13 47 1 61 6 75 24 12 17 22 20 43 15 29 -7 33 -20 11
-42 -21 -21 -19 -27 16 -53 28 -21 33 -22 66 -8 32 12 41 12 84 -4 49 -19 49
-19 49 2 0 19 4 20 49 14 70 -10 91 4 91 60 0 24 4 46 10 50 5 3 7 12 4 20 -6
15 12 55 26 55 10 0 25 -39 21 -58 -1 -9 6 -12 21 -10 24 3 24 5 11 73 -5 27
-4 29 10 16 23 -19 50 -7 42 19 -5 17 -2 20 27 20 52 0 65 15 28 30 -17 7 -34
10 -37 6 -4 -3 -17 1 -30 9 -16 11 -35 14 -58 9 -31 -5 -35 -4 -35 15 0 23 11
26 40 11 30 -16 70 -2 70 25 0 12 9 32 20 45 27 31 25 49 -6 60 -34 13 -44 13
-44 -4 0 -19 -26 -40 -35 -26 -9 15 -25 12 -25 -4 0 -8 -12 -23 -27 -34 -28
-20 -28 -20 -68 0 -52 27 -51 24 -34 54 12 23 11 27 -6 40 -10 8 -40 17 -65
20 -63 8 -81 20 -58 38 21 16 13 26 -19 26 -28 0 -40 24 -23 45 18 22 8 60
-17 63 -15 2 -26 -5 -37 -25 l-14 -28 -11 28 c-6 15 -17 27 -24 27 -18 0 -47
32 -47 53 0 23 16 30 39 15 28 -17 40 -1 13 18 -29 20 -31 50 -2 32 15 -9 22
-10 31 -1 15 15 3 33 -22 33 -12 0 -19 7 -19 18 0 10 -7 28 -16 41 -20 28 -5
52 20 32 12 -10 21 -9 45 4 27 14 31 21 31 59 0 26 -6 48 -14 56 -18 14 -10
40 13 40 9 0 24 -9 34 -20 9 -11 24 -20 33 -20 9 0 23 -8 30 -17 13 -17 15
-17 28 0 9 12 24 17 42 15 23 -2 30 1 32 19 5 32 58 45 109 27 52 -18 63 -17
63 6 0 13 -7 20 -20 20 -11 0 -20 5 -20 10 0 13 -37 13 -45 0 -4 -6 -23 -7
-44 -4 -33 5 -39 3 -44 -15 -5 -22 -31 -27 -56 -12 -20 13 -4 31 29 31 30 0
44 27 34 67 -10 36 10 58 50 57 19 -1 42 -7 51 -14 12 -10 19 -9 39 3 23 15
24 15 30 -6 7 -28 20 -14 22 25 3 53 65 84 114 58 16 -8 22 -6 36 14 20 32 11
47 -28 43 -43 -3 -49 21 -8 30 19 3 35 13 37 24 3 10 11 20 18 23 17 6 55 -47
55 -77 0 -26 35 -65 48 -53 11 12 8 76 -4 76 -6 0 -16 12 -23 26 -13 29 -1 54
25 54 23 0 16 18 -13 34 -26 14 -29 13 -50 -12 l-22 -27 -1 27 c0 15 9 36 22
47 17 17 19 23 9 35 -7 8 -22 18 -33 22 -11 3 -17 12 -14 19 3 8 -2 19 -11 26
-11 10 -14 24 -9 56 5 36 2 44 -14 53 -11 6 -29 29 -41 51 -11 23 -23 39 -25
36 -12 -11 9 -97 27 -113 20 -18 24 -50 10 -73 -8 -13 -22 -7 -80 35 -1 2 -8
29 -15 61 -9 46 -15 58 -30 58 -10 0 -24 -8 -30 -18 -9 -14 -7 -20 6 -28 9 -5
24 -24 33 -41 15 -30 15 -34 -2 -45 -9 -7 -20 -13 -24 -13 -4 0 -10 -13 -14
-30 -4 -16 -11 -32 -16 -35 -5 -4 -9 -24 -9 -45 0 -21 -4 -42 -10 -45 -5 -3
-10 -26 -10 -51 0 -38 -4 -46 -25 -56 -27 -12 -30 -23 -15 -63 12 -32 25 -26
33 15 6 27 10 30 46 30 49 0 69 -20 53 -55 -12 -25 -36 -33 -47 -15 -9 15 -35
12 -35 -4 0 -22 -17 -28 -41 -16 -16 9 -24 8 -37 -3 -11 -10 -28 -13 -45 -10
-43 8 -97 -54 -97 -113 0 -18 -8 -26 -40 -35 -36 -11 -47 -9 -102 12 -53 21
-63 29 -70 57 -9 34 -41 45 -51 18 -4 -11 -16 -12 -53 -5 -26 5 -56 6 -67 3
-17 -5 -17 -7 -3 -23 9 -10 16 -21 16 -24 0 -12 -55 -8 -68 5 -19 19 -14 31
23 57 24 16 35 31 35 48 0 21 4 24 23 19 12 -3 29 -6 38 -6 9 0 19 -9 22 -20
6 -23 41 -27 54 -7 19 30 62 47 103 41 38 -6 40 -5 40 19 0 19 7 26 28 32 15
3 35 13 44 22 22 19 62 13 66 -11 3 -14 0 -17 -12 -13 -17 7 -76 -48 -76 -71
0 -7 -11 -17 -24 -22 -30 -11 -60 -54 -52 -75 4 -13 11 -12 41 6 24 14 44 19
61 15 17 -5 23 -3 19 4 -4 6 -1 17 5 25 7 8 10 27 7 43 -3 15 0 35 8 45 13 18
15 18 43 1 38 -22 62 -13 62 24 0 25 -5 30 -39 41 -21 6 -42 18 -45 27 -10 25
4 83 22 93 14 8 14 11 2 27 -12 13 -12 18 -2 21 19 7 14 38 -11 61 -27 25 -37
20 -37 -17 0 -34 -14 -56 -30 -46 -8 5 -19 -1 -30 -14 -15 -21 -20 -22 -59
-11 -59 16 -74 9 -66 -34 8 -41 -1 -48 -54 -40 -35 6 -41 10 -41 31 0 13 7 26
18 30 22 9 32 23 32 50 0 12 11 32 24 45 14 13 26 37 28 53 2 23 9 31 28 33
14 2 31 8 37 14 7 6 19 8 27 5 12 -5 13 -11 3 -36 -17 -45 1 -51 35 -11 27 33
30 34 43 17 8 -12 15 -14 20 -8 9 16 48 13 71 -3 11 -9 29 -12 42 -9 21 5 23
3 20 -28 -2 -23 -8 -33 -17 -31 -20 4 -51 -28 -51 -54 0 -32 16 -39 46 -19 13
9 29 13 34 10 6 -3 10 5 10 18 0 14 7 27 15 31 8 3 15 16 15 28 0 31 -57 119
-81 125 -24 7 -37 52 -18 64 8 5 22 7 32 5 18 -4 23 4 56 87 11 29 34 38 29
11 -4 -21 32 -45 39 -26 3 6 13 12 23 12 11 0 22 11 29 30 7 23 16 30 36 30
33 0 44 26 19 46 -13 10 -38 14 -78 12 -65 -3 -88 14 -42 32 14 5 28 20 32 35
6 26 37 35 49 14 4 -6 29 -9 58 -7 52 3 52 3 52 -27 0 -38 11 -55 36 -55 17 0
18 -3 9 -21 -7 -13 -19 -19 -33 -17 -18 3 -22 -3 -28 -36 -8 -47 8 -116 27
-116 20 0 36 -47 25 -69 -6 -10 -7 -40 -3 -66 l7 -49 22 27 c11 15 28 27 37
27 28 0 29 27 2 67 -28 40 -32 58 -16 68 5 3 18 -11 29 -32 12 -21 34 -54 51
-73 25 -29 32 -32 40 -20 5 8 10 22 10 30 1 24 38 62 57 58 10 -2 20 -14 23
-28 4 -14 14 -43 24 -64 10 -23 16 -53 13 -70 -2 -17 2 -44 10 -60 11 -21 13
-44 8 -81 -6 -49 -4 -54 21 -74 50 -39 58 -23 19 39 -27 42 -23 48 20 28 16
-7 29 -8 35 -2 13 14 -26 91 -50 97 -28 7 -27 58 0 75 17 10 20 19 14 47 -5
30 -4 35 14 35 11 0 27 11 36 24 11 17 22 23 36 19 15 -4 20 -1 20 15 0 23 57
82 79 82 26 0 71 -52 71 -81 0 -15 4 -31 10 -34 6 -4 7 10 4 39 -5 30 -2 51 6
61 10 12 7 16 -16 25 -71 26 -86 34 -109 62 -14 16 -25 35 -25 42 0 8 -9 25
-21 40 -17 22 -20 35 -14 71 7 48 2 54 -25 30 -25 -23 -87 -9 -103 24 -13 27
-20 28 -85 15 -25 -5 -36 -14 -44 -35 -8 -22 -16 -29 -36 -29 -35 1 -82 61
-82 104 l0 31 -14 -27 c-11 -21 -12 -36 -5 -64 12 -41 8 -50 -18 -38 -10 4
-29 8 -42 8 -18 1 -27 8 -31 26 -4 17 -12 24 -26 23 -34 -4 -106 21 -136 49
-15 14 -31 22 -34 17 -3 -5 -14 -9 -25 -9 -28 0 -24 -36 6 -64 33 -31 32 -36
-8 -36 -45 0 -67 26 -67 79 0 51 -23 53 -28 3 -2 -23 -8 -32 -22 -32 -10 0
-20 -7 -23 -15 -5 -11 -12 -12 -37 -3 -37 12 -49 4 -32 -22 14 -23 16 -50 4
-50 -17 0 -47 43 -44 62 2 11 -4 28 -13 38 -15 16 -15 24 -5 55 13 39 5 61
-11 32 -6 -9 -20 -17 -33 -17 -18 0 -27 9 -39 40 -15 39 -15 40 11 60 38 31
73 23 87 -20 19 -56 64 -51 65 8 0 12 5 22 10 22 6 0 10 -10 10 -23 0 -26 25
-65 35 -55 4 3 1 23 -6 42 -11 29 -11 45 -1 83 8 27 9 50 4 55 -5 5 -40 8 -78
6 l-69 -3 -3 -32 c-4 -44 -22 -42 -22 1 0 34 11 48 40 53 8 1 20 10 27 20 7
10 17 23 22 30 8 8 4 24 -13 52 -22 40 -23 41 -40 22 -10 -11 -30 -21 -45 -23
-21 -2 -25 -8 -23 -27 3 -30 -14 -51 -42 -51 -12 0 -27 -5 -33 -11 -19 -19
-31 11 -36 96 -2 35 1 40 21 43 13 2 26 10 29 18 3 8 11 14 19 14 16 0 18 18
4 40 -9 15 -25 6 -77 -47 -47 -48 -91 -17 -98 68 -5 72 -20 138 -34 152 -6 6
-11 24 -11 39 l0 28 -94 0 c-82 0 -95 -2 -99 -17z m183 -78 c0 -17 -7 -40 -15
-51 -30 -39 -40 20 -18 100 5 19 6 19 19 1 8 -10 14 -33 14 -50z m-120 -20
c14 -17 4 -55 -14 -55 -19 0 -37 45 -23 59 15 15 22 14 37 -4z m120 -112 c0
-22 -26 -73 -37 -73 -13 0 -19 80 -7 93 7 7 44 -10 44 -20z m56 -127 c7 -29 2
-56 -10 -59 -12 -3 -29 50 -22 68 8 23 25 18 32 -9z m79 -57 c8 -36 -10 -64
-25 -39 -11 17 -13 64 -4 73 11 11 22 -2 29 -34z m-175 -50 c0 -11 -4 -17 -10
-14 -5 3 -10 13 -10 21 0 8 5 14 10 14 6 0 10 -9 10 -21z m-215 -16 c50 -6 55
-9 55 -39 0 -30 -18 -38 -54 -24 -18 7 -33 7 -46 0 -22 -12 -50 -3 -50 15 0 8
5 26 10 40 8 20 15 25 28 20 9 -4 35 -9 57 -12z m313 -25 c4 -37 -24 -88 -48
-88 -17 0 -20 7 -20 53 0 62 5 69 40 65 19 -2 26 -10 28 -30z m176 -35 c-7
-42 -36 -79 -53 -69 -15 10 -14 79 1 94 7 7 23 12 35 12 22 0 23 -3 17 -37z
m-572 -88 c9 -19 8 -29 -6 -49 -9 -14 -16 -38 -16 -54 0 -16 -6 -35 -14 -41
-8 -7 -17 -27 -20 -46 -7 -37 -17 -43 -34 -22 -14 17 0 116 17 127 7 4 15 22
18 41 10 68 35 88 55 44z m585 -109 c-2 -6 -12 -11 -23 -11 -20 0 -30 26 -19
53 6 15 9 14 26 -7 11 -13 18 -29 16 -35z m-1010 26 c28 3 28 3 28 -54 -1 -60
4 -68 25 -43 7 8 16 12 21 9 16 -10 9 -38 -16 -64 -28 -29 -25 -60 4 -60 9 0
35 14 58 30 l41 30 16 -25 c25 -38 12 -69 -24 -61 -35 7 -47 -17 -25 -50 20
-30 19 -41 -3 -53 -13 -7 -33 -5 -66 7 -38 14 -49 23 -53 45 -7 32 -26 31 -31
-2 -3 -22 -48 -48 -61 -35 -11 11 -6 93 7 106 10 10 16 10 33 0 12 -8 22 -12
24 -10 1 2 5 27 9 55 6 48 5 52 -11 46 -28 -11 -102 -75 -109 -95 -13 -43 -64
-2 -64 51 1 51 36 88 87 92 21 2 44 0 50 -4 8 -5 10 8 6 50 -6 52 -5 57 10 45
8 -7 28 -12 44 -10z m841 -58 c47 -53 12 -75 -39 -25 -36 36 -39 65 -6 56 12
-4 32 -18 45 -31z m-99 -6 c0 -13 2 -32 6 -44 12 -39 -44 -57 -59 -18 -7 19
24 84 41 84 7 0 12 -10 12 -22z m-89 -33 c10 -26 4 -55 -11 -55 -5 0 -9 3 -10
8 0 4 -2 22 -3 40 -4 38 10 43 24 7z m1260 -44 c0 -23 -19 -41 -36 -34 -17 6
-18 45 -2 61 14 14 38 -2 38 -27z m-1649 -14 c-8 -8 -11 -5 -11 9 0 27 14 41
18 19 2 -9 -1 -22 -7 -28z m181 22 c-15 -62 -14 -67 9 -71 35 -5 65 -72 50
-113 -6 -16 -8 -40 -5 -52 5 -18 2 -23 -13 -23 -10 0 -24 -5 -30 -11 -9 -9
-18 -8 -37 5 -31 20 -33 46 -6 71 16 14 20 29 18 59 -3 36 -6 41 -30 44 -36 4
-37 32 -2 78 26 33 52 41 46 13z m595 -46 c3 -7 -5 -17 -16 -23 -18 -9 -21 -8
-21 8 0 32 28 43 37 15z m-449 -59 c2 -28 2 -28 -13 -10 -18 24 -20 49 -2 44
6 -3 13 -18 15 -34z m532 -6 c0 -4 -11 -8 -25 -8 -27 0 -33 18 -13 38 10 10
15 9 25 -5 7 -9 13 -20 13 -25z m877 -4 c14 -16 19 -31 16 -46 -11 -43 -53
-98 -74 -98 -17 0 -39 34 -39 61 0 18 -5 29 -14 29 -20 0 -35 -22 -49 -70 -10
-36 -18 -44 -52 -56 -51 -18 -52 -18 -58 5 -6 24 2 37 30 45 27 8 36 32 23 57
-15 27 -46 24 -66 -6 -18 -27 -34 -25 -34 6 0 26 53 48 97 42 49 -8 79 3 118
42 31 32 38 34 58 24 12 -7 32 -22 44 -35z m-1657 -39 c0 -31 -11 -37 -32 -18
-18 16 -24 53 -11 66 11 11 43 -24 43 -48z m354 39 c8 -22 -1 -34 -28 -34 -30
0 -37 9 -25 31 12 23 45 25 53 3z m-835 -65 c-5 -11 -9 -28 -7 -38 2 -10 -3
-25 -11 -34 -19 -23 2 -47 41 -47 29 0 30 -2 24 -30 -5 -26 -2 -32 19 -42 20
-9 29 -6 64 21 26 21 42 28 46 20 4 -6 19 -9 35 -5 20 4 30 1 34 -11 6 -16 -2
-83 -11 -83 -2 0 -20 16 -38 36 -39 41 -60 40 -70 -4 -4 -21 -14 -32 -30 -36
-41 -10 -69 -78 -62 -149 5 -55 3 -61 -21 -84 -30 -28 -48 -25 -44 8 2 25 2
31 1 86 -1 29 -3 31 -20 20 -14 -9 -24 -9 -36 -1 -30 18 -25 32 16 54 43 21
55 53 25 64 -29 11 -75 6 -80 -9 -9 -23 -21 -18 -65 30 -32 34 -48 45 -68 43
-32 -4 -39 22 -14 56 10 14 21 26 24 26 3 0 13 -18 22 -40 11 -30 19 -38 32
-34 10 4 26 -3 41 -17 21 -19 36 -24 82 -24 55 0 57 -1 60 -28 4 -34 28 -45
50 -23 13 12 13 19 4 28 -7 7 -12 24 -12 39 0 29 -4 30 -137 45 -39 4 -64 12
-67 21 -3 8 5 35 18 61 23 45 26 47 67 47 38 0 46 4 64 31 21 34 42 36 24 3z
m2238 -53 c-6 -42 -38 -83 -57 -71 -13 8 -5 53 18 102 13 27 18 30 30 21 10
-9 12 -24 9 -52z m-453 11 c6 -9 7 -19 3 -23 -9 -9 -37 15 -37 33 0 18 20 12
34 -10z m-497 -8 c22 -8 39 -42 29 -58 -3 -5 -17 -11 -31 -13 -21 -4 -29 2
-50 38 -14 23 -25 45 -25 48 0 7 40 -1 77 -15z m-1092 -21 c-11 -36 -25 -45
-25 -17 0 27 7 39 22 39 5 0 6 -10 3 -22z m887 -5 c25 -22 23 -39 -7 -59 -14
-9 -25 -21 -25 -26 0 -12 -61 -138 -66 -138 -12 0 -84 52 -84 60 0 22 -30 8
-45 -20 -18 -35 -35 -31 -35 7 0 33 -45 89 -54 67 -3 -9 -11 -14 -18 -12 -16
6 -28 53 -17 69 8 11 13 9 29 -9 l20 -24 10 27 c5 14 10 31 10 36 0 16 11 10
54 -28 22 -20 43 -46 46 -57 4 -12 14 -21 25 -21 11 0 26 -4 33 -8 16 -11 81
59 82 88 0 27 11 65 18 65 3 0 14 -7 24 -17z m-679 -7 c9 -7 17 -21 17 -30 0
-9 -8 -19 -17 -22 -39 -12 -48 -22 -45 -48 2 -17 -1 -26 -11 -26 -11 0 -14 14
-14 58 -1 78 24 103 70 68z m102 4 c9 -15 -4 -50 -20 -50 -21 0 -27 17 -15 40
12 22 25 26 35 10z m-195 -4 c0 -16 -21 -56 -30 -56 -14 0 -13 33 2 48 12 12
28 16 28 8z m915 -71 c0 -27 -21 -29 -45 -5 -17 17 -19 24 -9 36 10 12 15 13
33 1 12 -8 21 -23 21 -32z m-568 -67 c3 -18 10 -38 15 -45 6 -7 5 -19 -1 -31
-7 -13 -7 -31 0 -56 8 -31 7 -41 -5 -55 -9 -10 -16 -24 -16 -32 0 -20 -20 -39
-42 -39 -9 0 -33 -16 -52 -35 -37 -37 -43 -40 -64 -27 -10 7 -10 15 -2 37 8
21 7 33 -4 50 -13 20 -13 25 -1 35 8 7 15 9 15 4 0 -5 13 6 30 24 24 27 28 37
20 57 -5 13 -18 29 -30 35 -25 14 -30 76 -4 66 9 -3 20 -6 25 -6 5 0 9 -7 9
-15 0 -8 9 -24 21 -36 18 -18 19 -25 10 -46 -10 -21 -8 -27 11 -43 22 -18 22
-17 41 24 16 37 17 44 4 77 -8 21 -12 49 -10 63 6 31 -7 34 -32 6 -34 -38 -38
-24 -19 70 5 24 5 24 40 -12 19 -21 37 -52 41 -70z m1463 56 c0 -30 -11 -36
-32 -17 -25 23 -23 38 7 38 19 0 25 -5 25 -21z m-1826 -3 c7 -10 -18 -34 -27
-25 -7 8 3 34 13 34 5 0 11 -4 14 -9z m156 -41 c0 -14 -46 -60 -59 -60 -16 0
-24 40 -11 55 14 17 70 20 70 5z m495 -110 c17 -18 17 -21 1 -45 l-17 -26 -29
21 c-36 26 -43 37 -36 55 8 22 60 18 81 -5z m765 -66 c0 -50 -16 -66 -29 -31
-16 41 -30 41 -46 3 -17 -41 -27 -44 -55 -16 -19 19 -19 22 -4 51 13 27 20 30
44 26 25 -5 30 -2 40 26 l11 32 20 -24 c12 -15 19 -38 19 -67z m-1286 60 c11
-27 6 -54 -8 -54 -17 0 -46 -27 -46 -41 0 -6 13 -15 29 -20 22 -8 32 -19 36
-42 4 -18 14 -39 22 -49 20 -23 2 -31 -53 -22 -47 7 -66 26 -45 47 6 6 11 21
11 34 0 19 -5 23 -28 23 -33 0 -52 16 -52 45 0 12 -9 30 -20 40 -11 10 -17 22
-14 27 3 4 18 -4 32 -20 22 -24 34 -28 60 -24 22 3 32 10 32 22 0 28 11 50 25
50 7 0 16 -7 19 -16z m-724 -17 c13 4 13 3 0 -6 -22 -16 -50 -13 -50 4 0 12 5
13 18 7 9 -5 24 -7 32 -5z m160 -47 c0 -13 -7 -20 -20 -20 -16 0 -20 -7 -20
-34 0 -49 -15 -52 -45 -9 -24 36 -24 39 -8 50 10 7 23 17 28 22 6 6 22 10 38
11 20 0 27 -5 27 -20z m231 -17 c-9 -16 -10 -14 -11 12 0 21 3 26 11 18 8 -8
8 -16 0 -30z m-195 -48 c7 -18 -13 -45 -33 -45 -19 0 -28 27 -13 45 16 19 39
19 46 0z m889 -1 c11 -11 13 -20 6 -27 -12 -12 -41 8 -41 29 0 19 15 18 35 -2z
m460 -32 c-10 -41 -22 -48 -45 -27 -24 22 -25 33 -4 56 25 27 58 7 49 -29z
m-277 1 c2 -1 -9 -8 -25 -17 -47 -25 -83 -65 -83 -92 0 -20 -4 -25 -16 -20 -9
3 -19 6 -24 6 -4 0 -10 12 -13 26 -4 21 1 29 24 43 16 9 29 24 29 34 0 11 12
22 30 28 17 6 30 16 30 22 0 5 10 2 23 -9 12 -10 24 -20 25 -21z m-840 -9
c-10 -10 -28 6 -28 24 0 15 1 15 17 -1 9 -9 14 -19 11 -23z m1027 26 c3 -5 -1
-10 -10 -10 -9 0 -13 5 -10 10 3 6 8 10 10 10 2 0 7 -4 10 -10z m-1431 -71
c31 -24 33 -39 7 -39 -26 0 -66 34 -57 48 10 17 19 15 50 -9z m912 0 c3 -6 17
-8 31 -4 23 5 24 3 21 -30 -2 -27 -10 -41 -30 -53 -27 -16 -29 -16 -60 15 -30
31 -31 32 -14 57 17 27 40 34 52 15z m454 1 c0 -5 -5 -10 -11 -10 -5 0 -7 5
-4 10 3 6 8 10 11 10 2 0 4 -4 4 -10z m-922 -17 c-5 -25 -28 -28 -28 -4 0 12
6 21 16 21 9 0 14 -7 12 -17z m-80 -19 c2 -14 -7 -22 -35 -31 -52 -16 -59 -7
-21 28 36 32 51 33 56 3z m-460 4 c13 -13 17 -68 5 -68 -14 0 -43 34 -43 50 0
30 18 38 38 18z m229 -18 c14 -11 32 -20 40 -20 24 0 8 -25 -18 -28 -28 -3
-76 39 -64 57 9 15 13 14 42 -9z m543 -5 c0 -8 -4 -15 -10 -15 -5 0 -10 7 -10
15 0 8 5 15 10 15 6 0 10 -7 10 -15z m-193 -41 c-3 -3 -12 -4 -19 -1 -8 3 -5
6 6 6 11 1 17 -2 13 -5z m162 -10 c17 -12 21 -22 17 -40 -9 -35 26 -52 47 -21
15 21 16 21 33 4 16 -15 17 -20 6 -38 -11 -18 -11 -24 2 -38 28 -31 20 -49
-26 -59 -24 -5 -49 -7 -55 -4 -19 6 -16 39 4 51 35 19 4 22 -34 3 -50 -26
-148 -34 -148 -12 0 11 9 14 33 12 23 -3 32 1 32 12 0 8 -5 18 -10 21 -15 9
-2 25 15 19 14 -6 65 23 65 36 0 11 -26 37 -42 42 -16 6 0 28 20 28 10 0 28
-7 41 -16z m411 6 c0 -5 -2 -10 -4 -10 -3 0 -8 5 -11 10 -3 6 -1 10 4 10 6 0
11 -4 11 -10z m-990 -40 c32 -23 46 -69 22 -77 -9 -4 -23 4 -36 20 -12 15 -29
27 -39 27 -20 0 -24 36 -4 43 21 9 28 8 57 -13z m148 8 c-6 -18 -28 -21 -28
-4 0 9 7 16 16 16 9 0 14 -5 12 -12z m-558 -13 c9 -11 10 -19 2 -27 -14 -14
-32 -1 -32 23 0 23 13 25 30 4z m164 -10 c3 -8 1 -17 -5 -21 -14 -8 -39 15
-33 31 7 16 30 9 38 -10z m1186 10 c7 -9 10 -18 6 -22 -9 -9 -57 18 -50 29 8
13 30 9 44 -7z m-505 -15 c0 -22 -39 -19 -43 3 -3 15 1 18 20 15 12 -2 23 -10
23 -18z m-57 -27 c-4 -21 -36 -28 -58 -13 -13 9 -13 11 0 20 26 17 62 12 58
-7z m-550 -31 c3 -9 -2 -13 -14 -10 -9 1 -19 9 -22 16 -3 9 2 13 14 10 9 -1
19 -9 22 -16z m972 -12 c0 -13 -37 -13 -45 0 -3 6 -3 15 0 20 7 12 45 -5 45
-20z m440 -11 c0 -20 -15 -26 -25 -9 -9 15 3 43 15 35 5 -3 10 -15 10 -26z
m-1076 2 c3 -4 1 -13 -4 -21 -7 -11 -11 -10 -25 3 -9 10 -21 17 -26 17 -6 0
-8 4 -5 9 6 9 54 3 60 -8z m760 13 c23 -9 1 -34 -30 -34 -17 0 -24 6 -24 20 0
21 22 26 54 14z m-1168 -39 c4 -8 1 -22 -6 -30 -11 -13 -9 -19 8 -36 12 -11
22 -24 22 -29 0 -12 -21 -13 -35 -2 -13 9 -45 79 -45 97 0 20 49 20 56 0z
m1117 -31 c39 -39 43 -53 8 -35 -24 13 -71 56 -71 65 0 16 29 2 63 -30z m-783
10 c0 -9 -7 -14 -17 -12 -25 5 -28 28 -4 28 12 0 21 -6 21 -16z m-450 -15 c0
-18 -2 -19 -15 -9 -8 7 -15 16 -15 21 0 5 7 9 15 9 9 0 15 -9 15 -21z m190 6
c0 -8 -7 -15 -15 -15 -8 0 -15 7 -15 15 0 8 7 15 15 15 8 0 15 -7 15 -15z
m-252 -32 c4 -24 -24 -51 -39 -36 -13 13 7 66 24 61 6 -3 13 -14 15 -25z
m1575 16 c14 14 67 14 67 1 0 -5 -5 -10 -10 -10 -6 0 -33 -20 -59 -45 -59 -55
-81 -58 -81 -12 0 18 7 43 16 55 13 18 19 20 36 11 14 -8 23 -8 31 0z m-1203
-28 c0 -22 -29 -36 -43 -22 -15 15 0 41 23 41 13 0 20 -7 20 -19z m448 -7 c2
-12 -4 -24 -12 -27 -19 -7 -40 18 -32 39 8 22 40 13 44 -12z m172 -44 l35 -18
-28 -7 c-21 -6 -31 -3 -41 10 -9 13 -20 16 -38 12 -26 -7 -55 13 -41 27 10 9
73 -4 113 -24z m138 3 c5 -16 -22 -27 -44 -19 -13 5 -14 9 -4 22 15 17 41 15
48 -3z m512 -7 c0 -15 -37 -32 -47 -22 -9 8 17 36 33 36 8 0 14 -6 14 -14z
m-1659 -12 c7 -8 21 -13 30 -11 26 7 52 -15 43 -37 -5 -13 -13 -16 -33 -10
-14 4 -44 7 -66 8 -45 1 -57 22 -30 50 21 20 39 20 56 0z m1409 -18 c0 -3 -4
-8 -10 -11 -5 -3 -10 -1 -10 4 0 6 5 11 10 11 6 0 10 -2 10 -4z m-991 -43 c6
-21 13 -63 17 -94 l6 -56 -47 1 c-34 1 -49 -3 -56 -16 -16 -28 -44 -21 -73 16
-39 52 -35 69 9 40 33 -21 69 -15 73 14 2 14 10 22 22 22 11 0 24 9 30 20 15
28 -11 37 -56 21 -24 -9 -39 -9 -53 -2 -11 6 -29 11 -41 11 -12 0 -20 5 -18
12 5 14 45 28 113 38 28 4 53 8 57 9 4 0 12 -16 17 -36z m627 10 c-10 -10 -19
5 -10 18 6 11 8 11 12 0 2 -7 1 -15 -2 -18z m606 1 c24 -12 28 -18 17 -25 -19
-12 -66 -11 -74 1 -9 14 1 40 15 40 6 0 25 -7 42 -16z m-792 -20 c0 -9 -7 -14
-17 -12 -25 5 -28 28 -4 28 12 0 21 -6 21 -16z m-703 -45 c-2 -52 -29 -75 -66
-56 -37 18 -36 35 2 57 20 12 38 28 41 36 11 27 24 5 23 -37z m583 18 c0 -13
-6 -32 -14 -42 -12 -17 -17 -18 -40 -7 -54 24 -40 72 20 72 29 0 34 -4 34 -23z
m-218 -4 c25 -22 23 -33 -6 -33 -28 0 -40 14 -32 35 7 19 15 19 38 -2z m508 7
c0 -5 -4 -10 -10 -10 -5 0 -10 5 -10 10 0 6 5 10 10 10 6 0 10 -4 10 -10z
m-124 -37 c-10 -10 -19 5 -10 18 6 11 8 11 12 0 2 -7 1 -15 -2 -18z m74 -12
c0 -25 -20 -38 -31 -20 -15 23 -10 39 11 39 13 0 20 -7 20 -19z m-148 -3 c-9
-9 -15 -9 -24 0 -9 9 -7 12 12 12 19 0 21 -3 12 -12z m262 -27 c20 -22 14 -41
-14 -41 -19 0 -36 32 -25 50 9 15 20 12 39 -9z m-1101 -16 c1 -5 -6 -11 -15
-13 -11 -2 -18 3 -18 13 0 17 30 18 33 0z m197 -14 c0 -21 -23 -44 -33 -34
-12 11 -8 51 6 56 17 6 27 -1 27 -22z m646 -25 c3 -8 19 -19 35 -25 18 -6 29
-17 29 -29 0 -11 7 -25 15 -32 22 -19 18 -34 -15 -58 -24 -18 -34 -20 -50 -12
-14 8 -26 8 -41 -1 -27 -14 -46 2 -24 21 8 7 15 18 15 26 0 7 9 19 20 27 20
14 20 14 -4 31 -30 19 -45 20 -68 2 -22 -16 -23 -30 -3 -46 20 -17 19 -40 -2
-40 -22 0 -63 39 -63 59 1 30 44 70 85 80 57 13 65 13 71 -3z m-204 -1 c2 -3
3 -19 0 -36 -3 -23 -13 -35 -38 -47 -33 -15 -35 -15 -59 8 -29 28 -31 37 -8
62 15 17 91 26 105 13z m360 -63 c-2 -37 -3 -37 43 -15 37 18 51 14 42 -11 -7
-18 -84 -59 -100 -53 -6 2 -12 28 -13 61 -2 48 1 57 15 54 11 -3 15 -13 13
-36z m696 26 c-3 -7 -13 -13 -23 -13 -10 0 -20 6 -22 13 -3 7 5 12 22 12 17 0
25 -5 23 -12z m-1263 -7 c7 -12 -12 -24 -25 -16 -11 7 -4 25 10 25 5 0 11 -4
15 -9z m-72 -19 c16 -17 16 -20 -2 -38 -10 -12 -32 -26 -49 -33 -27 -11 -34
-10 -56 6 -36 26 -32 48 12 66 50 21 76 21 95 -1z m975 -40 c2 -7 -3 -12 -12
-12 -9 0 -16 7 -16 16 0 17 22 14 28 -4z m280 -4 c-6 -18 -28 -21 -28 -4 0 9
7 16 16 16 9 0 14 -5 12 -12z m-184 -36 c2 -4 7 -24 11 -45 7 -35 6 -37 -18
-37 -18 0 -28 8 -37 30 -7 16 -10 36 -6 45 6 15 41 21 50 7z m-203 -29 c14
-16 39 -35 55 -44 42 -22 53 -73 24 -105 l-21 -22 26 -6 c21 -5 26 -12 23 -34
-2 -18 -9 -28 -23 -29 -11 -1 -32 -5 -47 -9 -28 -7 -88 29 -88 52 0 20 -31 33
-57 23 -13 -5 -23 -6 -23 -3 0 14 75 74 92 74 10 0 18 5 18 11 0 5 10 9 22 7
11 -2 23 3 26 11 3 10 -3 12 -25 7 -21 -5 -34 -2 -43 9 -11 13 -17 10 -50 -26
-41 -46 -77 -51 -72 -10 1 13 -5 32 -14 42 -27 30 -7 42 31 19 42 -26 69 -15
78 30 8 38 34 39 68 3z m568 0 c17 -15 31 -31 31 -36 0 -4 -19 -7 -42 -5 -44
3 -57 20 -44 54 8 20 20 18 55 -13z m-149 -54 c0 -5 -4 -9 -10 -9 -5 0 -10 7
-10 16 0 8 5 12 10 9 6 -3 10 -10 10 -16z m-1510 2 c0 -12 -29 -35 -36 -28
-11 10 5 37 21 37 8 0 15 -4 15 -9z m1580 -171 c0 -5 -7 -10 -15 -10 -8 0 -15
5 -15 10 0 6 7 10 15 10 8 0 15 -4 15 -10z m-302 -40 c2 -14 -47 -50 -68 -50
-5 0 -8 16 -7 35 2 34 3 36 37 33 21 -2 36 -9 38 -18z m534 -21 c17 -9 18 -13
7 -20 -30 -19 -89 -3 -75 20 9 14 41 14 68 0z m-193 -44 c-19 -20 -50 -10 -42
13 10 26 27 33 43 17 12 -13 12 -17 -1 -30z m129 -32 c2 -8 -5 -13 -17 -13
-12 0 -21 6 -21 16 0 18 31 15 38 -3z m90 -10 c5 -17 -26 -29 -40 -15 -6 6 -7
15 -3 22 9 14 37 9 43 -7z m-38 -33 c0 -5 -7 -10 -16 -10 -8 0 -12 5 -9 10 3
6 10 10 16 10 5 0 9 -4 9 -10z m-499 -13 c-1 -12 -15 -9 -19 4 -3 6 1 10 8 8
6 -3 11 -8 11 -12z m399 -32 c10 -13 9 -15 -9 -15 -12 0 -21 6 -21 15 0 8 4
15 9 15 5 0 14 -7 21 -15z m180 -30 c0 -32 -2 -35 -30 -35 -31 0 -41 16 -15
26 8 3 17 14 20 25 10 31 25 22 25 -16z m-330 12 c0 -8 -3 -17 -6 -20 -10 -9
-46 12 -39 24 9 14 45 11 45 -4z"/>
<path d="M1280 13601 c0 -6 5 -13 10 -16 6 -3 10 1 10 9 0 9 -4 16 -10 16 -5
0 -10 -4 -10 -9z"/>
<path d="M1955 15313 c-5 -27 -3 -38 9 -45 8 -5 21 -14 28 -21 7 -6 30 -18 50
-25 31 -11 42 -11 66 2 19 10 43 13 73 9 l44 -6 -20 22 c-20 23 -34 24 -122 6
-38 -8 -87 23 -102 67 -13 37 -17 35 -26 -9z"/>
<path d="M1253 15263 c-18 -6 -16 -23 1 -23 17 0 30 16 19 23 -5 2 -14 2 -20
0z"/>
<path d="M1914 15235 c-7 -18 3 -35 22 -35 8 0 14 10 14 25 0 27 -27 35 -36
10z"/>
<path d="M988 15193 c-10 -2 -18 -9 -18 -14 0 -13 12 -11 34 6 20 15 16 17
-16 8z"/>
<path d="M1130 15175 c0 -19 30 -50 71 -71 18 -9 41 -26 50 -38 16 -19 19 -20
34 -5 13 13 14 20 4 42 -7 15 -15 27 -19 27 -4 0 -24 14 -45 30 -41 33 -95 41
-95 15z"/>
<path d="M1074 15085 c-4 -9 -2 -21 4 -27 15 -15 44 -1 40 19 -4 23 -36 29
-44 8z"/>
<path d="M10786 15085 c-10 -24 -13 -35 -66 -300 -6 -27 -17 -84 -26 -125 -9
-41 -18 -89 -19 -107 -1 -18 -6 -38 -12 -45 -17 -22 -22 -44 -12 -59 12 -20
30 1 33 42 4 35 32 117 47 133 15 17 18 1 8 -39 -6 -22 -10 -86 -10 -143 1
-70 -3 -114 -13 -135 -21 -47 -28 -112 -15 -141 10 -20 9 -30 -5 -51 -9 -14
-12 -25 -6 -25 5 0 10 -4 10 -10 0 -5 -6 -7 -14 -4 -9 3 -17 -10 -26 -43 -7
-26 -17 -53 -22 -60 -5 -7 -5 -14 2 -18 6 -3 7 -11 4 -17 -5 -7 -12 -5 -20 7
-16 21 -44 13 -44 -13 0 -10 -9 -27 -20 -37 -15 -14 -19 -26 -14 -50 6 -34
-24 -98 -51 -109 -8 -3 -18 -23 -21 -45 -4 -23 -17 -49 -30 -62 -13 -12 -24
-30 -24 -38 0 -19 -21 -77 -38 -108 -7 -12 -12 -30 -12 -39 0 -10 -10 -28 -22
-41 -17 -18 -23 -37 -24 -78 -2 -62 -8 -75 -35 -75 -16 0 -19 -7 -19 -50 0
-31 -5 -52 -14 -57 -9 -5 -15 -32 -18 -78 -3 -67 -6 -74 -47 -122 -32 -39 -41
-57 -36 -73 4 -12 1 -27 -6 -36 -7 -8 -14 -54 -16 -107 -4 -85 -6 -94 -30
-113 -19 -15 -24 -26 -19 -42 4 -12 13 -22 20 -22 8 0 19 -7 26 -15 10 -12 5
-17 -24 -29 -32 -13 -51 -43 -45 -72 4 -23 -3 -33 -23 -36 -19 -2 -23 -9 -21
-32 1 -17 -1 -35 -6 -40 -4 -6 -14 -33 -22 -60 -8 -27 -24 -60 -37 -73 -14
-15 -21 -32 -17 -43 3 -11 0 -20 -10 -24 -9 -3 -15 -18 -15 -35 0 -19 -8 -36
-22 -48 -13 -10 -34 -40 -48 -67 -13 -27 -62 -87 -107 -134 -46 -47 -83 -86
-83 -88 0 -1 10 -4 23 -6 16 -2 21 -9 19 -26 -3 -22 32 -82 48 -82 4 0 10 17
12 38 3 20 7 44 9 52 3 10 -5 16 -23 18 l-28 3 33 33 c38 38 105 81 114 72 3
-3 12 -1 19 5 19 16 97 2 127 -22 14 -10 32 -19 40 -19 9 0 25 -16 37 -35 15
-25 29 -35 46 -35 29 0 44 -28 23 -44 -8 -6 -25 -35 -38 -63 -14 -29 -30 -53
-36 -53 -7 0 -20 -9 -30 -20 -10 -11 -23 -20 -30 -20 -7 0 -20 -9 -29 -19 -10
-11 -23 -18 -30 -15 -7 3 -24 0 -39 -5 -19 -8 -33 -6 -54 4 -15 8 -31 11 -36
6 -12 -12 10 -51 28 -51 8 0 15 -5 15 -10 0 -6 -15 -9 -32 -8 -27 3 -34 -1
-36 -18 -2 -11 4 -27 13 -34 16 -13 21 -46 7 -52 -4 -2 -27 -26 -50 -54 -43
-51 -73 -67 -132 -68 -18 -1 -26 -7 -28 -23 -4 -27 -38 -53 -68 -53 -12 0 -39
-7 -60 -16 -20 -9 -50 -13 -65 -10 -17 3 -32 0 -39 -9 -7 -8 -21 -15 -33 -15
-17 0 -19 5 -14 35 6 38 -7 90 -29 115 -46 51 -62 80 -69 125 -4 28 -12 56
-17 63 -8 9 -7 24 1 53 7 21 9 44 6 49 -3 5 8 24 25 43 l30 35 -13 65 c-8 35
-21 75 -30 88 -10 13 -17 38 -17 55 0 17 -6 37 -14 44 -8 6 -13 17 -10 23 6
16 -136 163 -196 204 -25 17 -57 33 -70 35 -17 2 -25 9 -23 21 0 11 -8 28 -18
38 -11 11 -17 25 -13 31 7 12 -57 7 -91 -7 -18 -8 -18 -6 3 17 28 30 28 42 0
70 -36 36 -88 59 -109 48 -10 -6 -31 -10 -48 -10 -24 0 -32 5 -37 24 -3 14 -3
34 1 45 5 15 -1 27 -22 46 -15 13 -33 25 -39 25 -7 0 -14 7 -18 15 -7 19 -26
20 -26 2 0 -18 -39 -53 -72 -66 -23 -9 -28 -17 -28 -44 0 -18 6 -42 14 -53 13
-16 18 -17 35 -6 19 11 21 10 21 -19 0 -41 -16 -69 -40 -69 -13 0 -20 -7 -20
-20 0 -11 7 -20 15 -20 21 0 30 -27 15 -45 -18 -22 -29 -18 -41 13 -14 36 -48
72 -70 72 -23 0 -40 -21 -85 -107 -10 -18 -26 -35 -36 -39 -10 -3 -18 -10 -18
-15 0 -5 -9 -9 -20 -9 -11 0 -23 -6 -26 -14 -3 -8 -15 -16 -26 -19 -18 -5 -19
-10 -12 -49 5 -24 8 -63 8 -88 -2 -54 -29 -161 -37 -140 -43 128 -72 190 -87
190 -6 0 -10 -9 -10 -20 0 -21 -27 -40 -59 -40 -12 0 -21 -4 -21 -10 0 -5 -8
-10 -18 -10 -17 0 -85 -61 -188 -171 -24 -26 -45 -59 -49 -79 -6 -31 -21 -65
-73 -165 -23 -44 -74 -95 -97 -95 -11 0 -29 -7 -39 -15 -11 -8 -26 -15 -33
-15 -8 0 -33 -9 -55 -20 -55 -26 -80 -25 -107 4 -17 18 -19 26 -10 32 9 5 2
11 -21 19 -39 13 -55 52 -38 91 9 18 8 28 0 36 -7 7 -12 28 -12 48 0 57 -11
80 -44 97 -17 8 -40 24 -51 34 -45 42 -86 70 -96 67 -7 -2 -23 6 -35 19 -27
26 -16 30 -112 -36 -33 -23 -57 -22 -34 1 22 22 12 30 -28 23 l-40 -7 0 41 c0
23 -3 41 -6 41 -3 0 -20 -12 -37 -26 -20 -17 -37 -24 -51 -20 -12 3 -28 6 -36
6 -21 0 -44 51 -28 62 7 4 17 3 22 -2 12 -12 45 30 90 115 33 61 37 74 27 98
-9 23 -16 27 -48 27 -38 0 -188 42 -235 66 -36 19 -47 18 -70 -11 -11 -14 -28
-25 -38 -25 -21 0 -44 -25 -35 -40 3 -5 19 -10 35 -10 32 0 42 -16 28 -43 -5
-10 -7 -25 -4 -33 4 -10 -3 -14 -24 -14 -19 0 -31 -6 -35 -19 -3 -10 -18 -21
-33 -24 -18 -4 -33 -18 -46 -41 -10 -19 -29 -37 -42 -40 -33 -9 -31 -36 11
-162 32 -94 35 -115 34 -207 -2 -151 -13 -185 -23 -67 -5 67 -15 111 -32 150
-32 69 -48 87 -93 100 -60 19 -111 42 -111 52 0 6 9 12 20 15 28 7 25 16 -10
31 -16 7 -32 22 -35 32 -3 10 -17 21 -30 24 -31 8 -33 38 -4 67 l21 21 -26 27
c-14 15 -26 34 -26 42 0 8 -4 19 -9 25 -5 5 -14 26 -21 46 -10 32 -18 40 -53
50 -23 7 -54 24 -68 38 -60 59 -103 90 -119 85 -10 -3 -26 5 -41 21 -48 53
-127 70 -144 32 -14 -33 -42 -35 -56 -4 -9 19 -24 27 -61 36 -27 5 -53 8 -57
5 -4 -2 -6 -28 -4 -57 4 -53 -7 -86 -24 -75 -6 4 -13 36 -16 72 -4 44 -13 75
-27 92 -11 14 -20 32 -20 39 0 7 -6 17 -14 21 -7 4 -23 28 -35 52 -18 35 -21
53 -16 91 4 30 3 50 -4 55 -6 3 -11 -2 -11 -12 0 -10 -7 -27 -15 -37 -15 -19
-15 -19 -45 2 -16 12 -34 22 -40 22 -7 0 -10 -35 -9 -97 1 -102 -13 -157 -58
-231 -20 -32 -21 -33 -26 -10 -4 16 -25 33 -61 51 -31 16 -58 32 -61 38 -3 5
12 39 33 76 46 80 56 106 47 133 -5 15 -15 20 -40 20 -19 0 -37 5 -41 11 -4 7
-22 9 -45 6 -22 -3 -41 -1 -44 3 -14 22 -93 67 -106 60 -8 -4 -28 -10 -45 -13
-28 -5 -33 -3 -44 24 -18 43 0 59 39 36 36 -21 51 -22 51 -2 0 8 -7 15 -15 15
-8 0 -15 4 -15 10 0 14 -53 60 -68 60 -10 0 -12 -7 -8 -25 6 -23 4 -25 -28
-25 -25 0 -38 -6 -46 -19 -12 -24 -45 -17 -66 14 -7 12 -15 50 -16 86 -3 60
-2 64 20 67 15 2 34 -5 49 -20 18 -17 36 -23 71 -23 106 0 207 148 151 219
-29 37 -43 33 -34 -10 6 -36 6 -36 -22 -30 -89 19 -121 19 -151 -3 -17 -11
-37 -21 -45 -21 -9 0 -29 -12 -46 -26 -26 -21 -39 -25 -83 -23 -48 3 -53 1
-53 -18 0 -12 -11 -33 -24 -47 -35 -37 -38 -113 -5 -138 12 -10 24 -28 26 -41
2 -14 11 -23 26 -25 28 -4 72 -61 72 -95 0 -14 5 -29 11 -33 8 -5 10 -31 5
-85 l-6 -78 29 -16 c39 -19 52 -45 45 -84 -4 -16 -1 -44 5 -62 6 -17 8 -49 5
-71 -6 -36 -9 -39 -32 -33 -21 5 -24 4 -14 -8 13 -15 -2 -33 -45 -56 -13 -6
-23 -21 -23 -31 0 -11 -10 -30 -21 -41 -19 -19 -29 -21 -79 -15 -70 8 -75 4
-78 -66 -1 -14 -14 -41 -29 -59 -28 -33 -43 -87 -68 -243 -11 -65 -11 -94 -4
-109 9 -16 8 -22 -5 -29 -21 -12 -20 -23 3 -56 28 -39 36 -124 16 -162 -22
-42 -56 -80 -72 -80 -17 0 -18 -90 -2 -157 19 -77 59 -176 82 -200 11 -13 31
-23 43 -23 34 0 66 -18 94 -53 21 -26 24 -41 24 -97 -1 -37 -4 -73 -8 -79 -14
-22 4 -61 54 -115 40 -45 50 -63 55 -103 3 -26 10 -65 16 -87 7 -26 7 -53 0
-85 -5 -25 -12 -70 -16 -99 -5 -50 -4 -54 30 -89 19 -20 45 -41 58 -47 27 -14
35 -78 17 -141 -11 -38 -17 -44 -80 -73 -38 -18 -75 -42 -82 -55 -7 -12 -16
-65 -20 -117 -4 -52 -12 -133 -17 -180 -5 -47 -13 -114 -16 -150 -4 -36 -15
-83 -25 -105 -19 -40 -34 -107 -65 -290 -24 -135 -29 -147 -60 -140 -14 3 -36
7 -50 10 -18 4 -25 1 -25 -10 0 -11 12 -15 50 -15 28 0 50 -5 50 -10 0 -16
-14 -18 -145 -24 -66 -3 -138 -8 -160 -11 -22 -3 -69 -10 -105 -14 -36 -5 -74
-9 -85 -9 -11 0 -56 -5 -100 -11 -145 -21 -387 -32 -400 -19 -8 8 -9 44 -5
201 2 84 -1 132 -8 139 -8 8 -9 36 -5 83 4 57 0 91 -21 180 -43 173 -121 304
-233 386 -30 22 -59 52 -65 67 -6 16 -12 128 -14 272 -3 277 -7 298 -75 383
-62 78 -110 107 -179 107 -98 0 -161 -18 -297 -85 -132 -65 -456 -242 -503
-274 -14 -10 -59 -36 -100 -58 -121 -65 -174 -95 -184 -104 -17 -15 -52 -10
-79 11 -14 11 -42 27 -61 35 -20 9 -36 19 -36 24 0 6 -12 11 -27 13 -17 2 -32
12 -38 25 -6 14 -16 21 -25 18 -14 -5 -70 68 -70 92 0 6 -6 16 -14 22 -20 17
-96 146 -96 164 0 11 23 16 102 22 141 10 259 62 184 81 -14 3 -30 3 -36 -1
-6 -4 -17 -2 -24 4 -10 9 -25 8 -57 0 -114 -32 -312 -2 -477 70 -39 17 -81 31
-93 31 -13 0 -48 5 -79 12 -53 11 -58 14 -76 52 l-19 41 -82 0 c-97 0 -123
-14 -73 -40 17 -9 57 -36 88 -59 32 -24 85 -53 120 -66 34 -12 65 -26 67 -31
11 -17 12 -135 2 -157 -11 -24 -14 -24 -101 -19 -53 3 -92 9 -94 16 -2 6 -15
11 -28 11 -28 0 -30 7 -8 31 15 17 15 18 -8 24 -13 3 -35 2 -50 -4 -14 -5 -35
-7 -47 -4 -42 11 -51 -11 -51 -129 l0 -110 33 7 c17 4 37 6 42 6 61 -8 80 -5
80 12 0 20 14 26 155 73 98 32 208 42 334 30 47 -5 79 -3 99 5 27 11 32 10 48
-10 23 -29 24 -57 3 -65 -12 -5 -15 -14 -11 -36 4 -16 2 -32 -3 -35 -6 -3 -10
-16 -10 -28 0 -16 -14 -29 -55 -50 -43 -23 -56 -36 -66 -65 -17 -52 -23 -58
-100 -88 -41 -16 -87 -44 -115 -69 -29 -27 -65 -49 -98 -58 -28 -9 -82 -25
-121 -36 -38 -11 -103 -32 -142 -47 l-73 -26 0 -1475 0 -1475 63 7 c34 4 107
15 161 26 55 11 128 23 164 26 59 6 64 5 60 -13 -3 -20 -15 -23 -265 -63 -96
-15 -116 -16 -132 -4 -11 7 -26 10 -35 7 -15 -6 -16 -305 -16 -3290 l0 -3284
5400 0 5400 0 0 5470 c0 3009 -1 5470 -3 5470 -2 0 -45 -9 -96 -20 -64 -14
-97 -17 -105 -11 -8 6 -16 7 -22 2 -12 -13 -185 -18 -204 -6 -8 5 -35 13 -60
17 -25 5 -58 11 -73 15 -21 4 -34 0 -53 -18 -13 -12 -24 -28 -24 -35 0 -18
-37 -37 -45 -24 -4 7 -11 8 -18 1 -7 -5 -31 -14 -53 -20 -29 -8 -43 -18 -47
-32 -4 -14 -10 -18 -19 -13 -7 5 -21 7 -30 6 -25 -4 -23 35 7 133 31 101 50
120 119 119 50 -1 77 -11 163 -59 37 -20 63 -24 192 -30 83 -4 200 -4 261 0
l110 7 0 834 c0 742 -2 834 -15 834 -9 0 -18 7 -21 15 -4 8 -12 15 -19 15 -20
0 -29 20 -16 33 14 14 14 27 0 27 -7 0 -17 8 -24 17 -11 14 -8 21 16 44 16 15
29 36 29 46 0 11 11 30 25 43 28 26 33 50 10 50 -18 0 -19 20 -3 55 10 22 8
28 -10 48 -18 19 -19 26 -9 36 9 10 9 14 -5 22 -24 13 -14 67 18 96 l24 22 0
768 c0 507 -4 763 -10 753 -6 -8 -8 -26 -5 -40 3 -14 1 -32 -4 -40 -8 -12 -11
-11 -16 5 -4 11 -11 30 -16 43 -10 25 -4 61 17 101 8 14 14 51 14 82 0 31 5
70 11 86 13 38 9 149 -5 118z m-6218 -2568 c6 -7 14 -31 18 -53 5 -36 3 -42
-20 -57 -24 -16 -76 -24 -76 -12 0 20 33 63 51 68 12 3 18 10 14 17 -4 6 -13
9 -21 6 -7 -3 -16 -1 -19 4 -4 6 -16 10 -28 10 -20 0 -20 0 -1 15 24 18 68 19
82 2z m5877 -77 c4 -6 2 -17 -5 -25 -9 -11 -7 -14 11 -17 12 -2 24 -9 27 -15
3 -10 -13 -13 -60 -13 -69 0 -110 15 -70 26 12 4 22 12 22 18 0 30 60 50 75
26z m-138 -136 c-9 -9 -28 6 -21 18 4 6 10 6 17 -1 6 -6 8 -13 4 -17z m132
-28 c9 -11 8 -15 -5 -20 -23 -9 -54 2 -54 20 0 18 44 19 59 0z m-164 -68 c14
-21 14 -24 -5 -32 -23 -10 -57 13 -57 39 0 23 44 18 62 -7z m-5355 -20 c0 -21
-13 -34 -48 -52 -44 -23 -50 -14 -21 29 24 35 69 50 69 23z m5430 -7 c0 -30
11 -51 26 -51 8 0 23 -9 33 -19 11 -11 29 -25 41 -31 28 -15 21 -31 -21 -52
-30 -15 -37 -15 -57 -2 -12 8 -38 16 -57 18 -19 1 -44 11 -56 22 -22 19 -22
19 -15 -3 7 -21 4 -23 -25 -23 -31 0 -32 1 -17 16 15 15 14 18 -4 36 -20 20
-19 20 16 39 20 10 45 19 56 19 11 0 20 4 20 9 0 15 30 41 46 41 8 0 14 -9 14
-19z m-1639 -79 c-10 -15 -22 -46 -26 -69 -9 -59 -25 -54 -25 7 0 41 5 56 25
76 32 32 52 22 26 -14z m-193 16 c19 -19 14 -27 -28 -39 -58 -17 -76 2 -29 30
40 24 41 25 57 9z m1982 -128 c0 -5 -4 -10 -9 -10 -6 0 -13 5 -16 10 -3 6 1
10 9 10 9 0 16 -4 16 -10z m-2266 -60 c-39 -54 -84 -164 -84 -204 0 -13 -7
-29 -16 -37 -13 -11 -14 -9 -9 17 29 126 62 203 108 251 44 47 45 34 1 -27z
m-3404 30 c0 -5 -5 -10 -11 -10 -5 0 -7 5 -4 10 3 6 8 10 11 10 2 0 4 -4 4
-10z m5505 0 c21 -8 25 -14 20 -33 -4 -12 -17 -32 -29 -44 -18 -20 -27 -22
-66 -15 -45 8 -45 8 -44 47 1 39 2 40 40 46 21 3 42 7 46 8 4 0 19 -4 33 -9z
m117 -12 c20 -20 20 -21 2 -35 -26 -19 -39 -11 -42 25 -4 37 9 41 40 10z m58
-81 c0 -22 -45 -58 -63 -51 -25 9 -20 32 11 48 34 19 52 20 52 3z m-1970 -16
c0 -24 -24 -71 -36 -71 -19 0 -18 30 2 58 15 22 34 30 34 13z m-3726 -47 c19
-19 21 -34 3 -34 -17 0 -37 20 -37 37 0 18 15 16 34 -3z m3114 -32 c4 -26 -39
-72 -68 -72 -24 0 -25 11 -5 50 26 50 67 63 73 22z m2282 -18 c0 -8 -4 -12
-10 -9 -5 3 -10 10 -10 16 0 5 5 9 10 9 6 0 10 -7 10 -16z m-3920 -25 c0 -36
22 -103 42 -125 10 -11 18 -26 18 -32 0 -7 6 -12 14 -12 25 0 76 -50 76 -75 0
-36 -39 -40 -72 -8 -16 15 -28 33 -28 40 0 7 -7 13 -15 13 -8 0 -15 -5 -15
-11 0 -20 55 -109 68 -109 6 0 12 -9 12 -20 0 -13 5 -18 16 -13 13 5 15 -1 12
-33 -3 -37 -5 -39 -34 -37 -28 2 -31 0 -26 -22 5 -28 -15 -35 -25 -8 -4 9 -14
24 -24 34 -10 10 -23 37 -30 61 -6 24 -15 55 -21 69 -6 16 -5 69 1 145 6 65
11 129 11 142 0 12 5 22 10 22 6 0 10 -10 10 -21z m4060 -36 c0 -5 -7 -17 -15
-27 -20 -27 -19 -45 6 -65 19 -15 20 -18 5 -30 -13 -11 -19 -11 -32 0 -28 23
-5 128 29 129 4 0 7 -3 7 -7z m-2556 -19 c9 -24 -22 -73 -46 -74 -13 0 -9 65
4 78 17 17 35 15 42 -4z m-1145 -110 c10 -23 9 -31 -13 -63 -14 -20 -35 -42
-46 -49 -17 -11 -21 -10 -27 4 -4 11 3 25 20 40 18 15 24 28 20 43 -5 20 11
51 27 51 4 0 12 -12 19 -26z m1451 -16 c0 -35 -24 -128 -32 -128 -13 0 -9 109
4 130 17 26 28 25 28 -2z m2420 7 c0 -8 -7 -15 -15 -15 -16 0 -20 12 -8 23 11
12 23 8 23 -8z m-5556 -112 c45 -30 56 -42 52 -58 -3 -11 -6 -28 -6 -37 0 -14
-6 -16 -32 -12 -31 5 -32 4 -14 -10 10 -8 24 -17 30 -19 8 -3 8 -10 -1 -28 -6
-13 -14 -44 -18 -69 -3 -24 -13 -52 -21 -61 -9 -10 -18 -36 -21 -60 -4 -29
-12 -43 -24 -46 -10 -3 -19 -16 -21 -32 -3 -23 -8 -26 -41 -27 -47 -1 -53 -8
-41 -42 8 -24 14 -27 47 -24 22 2 37 -1 37 -7 0 -18 -201 -14 -227 4 -12 8
-34 48 -49 87 -16 40 -34 82 -40 93 -7 11 -16 44 -20 73 -8 64 0 75 126 163
131 91 214 147 221 148 3 0 32 -16 63 -36z m5153 21 c-3 -3 -12 -4 -19 -1 -8
3 -5 6 6 6 11 1 17 -2 13 -5z m-3707 -50 c0 -8 -4 -12 -10 -9 -5 3 -10 10 -10
16 0 5 5 9 10 9 6 0 10 -7 10 -16z m90 -9 c0 -8 -4 -15 -10 -15 -5 0 -10 7
-10 15 0 8 5 15 10 15 6 0 10 -7 10 -15z m58 -45 c-7 -17 -16 -30 -20 -30 -14
0 -8 35 9 60 21 30 29 10 11 -30z m3312 -106 c0 -17 -15 -25 -34 -18 -19 7
-21 35 -4 52 10 10 15 9 25 -5 7 -9 13 -22 13 -29z m-3693 -26 c-2 -13 -4 -3
-4 22 0 25 2 35 4 23 2 -13 2 -33 0 -45z m1083 33 c0 -20 -25 -29 -43 -17 -25
19 -21 26 13 26 17 0 30 -4 30 -9z m-970 -75 c0 -8 -5 -18 -10 -21 -6 -4 -19
-24 -31 -46 -11 -22 -24 -37 -29 -34 -18 11 -11 47 16 82 26 34 54 44 54 19z
m4083 -618 c-1 -24 2 -27 35 -30 20 -2 37 -7 37 -13 0 -10 -40 -16 -253 -34
-131 -12 -165 -24 -262 -94 -25 -18 -121 -86 -215 -153 -93 -66 -207 -147
-253 -180 -124 -88 -134 -93 -164 -87 -16 3 -28 9 -28 13 0 4 21 21 48 38 78
50 165 112 192 136 32 29 320 233 380 269 25 15 64 43 87 62 57 45 134 72 245
86 51 6 95 13 98 15 2 3 16 4 30 2 20 -2 25 -8 23 -30z m-4755 -35 c-4 -22
-22 -20 -26 1 -2 10 3 16 13 16 10 0 15 -7 13 -17z m1667 -3 c19 -12 56 -22
86 -24 40 -3 56 -9 70 -27 15 -21 20 -22 44 -11 22 10 33 9 60 -4 52 -24 59
-37 44 -81 -6 -21 -25 -53 -42 -72 -39 -45 -58 -91 -46 -113 22 -42 -1 -188
-30 -188 -6 0 -24 -14 -41 -30 -21 -20 -38 -29 -49 -25 -10 3 -24 -1 -31 -10
-7 -8 -28 -15 -47 -15 -18 0 -36 -6 -39 -13 -6 -18 -86 -16 -92 3 -6 16 -37
47 -76 73 -16 11 -26 27 -26 43 0 14 -7 33 -16 41 -10 11 -13 24 -9 42 4 14 8
37 10 51 7 72 19 131 26 136 5 2 19 -2 31 -10 35 -22 74 -10 98 32 18 31 20
46 16 122 -7 110 -1 117 59 80z m-1275 -140 c0 -5 -4 -10 -9 -10 -6 0 -13 5
-16 10 -3 6 1 10 9 10 9 0 16 -4 16 -10z m4190 -154 c-22 -21 -84 -32 -78 -15
4 13 38 25 78 28 13 1 13 -1 0 -13z m-370 -317 c0 -12 -50 -59 -62 -59 -14 0
-9 17 13 44 21 27 49 35 49 15z m-8970 -29 c0 -5 -4 -10 -10 -10 -5 0 -10 5
-10 10 0 6 5 10 10 10 6 0 10 -4 10 -10z m5840 -15 c0 -9 -9 -15 -21 -15 -18
0 -19 2 -9 15 7 8 16 15 21 15 5 0 9 -7 9 -15z m2455 -11 c0 -15 -6 -18 -25
-16 -34 5 -37 10 -14 27 24 18 39 14 39 -11z m-1905 7 c0 -6 -4 -13 -10 -16
-5 -3 -10 1 -10 9 0 9 5 16 10 16 6 0 10 -4 10 -9z m2395 -36 c0 -17 -9 -21
-60 -27 -75 -8 -92 5 -38 30 56 25 98 23 98 -3z m-7528 -200 c6 -18 -23 -55
-44 -55 -17 0 -17 20 3 48 18 26 32 28 41 7z m5493 -60 l0 -53 -107 -6 c-60
-4 -136 -9 -169 -11 -46 -4 -64 -2 -73 9 -28 34 7 63 84 72 64 7 149 25 160
34 7 6 19 8 27 5 8 -3 25 -2 39 3 34 14 39 7 39 -53z m-5870 -305 c0 -6 -22
-54 -49 -108 -67 -134 -144 -364 -196 -581 -36 -155 -42 -163 -119 -161 -34 1
-108 -5 -166 -14 -71 -11 -153 -16 -260 -14 l-155 3 1 60 c1 66 30 198 50 230
7 11 23 50 35 87 12 37 29 74 38 82 9 7 57 28 107 45 231 79 407 173 634 340
55 40 80 50 80 31z m7784 -39 c18 -7 18 -8 -5 -14 -51 -14 -102 -4 -82 17 8 8
63 6 87 -3z m595 -17 c2 -2 -12 -4 -32 -4 -20 0 -37 4 -37 10 0 8 58 3 69 -6z
m64 -1 c-7 -2 -21 -2 -30 0 -10 3 -4 5 12 5 17 0 24 -2 18 -5z m-2660 -162
c20 -20 -2 -24 -69 -11 -37 7 -91 10 -125 6 -55 -5 -70 0 -51 18 11 12 232 0
245 -13z m2167 -331 c0 -12 -177 -13 -235 -1 -29 6 -3 9 98 10 85 1 137 -3
137 -9z m-7620 -86 c0 -12 -55 -94 -63 -94 -5 0 -7 3 -5 8 2 4 10 21 18 37 8
17 18 36 23 43 10 13 27 17 27 6z m7540 -94 c430 -11 614 -20 631 -30 6 -4 8
-13 4 -20 -6 -10 -53 -11 -204 -6 -108 4 -277 9 -376 12 -263 8 -495 21 -502
27 -3 4 -3 13 1 22 5 13 14 15 44 11 20 -4 201 -11 402 -16z m-7624 -75 c-28
-53 2 -61 51 -13 28 27 33 29 39 14 9 -25 -16 -66 -53 -89 -29 -17 -33 -24
-33 -60 0 -23 4 -48 9 -56 14 -23 41 -5 41 27 0 62 11 93 33 90 14 -2 24 -14
29 -37 9 -32 10 -32 28 -16 11 10 18 22 17 29 -5 25 98 -1 135 -35 18 -16 42
-28 57 -27 14 0 147 0 294 -1 148 -1 284 1 303 5 33 6 62 35 77 76 7 19 83 26
196 17 67 -5 75 -8 98 -38 16 -21 31 -30 42 -26 9 3 62 6 117 7 91 1 103 -1
140 -24 42 -27 64 -73 64 -134 0 -29 -63 -157 -102 -206 -18 -22 -20 -34 -14
-82 7 -51 10 -56 32 -56 17 0 24 -6 24 -19 0 -10 10 -31 22 -47 12 -15 23 -34
24 -41 1 -7 10 -20 19 -29 12 -12 15 -26 11 -46 -3 -18 0 -41 10 -59 11 -23
12 -34 4 -44 -6 -8 -10 -24 -8 -37 3 -20 -2 -24 -37 -29 -22 -4 -67 -12 -100
-18 -77 -14 -75 -14 -75 7 0 27 20 42 55 42 35 0 55 15 55 41 0 15 -7 15 -67
-7 -77 -27 -150 -31 -178 -10 -19 14 -19 15 -1 35 18 19 18 23 2 70 -27 84
-15 168 28 187 11 5 23 18 25 29 5 28 20 45 42 45 14 0 19 7 19 25 0 25 0 25
-26 8 -25 -16 -27 -16 -43 3 -9 10 -29 26 -46 34 -46 22 -51 24 -37 9 14 -16
16 -55 2 -64 -15 -9 -12 -46 5 -65 14 -15 14 -18 0 -30 -9 -7 -39 -15 -68 -18
-29 -2 -59 -10 -67 -17 -24 -19 -262 -43 -340 -34 -14 1 -66 -1 -117 -5 -88
-8 -91 -7 -98 14 -4 12 -3 26 3 32 5 5 8 26 6 46 -3 21 -1 42 3 48 4 7 42 15
83 18 41 4 107 11 145 15 39 5 117 14 175 21 58 6 121 15 140 21 19 5 47 9 62
9 15 0 30 5 34 11 8 14 -159 8 -316 -11 -52 -7 -113 -13 -135 -14 -96 -7 -185
-19 -185 -26 0 -4 -9 -10 -21 -13 -15 -4 -19 -11 -15 -25 8 -23 -28 -72 -51
-72 -9 0 -24 6 -32 14 -22 19 -66 32 -56 16 4 -7 -2 -25 -14 -41 -11 -15 -21
-38 -21 -50 0 -28 -27 -59 -52 -59 -15 0 -18 8 -18 43 0 23 -4 56 -9 73 l-9
32 59 12 c46 10 59 17 59 31 0 14 -8 19 -32 21 -77 3 -113 -11 -104 -41 3 -9
-10 -33 -28 -55 -34 -39 -34 -39 -60 -23 -14 10 -26 24 -26 33 0 8 -5 25 -12
37 -6 12 -13 40 -15 62 -3 32 1 43 19 57 19 14 21 19 10 30 -11 11 -16 10 -27
-6 -13 -17 -19 -18 -77 -7 -85 16 -163 28 -283 41 -55 6 -134 16 -175 22 -41
6 -124 12 -185 13 -145 3 -229 13 -278 35 -29 13 -47 16 -64 9 -19 -7 -23 -5
-23 10 0 36 49 45 198 36 192 -10 221 -12 357 -25 66 -6 191 -14 278 -17 140
-5 159 -3 170 11 7 9 32 22 55 29 51 15 55 29 12 40 -28 7 -31 11 -26 33 5 19
1 30 -16 44 -26 21 -44 12 -59 -27 -8 -22 -16 -23 -123 -14 -5 1 -5 20 -2 44
4 23 11 76 16 117 9 83 31 151 37 114 2 -11 -3 -33 -11 -49z m954 -55 c0 -5
-7 -10 -15 -10 -8 0 -15 5 -15 10 0 6 7 10 15 10 8 0 15 -4 15 -10z m3824
-508 c38 -62 41 -86 9 -66 -17 11 -23 21 -41 64 -5 14 -15 38 -21 53 -6 15
-11 33 -11 40 0 13 12 -3 64 -91z m548 -139 c8 -10 21 -40 27 -67 7 -27 19
-65 27 -84 17 -42 13 -49 -23 -33 -23 11 -201 33 -260 33 -19 0 -23 9 -33 67
-7 36 -13 71 -14 76 0 6 46 12 114 16 63 3 122 6 131 7 9 1 23 -6 31 -15z
m-5031 -55 c5 -38 -4 -294 -10 -300 -20 -22 -28 18 -34 154 -3 80 -3 149 0
152 11 11 43 6 44 -6z m319 -18 c0 -5 -7 -10 -15 -10 -8 0 -15 5 -15 10 0 6 7
10 15 10 8 0 15 -4 15 -10z m420 -174 c0 -2 -7 -7 -16 -10 -8 -3 -12 -2 -9 4
6 10 25 14 25 6z m-2087 -63 c4 -2 7 -11 7 -19 0 -17 -34 -18 -79 -3 -31 11
-37 19 -24 33 7 7 80 -1 96 -11z m2517 -3 c0 -5 -12 -10 -27 -9 l-28 1 25 8
c14 4 26 8 28 9 1 1 2 -3 2 -9z m4010 -44 c0 -3 -4 -8 -10 -11 -5 -3 -10 -1
-10 4 0 6 5 11 10 11 6 0 10 -2 10 -4z m189 -233 c45 -5 76 -13 79 -20 2 -7
-3 -13 -12 -13 -24 0 -19 -28 7 -41 12 -7 64 -15 116 -18 l95 -6 -3 -70 c-1
-38 -7 -75 -12 -82 -6 -7 -56 -13 -132 -16 -67 -3 -250 -9 -407 -15 -157 -6
-323 -14 -368 -17 -83 -7 -84 -7 -77 -32 9 -37 -7 -49 -67 -47 -51 2 -53 3
-53 31 0 36 -11 44 -55 38 -19 -3 -237 -13 -485 -22 -494 -18 -492 -17 -518
-28 -24 -10 -51 13 -36 31 6 8 21 14 32 14 18 0 19 5 14 63 -3 34 -8 69 -12
78 -5 14 7 17 89 23 60 5 102 3 115 -3 14 -8 22 -7 30 3 9 11 6 20 -14 42 -35
37 -29 59 15 57 24 -1 40 -9 53 -28 19 -25 20 -25 38 -9 16 14 42 18 132 21
128 3 126 -11 -3 -21 -67 -5 -89 -11 -105 -28 l-20 -20 40 5 c22 4 96 7 165 7
69 1 199 6 290 11 91 5 212 11 270 14 190 8 290 17 290 27 0 5 -21 8 -46 7
-31 -2 -48 2 -54 12 -13 20 37 28 178 28 108 1 142 -9 85 -24 -26 -7 -26 -8
-8 -15 28 -12 103 -12 110 0 3 5 -8 16 -25 25 -28 15 -38 34 -24 48 7 7 183 1
293 -10z m-661 -29 c6 -2 12 -12 12 -23 0 -24 -35 -36 -83 -28 -17 3 -119 1
-225 -6 -179 -10 -194 -9 -210 7 -34 34 2 42 191 44 96 1 185 6 198 11 21 8
82 6 117 -5z m-6429 -164 c1 -8 -8 0 -19 18 -11 18 -20 42 -19 55 0 17 5 13
19 -18 10 -22 19 -47 19 -55z m7436 -50 c0 -22 -29 -18 -33 3 -3 14 1 18 15
15 10 -2 18 -10 18 -18z m-5615 -20 c39 -12 101 -22 164 -24 71 -3 118 -11
154 -25 29 -12 66 -21 82 -21 16 0 32 -5 36 -11 4 -7 22 -9 45 -6 26 3 42 0
50 -9 14 -17 6 -20 -71 -29 -30 -3 -69 -15 -86 -26 -17 -10 -33 -17 -36 -14
-2 3 -45 -2 -94 -11 -49 -9 -111 -19 -139 -23 -27 -4 -55 -10 -61 -14 -7 -4
-43 -9 -81 -12 -38 -2 -82 -9 -97 -15 -15 -5 -49 -10 -76 -10 -27 0 -51 -4
-54 -9 -4 -5 -25 -12 -49 -16 -23 -4 -46 -11 -52 -15 -5 -5 -46 -11 -90 -14
-129 -9 -166 -13 -204 -24 -20 -6 -108 -21 -196 -32 -88 -12 -203 -30 -255
-40 -52 -11 -147 -26 -210 -35 -246 -34 -337 -47 -385 -55 -51 -9 -239 -30
-264 -30 -24 0 1 16 44 28 113 31 130 38 130 47 0 17 -54 17 -99 0 -24 -9 -53
-14 -65 -10 -20 6 -37 38 -27 54 9 14 138 22 176 11 50 -14 181 -24 224 -16
38 7 62 36 52 63 -5 12 -10 11 -32 -6 -15 -12 -37 -21 -50 -21 -14 0 -33 -5
-43 -12 -30 -18 -54 -3 -48 31 4 19 1 33 -8 41 -21 17 -19 37 5 50 10 6 17 16
14 24 -7 18 14 25 99 32 l72 6 -25 -21 c-14 -11 -34 -21 -46 -21 -11 0 -29 -6
-39 -14 -16 -12 -17 -16 -6 -30 10 -12 11 -19 2 -30 -21 -26 6 -27 91 -5 46
11 119 23 163 25 76 5 139 14 340 50 50 9 124 20 165 25 41 4 113 19 161 33
123 36 305 59 422 54 107 -5 98 -11 102 62 1 14 5 40 10 58 7 31 8 32 65 32
32 0 86 -9 120 -20z m-222 -2 c-3 -7 -22 -14 -44 -16 -37 -2 -38 -1 -20 13 24
18 69 20 64 3z m-180 -30 c-3 -25 4 -22 -173 -53 -79 -13 -93 -19 -115 -45
-22 -27 -31 -30 -82 -30 -71 0 -304 -35 -377 -57 -51 -16 -54 -16 -67 1 -27
38 16 62 106 58 60 -3 149 14 170 33 11 10 38 15 79 15 49 0 72 6 105 25 31
18 78 30 177 45 74 11 139 22 144 24 25 10 36 5 33 -16z m6100 -90 c1 -110 -4
-129 -36 -126 -22 3 -28 -2 -38 -32 -10 -30 -9 -40 8 -72 23 -41 20 -101 -6
-122 -8 -6 -16 -22 -18 -36 -7 -46 -18 174 -15 315 l2 140 36 -3 c21 -2 40 2
44 7 14 24 22 -1 23 -71z m-7408 -51 c0 -5 -7 -4 -15 3 -8 7 -15 20 -15 29 1
13 3 13 15 -3 8 -11 15 -24 15 -29z m5038 24 c14 -9 22 -470 9 -478 -19 -11
31 -21 116 -22 61 -1 77 -4 77 -16 0 -8 6 -15 13 -16 24 -2 259 6 311 10 14 2
-17 33 -43 42 -34 14 -16 25 52 33 48 5 59 4 64 -10 4 -12 -3 -25 -23 -41
l-29 -23 25 1 c14 0 63 -5 110 -12 67 -9 114 -9 225 0 77 7 163 12 192 11 28
0 54 4 58 10 5 8 15 6 33 -6 22 -15 58 -18 212 -22 133 -3 182 -1 175 7 -6 6
-36 12 -68 13 -31 1 -57 5 -57 9 0 3 39 9 86 13 73 5 91 4 113 -11 33 -22 53
-19 117 18 69 39 114 38 164 -1 53 -42 58 -72 29 -189 -16 -70 -29 -102 -47
-117 -20 -18 -25 -34 -32 -120 -5 -54 -12 -179 -16 -277 -4 -97 -10 -175 -13
-172 -3 3 -8 35 -12 71 -3 36 -10 68 -13 72 -14 14 -41 -16 -38 -43 2 -17 -1
-24 -7 -20 -6 3 -11 13 -11 21 0 8 -4 14 -10 14 -5 0 -10 -6 -10 -12 0 -9 -3
-9 -9 1 -5 8 -6 24 -1 37 6 16 5 26 -5 34 -7 6 -16 29 -20 51 -4 22 -15 48
-25 57 -9 9 -19 24 -22 32 -3 8 -5 -4 -5 -28 0 -23 -3 -45 -7 -49 -13 -13 -19
8 -18 67 1 71 -17 90 -85 90 -23 0 -45 4 -48 10 -3 5 -20 7 -37 3 -22 -4 -29
-3 -24 5 4 7 14 12 22 12 8 0 12 5 9 10 -3 6 -19 10 -35 10 -23 0 -27 3 -23
20 6 23 -15 28 -35 8 -19 -19 -14 -36 10 -40 26 -4 35 -26 14 -34 -25 -10 -66
23 -66 51 0 30 -15 32 -32 5 -13 -20 -38 -26 -52 -13 -3 4 -25 7 -49 8 -23 1
-57 5 -74 9 -27 6 -33 4 -33 -9 0 -8 7 -18 15 -21 26 -10 16 -21 -15 -16 -20
3 -32 -1 -35 -10 -4 -10 -15 -13 -31 -10 -47 9 -35 29 14 23 6 -1 12 3 12 9 0
5 -6 10 -14 10 -8 0 -22 7 -30 15 -22 22 -111 31 -141 15 -19 -10 -28 -10 -38
-1 -11 9 -17 8 -28 -5 -9 -11 -23 -14 -46 -11 -55 9 -132 -21 -90 -36 6 -2 9
-8 5 -12 -4 -4 -15 -2 -24 6 -14 11 -17 10 -25 -4 -14 -24 -23 -22 -62 13 -19
16 -37 27 -40 23 -4 -3 -13 -1 -20 6 -11 8 -22 7 -47 -5 -25 -13 -48 -15 -101
-10 -65 6 -69 5 -69 -14 0 -11 -4 -20 -10 -20 -5 0 -10 11 -10 25 0 25 -23 35
-35 15 -4 -6 -15 -6 -31 0 -16 7 -32 7 -44 0 -27 -15 -32 -12 -20 9 7 13 7 22
0 26 -6 3 -13 -1 -16 -9 -3 -9 -16 -16 -28 -16 -11 0 -29 -7 -39 -14 -16 -12
-22 -12 -45 0 -15 8 -33 14 -40 14 -7 0 -12 8 -10 17 4 24 -68 37 -98 18 -17
-11 -22 -11 -32 3 -10 15 -12 15 -21 2 -14 -20 -14 -80 0 -80 5 0 3 -10 -5
-22 -9 -12 -16 -28 -16 -36 0 -19 41 -30 75 -21 25 8 34 5 54 -16 36 -35 18
-50 -43 -37 -35 7 -52 6 -73 -5 -25 -13 -29 -12 -40 3 -8 12 -10 31 -6 58 4
23 6 70 5 106 -1 36 -3 112 -4 170 l-3 105 115 1 c146 2 300 14 300 24 0 8
-197 20 -331 20 -71 0 -88 3 -93 16 -10 27 13 43 66 46 53 3 62 10 73 61 4 22
11 27 34 27 42 0 46 13 9 26 -28 10 -33 15 -30 40 2 16 9 36 16 44 7 8 14 39
14 69 1 34 7 60 17 71 12 13 14 28 10 54 -8 41 -11 43 -37 19 -10 -9 -20 -14
-22 -12 -4 4 -9 113 -7 147 1 9 16 12 51 11 27 -2 54 -5 58 -8z m-5073 -91
c-20 -22 -79 -28 -73 -8 5 13 38 25 72 27 18 1 18 0 1 -19z m1842 -36 c-3 -3
-12 -4 -19 -1 -8 3 -5 6 6 6 11 1 17 -2 13 -5z m260 0 c-3 -3 -12 -4 -19 -1
-8 3 -5 6 6 6 11 1 17 -2 13 -5z m-454 -21 c15 -14 -31 -32 -83 -33 -39 0 -51
3 -40 10 8 5 29 10 45 10 17 0 37 5 45 10 18 12 24 12 33 3z m360 0 c-7 -2
-21 -2 -30 0 -10 3 -4 5 12 5 17 0 24 -2 18 -5z m741 -9 c7 -19 -1 -34 -19
-34 -18 0 -28 17 -21 35 7 20 32 19 40 -1z m-827 -10 c-15 -8 -42 -14 -60 -12
-31 4 -31 4 13 15 64 15 79 15 47 -3z m7755 -21 c20 -24 29 -51 19 -58 -5 -3
-18 13 -30 35 -21 41 -16 53 11 23z m-8234 -10 c-10 -2 -26 -2 -35 0 -10 3 -2
5 17 5 19 0 27 -2 18 -5z m300 0 c-10 -2 -26 -2 -35 0 -10 3 -2 5 17 5 19 0
27 -2 18 -5z m-83 -13 c-3 -5 -23 -9 -43 -9 l-37 1 30 8 c44 11 57 11 50 0z
m-1935 -54 c0 -3 -4 -8 -10 -11 -5 -3 -10 -1 -10 4 0 6 5 11 10 11 6 0 10 -2
10 -4z m1629 0 c-2 -2 -21 -6 -42 -10 -27 -5 -37 -4 -32 3 3 6 22 11 42 11 20
0 34 -2 32 -4z m-1792 -12 c-3 -3 -12 -4 -19 -1 -8 3 -5 6 6 6 11 1 17 -2 13
-5z m6571 -14 c21 -14 31 -50 13 -50 -5 0 -24 6 -42 14 -26 10 -86 13 -246 11
-117 -1 -213 1 -213 5 0 24 98 35 315 35 116 0 155 -3 173 -15z m-5341 -76
c-3 -3 -12 -4 -19 -1 -8 3 -5 6 6 6 11 1 17 -2 13 -5z m5415 -71 c28 -25 22
-38 -28 -52 -43 -13 -47 -12 -67 7 l-20 21 29 12 c16 6 36 15 44 19 21 12 21
12 42 -7z m-4283 -4 c24 -8 39 -9 56 -1 33 15 38 3 30 -63 -8 -57 -19 -70 -30
-35 -3 11 -12 20 -20 20 -17 0 -39 -57 -36 -93 3 -32 -21 -46 -45 -27 -10 9
-12 16 -4 24 15 15 12 30 -4 17 -8 -7 -18 -38 -21 -69 -3 -31 -11 -66 -16 -78
-6 -11 -9 -36 -7 -55 3 -36 5 -36 63 -23 53 12 55 45 3 63 -36 13 -31 24 21
41 33 11 40 18 46 46 3 19 11 34 16 34 25 0 -36 -455 -71 -537 -5 -13 -17 -23
-25 -23 -9 0 -20 -12 -25 -26 -8 -19 -15 -24 -28 -19 -9 4 -25 8 -35 10 -9 2
-22 7 -27 10 -6 4 -30 -14 -53 -38 -30 -32 -52 -47 -77 -50 -19 -3 -54 -9 -77
-12 -64 -11 -73 1 -73 99 0 79 3 97 33 202 25 87 39 109 72 110 43 2 65 13 65
34 0 9 9 29 20 43 11 14 20 30 20 36 0 6 6 11 13 11 7 0 25 18 40 40 l26 40
-29 0 c-26 0 -29 4 -35 44 -8 51 -2 66 26 66 11 0 39 10 62 22 23 12 49 21 59
19 13 -2 16 7 15 49 -1 32 -6 50 -14 50 -14 0 -17 13 -6 23 9 10 36 8 72 -4z
m5435 -15 c8 -21 -3 -84 -15 -84 -5 0 -9 23 -9 50 0 49 12 66 24 34z m71 7 c3
-5 1 -12 -5 -16 -5 -3 -10 1 -10 9 0 18 6 21 15 7z m-5665 -49 c0 -10 -69 -36
-77 -29 -5 6 46 34 65 36 6 1 12 -3 12 -7z m2255 -2 c-3 -5 -13 -10 -21 -10
-8 0 -12 5 -9 10 3 6 13 10 21 10 8 0 12 -4 9 -10z m3347 -139 c2 -13 -3 -26
-9 -28 -9 -3 -13 7 -13 33 0 41 17 37 22 -5z m-12 -98 c-1 -24 -2 -26 -11 -10
-5 9 -7 22 -4 27 10 17 15 11 15 -17z m70 -33 c0 -5 -11 -10 -24 -10 -14 0
-28 5 -31 10 -4 6 7 10 24 10 17 0 31 -4 31 -10z m-2503 -166 c-3 -3 -12 -4
-19 -1 -8 3 -5 6 6 6 11 1 17 -2 13 -5z m48 -4 c3 -5 2 -10 -4 -10 -5 0 -13 5
-16 10 -3 6 -2 10 4 10 5 0 13 -4 16 -10z m622 -15 c10 -22 9 -25 -7 -25 -23
0 -34 16 -26 35 8 22 19 18 33 -10z m746 0 c1 -5 -14 -11 -33 -13 -33 -2 -34
-2 -15 13 21 17 45 17 48 0z m-928 -5 c3 -5 1 -10 -4 -10 -6 0 -11 5 -11 10 0
6 2 10 4 10 3 0 8 -4 11 -10z m460 0 c3 -5 4 -14 0 -20 -7 -11 -55 8 -55 22 0
11 48 10 55 -2z m105 0 c0 -5 -7 -10 -16 -10 -8 0 -12 5 -9 10 3 6 10 10 16
10 5 0 9 -4 9 -10z m-465 -70 c-3 -5 -20 -10 -36 -10 -18 0 -28 4 -24 10 3 6
20 10 36 10 18 0 28 -4 24 -10z m-3690 -336 c-9 -43 -15 -94 -13 -114 l3 -35
-95 0 c-110 1 -174 11 -164 27 4 6 25 8 54 5 41 -5 51 -2 81 22 19 15 42 30
51 34 10 3 33 38 53 78 20 39 39 69 41 66 3 -3 -2 -40 -11 -83z m5615 -70 c6
-14 10 -55 10 -91 l0 -65 -37 7 c-21 3 -41 10 -44 13 -4 4 -9 35 -13 69 -5 60
-5 63 22 76 40 22 51 20 62 -9z m-4201 -448 c18 -22 -2 -28 -71 -21 -77 8 -91
12 -83 25 10 16 140 13 154 -4z m-4 -75 c3 -5 1 -13 -5 -16 -15 -9 -43 3 -35
15 8 13 32 13 40 1z m-437 -92 c18 -11 41 -19 52 -19 26 0 116 -63 181 -127
l57 -55 88 7 c89 6 175 9 289 7 33 0 74 0 90 0 17 1 70 -4 120 -10 l90 -12 20
26 20 25 235 -5 c129 -3 255 -5 279 -6 31 0 50 5 66 20 25 23 52 25 79 5 11
-8 41 -15 67 -15 61 0 96 -13 137 -53 31 -30 32 -33 32 -115 0 -46 5 -92 11
-103 17 -32 1 -78 -34 -100 -26 -15 -51 -19 -129 -19 -57 0 -100 -4 -103 -11
-4 -5 5 -21 19 -34 l26 -24 0 -216 c0 -187 -2 -221 -17 -246 -16 -27 -16 -31
0 -58 21 -36 23 -114 2 -131 -9 -8 -15 -36 -17 -87 -3 -81 -17 -103 -54 -89
-16 6 -16 9 9 32 25 23 27 29 21 77 -4 32 -16 63 -30 80 -34 40 -31 51 12 44
l36 -6 -7 37 c-10 47 -10 67 0 169 10 107 -10 356 -33 400 -11 22 -30 37 -60
49 -24 9 -40 20 -35 25 4 4 40 11 78 15 39 3 80 13 93 21 19 12 28 12 68 -2
58 -20 66 -19 93 6 20 19 21 22 7 38 -18 20 -21 93 -6 138 8 22 7 38 -5 66
-13 31 -20 37 -45 37 -16 0 -41 -5 -54 -12 -21 -9 -29 -8 -43 3 -35 29 -74 41
-90 27 -10 -8 -47 -12 -104 -12 -66 1 -89 -3 -93 -13 -5 -11 -10 -11 -27 -2
-16 8 -27 8 -45 -1 -26 -15 -54 -7 -54 14 0 19 -61 28 -170 24 l-85 -3 3 -50
c1 -27 3 -66 3 -85 -1 -41 12 -51 53 -39 17 5 50 9 74 9 24 0 56 7 72 15 27
14 60 12 60 -4 0 -13 -200 -63 -224 -57 -46 11 -55 0 -50 -62 9 -102 9 -102
59 -102 25 0 54 6 65 12 15 10 22 10 32 0 6 -6 22 -12 34 -12 40 0 46 -20 38
-129 -6 -93 -5 -103 13 -124 23 -24 35 -74 21 -83 -5 -3 -8 -36 -7 -72 1 -72
-8 -122 -22 -122 -19 0 -8 -21 16 -32 20 -9 23 -14 13 -26 -8 -9 -13 -58 -14
-138 -3 -155 4 -167 87 -144 27 8 48 6 85 -5 27 -8 52 -15 57 -15 11 0 8 28
-5 49 -13 21 -4 55 14 49 7 -3 15 -17 19 -32 4 -15 15 -33 25 -40 16 -12 16
-14 -1 -40 -31 -47 -50 -50 -88 -16 -33 28 -39 30 -120 30 -71 0 -86 3 -93 18
-5 9 -9 143 -10 297 -1 272 -13 517 -25 529 -3 4 -51 9 -105 12 -54 3 -100 9
-102 13 -1 5 -9 17 -17 27 -12 17 -16 18 -47 5 -18 -8 -65 -16 -105 -19 -67
-3 -74 -2 -115 28 -23 17 -49 42 -56 56 -14 27 -11 26 -69 29 -55 4 -65 -9
-61 -87 l3 -63 145 -7 c80 -4 162 -7 183 -7 22 0 54 -5 72 -11 33 -11 34 -12
40 -83 4 -40 6 -83 4 -97 -1 -14 -1 -67 -1 -118 l2 -94 35 -31 c45 -39 44 -65
-1 -105 -34 -30 -36 -36 -30 -72 7 -43 2 -48 -24 -25 -38 34 -312 112 -355
101 -11 -3 -35 0 -52 6 -32 12 -33 14 -33 65 0 82 -16 93 -139 93 -110 0 -123
8 -96 60 8 16 15 37 15 47 1 10 9 28 19 40 17 21 26 22 122 21 57 -1 116 2
132 6 l27 8 -6 -121 c-3 -67 -3 -132 0 -145 7 -28 32 -39 156 -66 52 -11 114
-26 138 -32 30 -9 48 -9 59 -2 22 14 35 64 24 89 -21 44 -27 116 -16 171 5 20
1 42 -8 60 -13 25 -13 32 -1 49 19 25 18 55 -3 85 -10 14 -18 32 -18 40 0 18
-80 27 -266 29 -83 1 -130 5 -141 14 -12 9 -17 37 -21 109 -3 54 -2 100 3 103
4 3 49 2 98 -1 89 -7 91 -8 103 -36 21 -52 48 -62 151 -55 50 3 95 10 100 15
5 5 4 33 -3 68 -6 32 -12 84 -13 114 -1 30 -5 61 -9 67 -15 24 -90 34 -278 38
-155 3 -191 2 -195 -10 -8 -20 -34 -27 -51 -14 -9 8 -37 10 -83 6 -56 -5 -71
-3 -78 9 -17 31 -118 127 -159 150 -29 18 -49 23 -67 18 -21 -5 -32 -1 -49 18
-29 31 -96 41 -194 29 -87 -11 -164 -45 -220 -97 -101 -94 -153 -135 -163
-129 -6 4 -15 17 -20 30 -6 15 -20 25 -42 28 -18 3 -48 9 -65 13 -21 4 -47 0
-73 -10 -27 -11 -54 -14 -85 -9 -78 10 -82 -3 -54 -177 6 -37 7 -96 3 -135 -4
-38 -7 -90 -8 -115 l-1 -45 -55 -7 c-30 -3 -63 -8 -74 -10 -18 -3 -19 6 -17
198 2 156 -1 204 -11 215 -7 8 -19 27 -26 43 -12 26 -15 28 -55 22 -23 -3 -70
-9 -103 -12 -42 -4 -70 -13 -90 -29 -27 -21 -28 -25 -15 -49 9 -17 11 -30 4
-38 -5 -7 -11 -86 -12 -176 -2 -171 2 -192 41 -192 11 0 16 -5 13 -10 -4 -6
-14 -8 -24 -5 -39 12 -49 -14 -56 -153 -7 -127 -6 -134 13 -138 17 -5 19 -12
14 -74 -2 -37 -1 -121 3 -186 7 -113 8 -119 36 -145 24 -23 26 -28 13 -33 -27
-10 -53 3 -69 34 -11 22 -15 67 -15 187 0 127 -3 163 -16 181 -19 27 -28 27
-79 3 -22 -11 -47 -22 -56 -25 -13 -3 -17 -29 -22 -153 -4 -82 -10 -164 -13
-181 -10 -47 -45 -62 -151 -62 -54 -1 -94 -5 -104 -13 -12 -9 -62 -12 -179
-10 -162 2 -163 2 -192 29 -15 15 -28 35 -28 44 0 9 -6 36 -14 61 -25 80 -39
178 -28 192 14 16 3 32 -25 41 -23 7 -25 13 -27 97 -1 17 -12 35 -30 50 -28
22 -28 22 -24 119 2 54 9 104 15 111 6 8 13 28 16 44 3 17 11 48 17 70 7 22
15 74 19 116 4 52 12 83 23 96 10 11 18 33 18 49 1 66 26 127 61 151 18 13 41
23 49 23 9 0 21 5 27 11 6 6 44 10 84 10 41 -1 95 5 122 11 36 9 50 9 59 0 15
-15 74 -16 83 -2 3 6 46 10 95 10 l89 0 41 -39 41 -38 -2 -112 c-2 -93 -6
-114 -21 -128 -24 -22 -88 -33 -230 -41 -129 -8 -152 -18 -119 -51 25 -25 27
-58 5 -89 -20 -29 -12 -38 23 -24 15 6 84 13 153 16 69 2 132 7 141 11 9 3 42
-1 72 -10 48 -14 57 -20 62 -46 7 -31 19 -37 32 -16 4 6 9 115 10 241 2 199 4
231 19 247 20 22 74 39 126 39 20 0 40 5 43 10 11 18 116 11 160 -10 l41 -20
-3 -202 c-1 -112 2 -209 6 -217 5 -8 16 -11 24 -8 10 4 17 28 21 84 7 86 7 80
0 245 -6 140 1 164 49 153 41 -9 73 -9 179 0 47 4 95 4 105 0 10 -4 37 -9 61
-11 38 -3 48 2 91 39 94 81 130 107 146 107 9 0 30 8 48 17 64 35 256 36 315
2z m-48 -106 c46 -17 99 -49 112 -68 4 -5 8 -25 8 -44 0 -21 9 -44 25 -63 30
-36 31 -43 5 -103 -11 -26 -20 -64 -20 -84 0 -40 -18 -63 -56 -75 -12 -4 -26
-17 -32 -30 -14 -31 -78 -62 -97 -46 -8 7 -17 20 -20 31 -9 27 -34 24 -45 -6
-6 -16 -17 -25 -30 -25 -12 0 -30 -5 -41 -11 -15 -7 -27 -6 -50 5 -27 14 -37
13 -105 -4 -119 -31 -146 -58 -147 -151 -1 -96 52 -148 132 -130 46 10 46 -1
0 -24 -36 -19 -113 -11 -158 16 -35 21 -42 61 -16 95 8 10 15 31 15 46 0 15 7
42 15 60 8 18 21 59 30 91 9 33 24 62 35 70 26 15 28 52 3 42 -43 -18 -58 -11
-72 33 -7 24 -10 57 -7 76 8 39 72 148 110 187 109 108 285 157 406 112z
m5865 -40 c48 -8 50 -9 58 -48 5 -22 8 -55 7 -72 -3 -70 0 -243 5 -339 l6
-101 -37 -22 c-35 -21 -36 -22 -19 -41 10 -11 26 -20 37 -20 10 0 24 -11 30
-25 8 -18 19 -25 40 -25 42 0 38 -41 -7 -84 -34 -33 -35 -35 -33 -102 3 -69 3
-69 37 -80 18 -6 38 -18 43 -27 5 -10 18 -17 28 -17 32 0 23 -13 -30 -43 l-49
-28 3 -84 c1 -47 -1 -90 -5 -97 -13 -21 -101 -40 -194 -42 -108 -1 -109 -1
-132 32 -15 23 -19 55 -23 202 l-5 175 -37 3 c-44 4 -50 17 -10 25 15 3 39 9
55 13 24 6 27 4 27 -20 0 -15 5 -36 11 -47 6 -12 7 -28 3 -37 -4 -9 -9 -41
-10 -69 -2 -52 -1 -53 30 -61 37 -10 41 -36 6 -41 -23 -3 -39 -16 -40 -33 0
-4 17 -15 38 -24 l37 -16 -32 -10 c-39 -10 -42 -31 -8 -54 22 -14 41 -16 123
-10 66 5 101 12 108 21 17 23 17 301 0 328 -20 31 3 143 33 164 28 19 26 33
-3 33 -16 0 -27 7 -31 20 -6 19 -71 69 -109 83 -19 8 -19 8 0 27 10 10 35 27
54 38 31 16 35 23 32 52 -2 18 2 44 9 57 10 19 10 28 1 43 -7 11 -12 28 -12
38 0 35 -18 40 -128 35 -59 -3 -111 -9 -116 -13 -4 -5 -9 -46 -10 -92 l-1 -83
-34 -3 c-18 -2 -38 1 -43 6 -4 4 -13 35 -18 68 -10 64 -34 94 -75 94 -22 0
-40 22 -28 34 4 3 19 6 35 6 15 0 45 9 65 20 45 24 65 25 104 5 22 -12 34 -13
49 -5 11 6 48 8 84 5 36 -2 77 0 90 5 25 9 25 12 25 112 0 57 -2 111 -5 121
-8 27 -40 40 -64 25 -14 -9 -25 -10 -37 -2 -11 6 -89 10 -203 10 -163 -1 -189
-3 -223 -21 -33 -16 -41 -17 -59 -6 -20 12 -24 11 -44 -15 -13 -16 -35 -41
-50 -56 -29 -28 -28 -18 -6 -153 5 -29 12 -41 27 -43 27 -4 65 -24 65 -34 0
-4 -21 -13 -46 -19 l-46 -12 7 -121 c13 -228 13 -289 -2 -336 -19 -59 -10
-130 24 -183 23 -36 24 -44 14 -77 -15 -50 -15 -50 14 -50 21 0 25 -5 26 -32
0 -18 8 -55 18 -83 17 -48 19 -50 57 -51 21 0 48 -5 60 -11 25 -14 94 -1 110
21 12 17 34 21 34 7 0 -20 -13 -41 -25 -41 -6 0 -20 -9 -30 -20 -23 -25 -49
-25 -73 0 -16 18 -30 20 -112 18 -90 -2 -93 -1 -117 26 -22 25 -23 34 -17 83
l6 54 -37 -3 -38 -3 -1 -65 c-1 -61 -2 -65 -26 -68 -14 -2 -29 -8 -34 -13 -15
-14 -156 -10 -201 5 l-40 14 27 13 c24 10 33 9 62 -6 26 -14 46 -17 90 -12 32
3 64 11 72 18 18 15 18 46 -1 82 -12 24 -13 32 -1 50 17 27 28 155 14 163 -5
3 -7 23 -3 43 9 57 -1 60 -150 52 -71 -4 -138 -5 -147 -3 -25 6 -12 22 17 22
13 0 27 6 32 13 10 17 4 129 -9 144 -19 24 4 33 82 33 43 0 91 4 105 10 23 9
26 15 23 47 l-3 38 -55 5 c-59 6 -51 17 15 22 35 3 40 6 43 30 2 15 -2 36 -8
48 -10 19 -19 20 -190 20 l-180 0 0 30 c0 34 7 37 120 44 227 15 256 18 273
34 10 9 16 21 13 28 -3 7 0 26 7 43 9 25 9 36 -2 52 -9 15 -10 24 -2 32 6 6
11 39 11 74 0 73 -10 83 -89 83 -27 0 -60 4 -73 9 -13 5 -61 5 -113 -1 -50 -5
-121 -8 -158 -8 -69 1 -137 -14 -137 -30 0 -5 -15 -13 -32 -18 -28 -7 -34 -13
-36 -41 -2 -21 3 -40 14 -52 16 -18 16 -20 1 -37 -10 -10 -17 -28 -17 -39 0
-22 -23 -47 -33 -36 -4 3 -7 68 -7 144 0 116 2 138 16 143 9 3 156 6 327 6
286 0 315 -2 347 -19 l35 -18 3 -148 c2 -140 1 -149 -19 -171 -50 -54 -89 -64
-239 -64 -87 0 -140 -4 -140 -10 0 -11 17 -13 175 -15 154 -3 150 -2 163 -30
7 -14 12 -66 12 -115 0 -107 -7 -114 -115 -125 -38 -4 -76 -12 -82 -17 -17
-14 -17 -99 0 -122 14 -19 20 -19 158 0 28 3 55 1 68 -5 19 -11 21 -9 21 18 0
42 9 61 30 61 11 0 22 4 25 10 3 5 1 146 -6 312 -15 396 -18 369 35 424 l44
45 218 0 c136 -1 225 3 234 9 15 11 59 8 155 -7z m-1825 -18 c97 -1 163 -6
177 -13 12 -7 35 -12 51 -12 49 0 58 -18 83 -170 5 -30 12 -76 15 -102 7 -49
18 -59 38 -33 6 9 16 11 24 7 8 -6 12 -48 13 -147 1 -134 5 -159 41 -228 7
-14 5 -24 -7 -37 -12 -13 -15 -28 -11 -48 4 -16 3 -39 -2 -53 -16 -42 0 -64
41 -61 21 2 37 1 37 -2 0 -3 -19 -25 -42 -49 l-43 -42 2 -95 c1 -52 2 -110 2
-127 1 -40 42 -73 69 -56 13 7 25 5 47 -9 l30 -18 -59 0 c-48 0 -65 5 -93 26
l-33 25 0 91 c0 50 -5 108 -12 129 -9 30 -8 44 1 62 12 23 9 359 -4 462 -9 69
-19 75 -58 37 l-33 -32 -143 0 c-142 0 -142 0 -139 22 3 22 6 23 127 21 127
-2 185 10 197 40 3 8 -4 35 -16 60 -13 27 -19 54 -15 66 4 13 -1 27 -15 41
-16 16 -19 25 -11 33 16 16 14 44 -7 102 -17 49 -19 50 -67 58 -74 12 -165 15
-309 9 l-128 -5 -19 -41 c-46 -105 -40 -156 18 -142 14 4 76 7 137 7 74 0 127
5 159 15 39 13 51 14 63 3 9 -7 34 -16 57 -19 l42 -6 -40 -12 c-22 -7 -57 -12
-77 -12 -29 0 -47 -8 -77 -35 -21 -19 -44 -35 -50 -35 -6 0 -21 15 -32 34 -17
30 -26 35 -67 38 -26 3 -57 1 -70 -4 -13 -4 -39 -8 -58 -8 -49 0 -71 -14 -84
-55 -12 -36 -40 -48 -40 -17 0 9 18 69 41 132 22 63 44 132 49 153 4 21 9 39
11 41 12 12 78 24 104 19 17 -3 100 -7 185 -8z m-1727 -20 c18 -11 34 -12 87
-4 36 6 70 10 75 9 6 0 73 -3 150 -6 114 -5 142 -9 153 -22 9 -12 12 -50 10
-132 l-3 -115 -229 -3 c-153 -1 -234 -6 -243 -14 -15 -12 -9 -94 9 -113 5 -6
76 -9 186 -6 237 4 225 16 192 -204 -5 -33 -12 -80 -16 -105 -3 -25 -11 -51
-16 -57 -7 -9 -44 -13 -117 -13 -133 0 -152 -14 -116 -84 18 -33 19 -58 5 -72
-8 -8 -7 -19 1 -37 10 -21 9 -30 -1 -43 -24 -27 -37 -132 -24 -191 5 -27 3
-34 -12 -39 -11 -3 -33 -12 -50 -20 -37 -16 -135 -12 -177 7 -22 10 -33 10
-48 1 -41 -26 -90 -9 -115 39 -12 25 -13 36 -4 59 6 15 10 45 8 66 -3 34 -8
42 -46 62 -36 20 -43 29 -40 50 2 20 11 28 35 34 30 8 31 10 37 76 6 69 6 88
4 145 0 17 3 42 7 54 6 19 2 24 -21 34 -36 13 -64 38 -64 56 0 7 16 23 35 34
l36 21 -1 202 c-1 210 9 290 39 305 9 5 51 11 94 15 43 3 86 10 95 16 25 14
59 12 85 -5z m1121 -23 c22 -32 26 -51 28 -115 3 -81 -10 -105 -26 -50 -6 18
-18 34 -30 37 -14 4 -17 8 -9 18 21 26 21 58 1 83 l-19 25 -177 -6 c-201 -6
-205 -8 -215 -91 -2 -24 -11 -52 -20 -61 -18 -21 -28 -70 -29 -147 0 -37 -7
-72 -18 -93 -19 -36 -17 -62 5 -62 23 0 29 -22 10 -37 -11 -7 -31 -13 -47 -13
-16 0 -28 -5 -28 -12 0 -7 -3 -23 -6 -35 -5 -19 -1 -22 27 -25 42 -4 50 -31
18 -57 -29 -23 -17 -44 20 -36 32 7 57 -15 47 -41 -5 -13 -15 -15 -51 -11 -50
7 -65 -7 -65 -61 0 -32 -35 -71 -50 -56 -5 5 -2 31 8 64 16 56 17 86 6 223 -6
84 1 103 39 109 26 4 36 45 36 149 1 39 7 79 16 95 8 16 15 36 15 45 0 9 7 22
15 29 9 7 15 29 15 52 0 30 7 46 29 69 26 25 37 29 88 29 32 0 65 5 73 10 8 5
72 10 141 10 l126 0 27 -38z m2873 -2 c26 -12 39 -12 66 -2 20 7 87 12 166 12
150 0 201 -13 201 -52 0 -13 9 -34 20 -48 16 -20 20 -41 20 -106 0 -92 -5 -99
-97 -150 -51 -28 -53 -28 -82 -11 -16 9 -43 17 -59 17 -48 0 -63 10 -83 57
-18 43 -18 43 -61 37 -24 -3 -48 -7 -55 -9 -14 -5 -33 -68 -33 -113 0 -41 20
-50 124 -51 42 0 85 -5 96 -11 10 -5 38 -10 62 -11 l43 -1 -39 -10 c-27 -7
-59 -7 -107 1 -37 6 -97 11 -133 11 l-65 0 -11 41 c-8 29 -8 49 0 74 15 46 -2
80 -33 69 -12 -4 -56 -9 -97 -11 -41 -3 -81 -9 -87 -15 -8 -6 -13 -35 -13 -74
0 -57 2 -64 20 -64 27 0 26 -4 -12 -51 -23 -28 -34 -36 -40 -27 -4 7 -8 115
-8 239 0 216 1 227 21 245 37 33 210 42 276 14z m-5007 -20 c0 -5 -9 -10 -21
-10 -11 0 -17 5 -14 10 3 6 13 10 21 10 8 0 14 -4 14 -10z m3670 -60 c0 -5
-11 -10 -24 -10 -14 0 -28 5 -31 10 -4 6 7 10 24 10 17 0 31 -4 31 -10z m-414
-44 c25 -19 8 -36 -28 -29 -27 5 -36 22 -21 36 10 11 28 8 49 -7z m-1068 -206
c6 -185 16 -260 32 -260 14 0 80 135 80 163 0 30 24 62 38 53 7 -4 12 -31 12
-62 0 -47 -2 -54 -20 -54 -23 0 -33 -31 -33 -100 0 -51 11 -120 22 -135 13
-18 58 -139 70 -190 15 -60 28 -77 55 -73 14 2 23 13 26 33 6 29 6 29 14 7 5
-16 25 -31 57 -44 54 -23 63 -50 19 -56 -39 -6 -43 -17 -21 -60 12 -23 21 -51
21 -62 0 -12 5 -30 10 -40 12 -23 -12 -40 -59 -40 -33 0 -71 39 -71 71 0 11
-4 27 -9 37 -23 43 -61 145 -61 163 0 11 -4 27 -9 37 -32 59 -54 119 -60 164
-11 70 -27 108 -47 108 -13 0 -15 -9 -10 -62 4 -35 8 -88 10 -118 2 -30 8 -91
14 -135 6 -44 12 -116 14 -160 l3 -80 -80 -6 c-81 -6 -129 2 -92 16 9 4 28 4
41 1 14 -3 28 -2 31 4 4 6 13 5 25 -2 30 -19 53 7 45 51 -11 58 -22 71 -61 71
-22 0 -37 6 -41 16 -9 24 11 38 34 23 38 -23 50 -7 45 58 -2 32 -10 70 -18 84
-8 16 -9 30 -3 40 17 27 9 49 -23 69 -21 13 -27 20 -16 20 9 0 20 5 23 11 10
15 -16 141 -34 162 -13 16 -13 21 3 48 11 19 15 39 11 52 -10 33 -26 176 -25
222 2 118 33 81 38 -45z m-193 -10 c0 -10 -12 -16 -32 -18 -19 -2 -37 -11 -41
-20 -7 -14 -9 -129 -3 -172 2 -18 40 -31 60 -20 25 13 51 3 51 -20 0 -23 -7
-28 -62 -40 -24 -5 -56 -12 -72 -16 -55 -13 -80 63 -29 88 39 19 38 30 -8 56
-39 23 -40 24 -23 43 13 15 16 29 10 72 -3 30 -3 57 1 61 4 4 39 5 78 4 54 -2
70 -6 70 -18z m-1945 -70 c0 -22 -16 -35 -25 -20 -9 14 4 52 16 45 5 -4 9 -15
9 -25z m-1149 0 c10 -6 19 -15 19 -21 0 -11 -42 -2 -79 17 l-26 14 33 0 c18 0
42 -5 53 -10z m3810 -124 c-2 -76 2 -122 10 -137 6 -13 14 -57 18 -98 l6 -76
65 -3 c36 -2 82 2 103 9 28 9 44 10 55 2 25 -15 21 -24 -20 -45 -20 -11 -40
-28 -43 -39 -8 -26 -19 -24 -39 6 -15 22 -23 25 -80 25 -39 0 -68 5 -74 13 -5
6 -13 70 -17 140 -6 110 -10 130 -26 140 -23 14 -24 35 -3 58 10 11 17 40 19
76 3 71 2 70 17 55 9 -9 11 -47 9 -126z m2767 -211 c2 -243 0 -302 -11 -310
-8 -5 -19 -20 -26 -33 -12 -23 -13 -23 -26 -5 -18 23 -19 33 -2 33 8 0 23 10
34 23 18 19 21 35 21 122 0 127 -11 171 -49 184 -37 13 -37 26 1 40 31 10 37
29 20 62 -9 15 -22 19 -70 19 -97 0 -72 23 35 32 28 3 30 6 33 52 4 58 -4 67
-60 77 -36 6 -31 7 27 6 l70 -2 3 -300z m-6858 248 c0 -14 -14 -42 -30 -63
-37 -47 -58 -95 -71 -166 -9 -48 -8 -56 12 -83 35 -47 13 -99 -31 -71 -9 5
-19 5 -27 -2 -10 -8 -20 -8 -36 -1 -34 16 -80 5 -71 -16 4 -9 10 -40 12 -70 3
-42 1 -52 -10 -49 -7 3 -15 25 -19 52 -3 34 -12 53 -27 65 -25 18 -54 69 -47
81 2 4 26 5 53 2 44 -4 51 -2 70 23 12 15 22 35 22 44 0 9 7 27 16 40 10 14
14 33 11 51 -5 20 -1 33 15 46 11 11 30 39 43 64 43 84 115 118 115 53z m675
7 c88 -3 155 -8 149 -12 -12 -8 -341 -4 -350 5 -12 11 8 28 25 21 9 -5 88 -11
176 -14z m-906 -43 c15 -19 -10 -53 -33 -44 -16 6 -22 38 -9 50 10 11 30 8 42
-6z m4041 -6 c0 -3 -4 -12 -9 -20 -10 -15 3 -54 26 -82 12 -15 11 -16 -13 -11
-25 4 -26 3 -20 -19 17 -54 28 -120 22 -126 -13 -14 -38 26 -66 108 -26 76
-29 108 -15 155 3 11 75 7 75 -5z m2310 -17 c0 -18 5 -24 22 -24 12 0 29 -6
37 -14 9 -8 28 -16 43 -18 43 -6 44 -17 2 -18 -96 -3 -109 -1 -121 17 -8 9
-11 24 -8 31 3 8 5 25 5 38 0 14 4 22 10 19 6 -3 10 -17 10 -31z m-5872 4 c-3
-25 -34 -36 -50 -20 -17 17 -1 42 27 42 22 0 26 -4 23 -22z m5607 -7 c3 -5 1
-12 -5 -16 -13 -8 -50 3 -50 16 0 12 47 12 55 0z m-187 -18 c-10 -2 -28 -2
-40 0 -13 2 -5 4 17 4 22 1 32 -1 23 -4z m-263 -13 c20 -9 20 -9 0 -9 -32 -1
-45 -21 -45 -67 0 -24 -4 -45 -9 -48 -10 -6 -25 109 -16 124 7 12 42 12 70 0z
m-2227 -34 c3 -25 1 -28 -15 -21 -10 5 -37 10 -61 13 -49 5 -52 23 -6 34 57
12 79 6 82 -26z m3359 11 c-2 -7 -17 -14 -33 -15 -51 -6 -64 -27 -64 -103 0
-37 4 -70 9 -74 5 -3 9 -34 9 -69 l0 -64 -37 -6 c-20 -3 -54 -8 -76 -11 l-40
-6 34 29 c19 16 31 33 28 39 -4 6 0 19 8 29 20 27 18 48 -6 70 -18 16 -37 19
-114 19 -81 0 -97 -3 -124 -23 -29 -21 -31 -21 -31 -4 0 10 9 27 20 37 16 15
38 17 141 17 87 -1 124 -5 130 -14 13 -20 21 13 17 73 l-3 54 -42 3 c-43 3
-58 17 -25 24 9 3 59 5 110 6 69 1 92 -2 89 -11z m83 3 c0 -5 -7 -10 -15 -10
-8 0 -15 5 -15 10 0 6 7 10 15 10 8 0 15 -4 15 -10z m-5763 -36 c-3 -3 -12 -4
-19 -1 -8 3 -5 6 6 6 11 1 17 -2 13 -5z m727 -30 c25 -9 19 -24 -9 -24 -24 0
-32 10 -18 23 8 8 8 8 27 1z m156 -50 c0 -24 -4 -44 -9 -44 -9 0 -21 79 -14
93 10 19 23 -8 23 -49z m-1492 22 c47 -5 60 -21 31 -36 -19 -11 -28 -10 -56 5
-31 17 -48 50 -20 40 6 -3 27 -7 45 -9z m-650 -260 c2 -104 5 -126 26 -170 45
-95 196 -228 196 -173 0 22 -36 67 -76 97 -22 16 -45 39 -51 52 -5 13 -18 40
-27 61 -32 75 -15 91 53 48 57 -37 61 -37 61 -10 0 15 5 20 22 17 33 -4 35
-36 4 -48 -35 -13 -33 -42 3 -82 27 -30 32 -32 52 -19 20 12 24 11 35 -4 12
-15 14 -15 34 5 25 25 42 18 34 -14 -3 -14 2 -28 15 -40 15 -14 18 -26 14 -54
-8 -46 -13 -50 -72 -44 -60 5 -76 -12 -40 -42 22 -19 36 -21 116 -20 132 3
167 24 197 121 9 29 21 53 25 53 5 0 29 33 55 72 37 58 46 82 47 118 2 145 5
178 22 204 19 28 55 32 48 5 -9 -33 4 -221 18 -258 5 -14 12 -38 15 -53 9 -39
53 -61 86 -43 23 12 27 11 50 -17 17 -20 39 -33 65 -37 l40 -7 -43 -5 c-50 -5
-201 38 -212 61 -4 8 -15 32 -24 52 -19 46 -34 42 -66 -15 -13 -23 -33 -54
-45 -68 -12 -15 -28 -48 -35 -74 -17 -59 -76 -125 -113 -125 -14 0 -29 -4 -32
-10 -3 -6 -49 -10 -102 -10 l-97 0 -55 43 c-31 24 -73 53 -93 65 -20 13 -46
38 -57 57 -11 19 -27 35 -35 35 -8 0 -23 16 -32 35 -19 41 -47 44 -53 5 -1
-14 -8 -28 -13 -31 -18 -11 -196 -10 -203 1 -15 24 102 38 165 19 12 -3 15 5
13 41 -4 126 -17 246 -27 252 -8 5 -7 11 1 19 10 10 9 17 -4 31 -14 16 -15 23
-5 38 15 24 16 57 2 65 -5 3 -10 12 -10 18 0 7 24 -13 54 -43 l53 -55 1 -119z
m1418 193 c6 -10 -11 -29 -26 -29 -3 0 -11 4 -19 9 -17 11 -5 31 19 31 10 0
22 -5 26 -11z m2444 -9 c0 -5 -9 -10 -19 -10 -11 0 -23 5 -26 10 -4 6 5 10 19
10 14 0 26 -4 26 -10z m-1895 -30 c3 -5 -1 -10 -10 -10 -9 0 -13 5 -10 10 3 6
8 10 10 10 2 0 7 -4 10 -10z m-2295 -19 c0 -11 -25 -21 -51 -21 -21 0 -26 16
-6 23 21 9 57 7 57 -2z m4580 -22 c12 -22 6 -69 -9 -69 -5 0 -14 14 -20 30
-17 51 7 82 29 39z m-4700 -74 c0 -41 -5 -86 -12 -100 -8 -18 -8 -31 0 -48 6
-12 13 -44 15 -72 3 -27 10 -51 16 -53 6 -2 21 -12 33 -22 l23 -19 -40 -1
c-52 0 -65 13 -65 70 0 47 -13 80 -27 66 -4 -4 -10 -33 -13 -64 -4 -51 -8 -58
-32 -66 -35 -12 -44 -4 -24 26 10 16 15 47 14 98 -1 211 -1 210 17 230 15 16
32 22 83 29 9 1 12 -20 12 -74z m4148 -87 c2 -145 3 -147 29 -167 15 -13 41
-21 62 -21 21 0 46 -6 57 -14 18 -14 18 -15 -10 -22 -39 -9 -132 21 -162 53
l-23 24 -21 -21 c-30 -30 -60 -39 -93 -27 -33 11 -55 -4 -94 -66 -19 -31 -29
-38 -51 -35 -25 3 -27 8 -32 53 l-5 50 -45 3 c-24 2 -50 8 -56 13 -22 18 -26
100 -8 164 9 33 20 80 23 105 3 25 11 44 16 42 17 -4 25 -54 14 -96 -6 -23
-15 -70 -21 -104 -12 -74 -5 -86 54 -96 43 -8 65 10 99 81 12 24 26 42 33 40
18 -7 9 -54 -17 -89 -30 -40 -41 -74 -28 -83 6 -3 20 6 33 20 18 21 30 25 80
25 58 0 59 1 74 35 9 23 14 72 14 154 0 128 1 132 55 128 19 -2 20 -10 23
-149z m-3332 57 c7 -21 11 -42 8 -47 -8 -13 -99 -9 -112 4 -15 15 -16 78 0 78
6 0 19 -7 29 -16 16 -14 18 -14 29 6 16 29 30 22 46 -25z m-158 3 c-3 -36 -30
-46 -36 -15 -5 26 5 47 23 47 12 0 15 -8 13 -32z m4597 12 c3 -11 5 -48 4 -82
-2 -36 2 -73 9 -85 16 -30 6 -68 -21 -81 -61 -28 -382 -71 -400 -53 -7 7 -5
18 6 35 15 22 20 24 49 15 49 -14 126 -11 188 7 30 9 75 19 99 21 l44 5 -7 87
c-4 47 -9 101 -12 119 -5 27 -3 32 14 32 12 0 23 -9 27 -20z m-4385 -35 c0
-25 -14 -34 -24 -16 -8 12 3 41 15 41 5 0 9 -11 9 -25z m6108 -47 c8 -8 63
-13 157 -16 110 -3 148 -8 157 -19 22 -27 -13 -34 -166 -31 l-150 3 -7 -29
c-13 -46 14 -82 74 -97 27 -7 26 -8 -12 -3 -78 9 -81 13 -81 114 0 89 5 101
28 78z m-6164 -43 c49 0 51 -2 54 -29 5 -45 -15 -56 -29 -16 l-12 33 -14 -27
c-16 -31 -33 -34 -40 -6 -6 24 -19 26 -27 5 -10 -27 -26 -16 -26 18 0 41 8 51
28 35 8 -7 38 -13 66 -13z m6654 19 c28 -4 52 -11 52 -15 0 -12 -167 -12 -174
0 -14 21 25 26 122 15z m-5493 -111 c-4 -21 -18 -48 -31 -60 -22 -20 -37 -23
-107 -24 -45 -1 -134 -3 -197 -4 l-115 -3 40 18 c48 22 69 24 95 8 15 -10 28
-9 67 5 28 10 77 17 118 17 80 0 115 17 115 56 0 13 5 24 10 24 7 0 9 -14 5
-37z m-1285 12 c0 -9 -6 -12 -15 -9 -8 4 -15 10 -15 15 0 5 7 9 15 9 8 0 15
-7 15 -15z m6980 -20 c0 -15 -47 -52 -55 -43 -6 6 36 58 47 58 4 0 8 -7 8 -15z
m-220 -44 c3 -1 -2 -6 -10 -10 -19 -11 -135 -13 -255 -3 l-90 6 80 6 c67 4
258 5 275 1z m63 -8 c-7 -2 -21 -2 -30 0 -10 3 -4 5 12 5 17 0 24 -2 18 -5z
m70 0 c-7 -2 -19 -2 -25 0 -7 3 -2 5 12 5 14 0 19 -2 13 -5z m-7440 -10 c-7
-2 -19 -2 -25 0 -7 3 -2 5 12 5 14 0 19 -2 13 -5z m5554 -19 c-3 -3 -12 -4
-19 -1 -8 3 -5 6 6 6 11 1 17 -2 13 -5z m-1687 -372 c0 -13 -12 -22 -22 -16
-10 6 -1 24 13 24 5 0 9 -4 9 -8z m40 -23 c0 -6 -4 -7 -10 -4 -5 3 -10 11 -10
16 0 6 5 7 10 4 6 -3 10 -11 10 -16z m-2220 -93 c0 -100 -11 -142 -24 -93 -8
29 -7 145 0 175 14 50 24 16 24 -82z m1075 -94 c-24 -24 -35 141 -12 181 10
19 12 8 15 -77 1 -54 0 -101 -3 -104z m1116 -72 c28 0 23 -17 -6 -22 -29 -6
-38 3 -28 28 4 11 8 13 11 6 2 -7 12 -12 23 -12z m-1824 -32 c-3 -8 -6 -5 -6
6 -1 11 2 17 5 13 3 -3 4 -12 1 -19z m1080 -10 c-3 -7 -5 -2 -5 12 0 14 2 19
5 13 2 -7 2 -19 0 -25z m-1429 -49 c-34 -22 -75 4 -63 41 6 20 7 19 41 -7 26
-19 32 -28 22 -34z m1050 35 c41 -20 47 -31 23 -39 -27 -8 -61 11 -61 35 0 24
-1 24 38 4z m1149 -16 c-3 -8 -6 -5 -6 6 -1 11 2 17 5 13 3 -3 4 -12 1 -19z
m0 -85 c-3 -10 -5 -4 -5 12 0 17 2 24 5 18 2 -7 2 -21 0 -30z m-1870 -55 c-3
-7 -5 -2 -5 12 0 14 2 19 5 13 2 -7 2 -19 0 -25z m1866 -79 c-14 -14 -55 -15
-60 -1 -4 9 2 11 21 6 17 -4 26 -2 26 6 0 6 5 8 11 4 6 -3 7 -10 2 -15z
m-1495 -8 c3 -8 -1 -12 -9 -9 -7 2 -15 10 -17 17 -3 8 1 12 9 9 7 -2 15 -10
17 -17z m538 -378 c-10 -10 -19 5 -10 18 6 11 8 11 12 0 2 -7 1 -15 -2 -18z
m484 7 c0 -11 -4 -20 -10 -20 -5 0 -10 9 -10 20 0 11 5 20 10 20 6 0 10 -9 10
-20z m-1730 -17 c-1 -24 -2 -26 -11 -10 -5 9 -7 22 -4 27 10 17 15 11 15 -17z
m3567 -300 c-2 -21 -4 -6 -4 32 0 39 2 55 4 38 2 -18 2 -50 0 -70z m-2427 -14
c0 -5 -4 -9 -10 -9 -5 0 -10 7 -10 16 0 8 5 12 10 9 6 -3 10 -10 10 -16z m735
-166 c-3 -13 -10 -23 -15 -23 -11 0 -13 59 -3 86 6 15 8 13 15 -11 5 -17 6
-40 3 -52z m420 48 c-9 -16 -25 -3 -18 15 4 10 9 12 15 6 6 -6 7 -15 3 -21z
m528 9 c-3 -11 -9 -17 -14 -14 -14 8 -10 34 5 34 9 0 12 -7 9 -20z m83 -87
l-15 -28 -1 42 c0 23 6 55 13 70 l12 28 3 -42 c2 -24 -3 -54 -12 -70z m434 82
c0 -8 -4 -17 -10 -20 -6 -4 -10 5 -10 20 0 15 4 24 10 20 6 -3 10 -12 10 -20z
m670 -11 c0 -13 -4 -24 -10 -24 -5 0 -10 14 -10 31 0 17 4 28 10 24 6 -3 10
-17 10 -31z m-1113 -166 c-2 -13 -4 -5 -4 17 -1 22 1 32 4 23 2 -10 2 -28 0
-40z m-17 -144 c0 -14 -4 -23 -10 -19 -5 3 -10 15 -10 26 0 10 5 19 10 19 6 0
10 -12 10 -26z m-3260 -156 c0 -16 -3 -19 -11 -11 -6 6 -8 16 -5 22 11 17 16
13 16 -11z m667 -470 c-2 -13 -4 -5 -4 17 -1 22 1 32 4 23 2 -10 2 -28 0 -40z"/>
<path d="M4910 11129 c0 -5 5 -7 10 -4 6 3 10 8 10 11 0 2 -4 4 -10 4 -5 0
-10 -5 -10 -11z"/>
<path d="M2388 8233 c12 -2 30 -2 40 0 9 3 -1 5 -23 4 -22 0 -30 -2 -17 -4z"/>
<path d="M3513 8026 c-41 -15 -52 -26 -26 -26 42 0 83 13 83 26 0 16 -13 16
-57 0z"/>
<path d="M2277 6883 c-4 -3 -7 -19 -7 -35 0 -28 1 -28 28 -15 15 8 33 12 40
10 21 -8 -27 -53 -55 -53 -26 0 -31 -17 -8 -26 8 -4 31 -3 49 0 29 6 36 12 41
39 4 18 17 40 28 49 19 15 20 19 7 28 -17 11 -113 14 -123 3z"/>
<path d="M2595 6831 c-7 -13 17 -24 40 -19 9 1 16 8 16 13 0 14 -48 19 -56 6z"/>
<path d="M2118 6723 c7 -3 16 -2 19 1 4 3 -2 6 -13 5 -11 0 -14 -3 -6 -6z"/>
<path d="M1965 6700 c-7 -11 9 -11 45 0 24 8 24 8 -7 9 -17 1 -35 -3 -38 -9z"/>
<path d="M1273 6583 c9 -2 25 -2 35 0 9 3 1 5 -18 5 -19 0 -27 -2 -17 -5z"/>
<path d="M8021 6736 c-15 -17 -11 -48 5 -53 14 -5 28 47 16 59 -5 5 -14 3 -21
-6z"/>
<path d="M5670 6231 c0 -15 22 -18 100 -12 58 3 68 6 45 12 -45 10 -145 10
-145 0z"/>
<path d="M6450 6130 c0 -6 28 -10 65 -10 37 0 65 4 65 10 0 6 -28 10 -65 10
-37 0 -65 -4 -65 -10z"/>
<path d="M6810 6132 c0 -5 81 -12 179 -16 186 -7 333 0 309 15 -17 11 -488 12
-488 1z"/>
<path d="M5615 5920 c-3 -5 -1 -10 4 -10 6 0 11 5 11 10 0 6 -2 10 -4 10 -3 0
-8 -4 -11 -10z"/>
<path d="M6285 5820 c-3 -5 1 -10 9 -10 9 0 16 5 16 10 0 6 -4 10 -9 10 -6 0
-13 -4 -16 -10z"/>
<path d="M7452 5628 c6 -18 28 -21 28 -4 0 9 -7 16 -16 16 -9 0 -14 -5 -12
-12z"/>
<path d="M7510 5621 c0 -5 7 -14 15 -21 13 -10 15 -9 15 9 0 12 -6 21 -15 21
-8 0 -15 -4 -15 -9z"/>
<path d="M7530 5565 c0 -8 5 -15 10 -15 6 0 10 7 10 15 0 8 -4 15 -10 15 -5 0
-10 -7 -10 -15z"/>
<path d="M2340 5697 c0 -18 28 -42 37 -33 9 8 -9 38 -25 44 -7 2 -12 -3 -12
-11z"/>
<path d="M2432 5608 c6 -18 28 -21 28 -4 0 9 -7 16 -16 16 -9 0 -14 -5 -12
-12z"/>
<path d="M1685 4538 c-22 -5 -66 -9 -97 -8 -50 1 -61 -2 -81 -23 -20 -22 -25
-24 -42 -11 -43 31 -228 9 -269 -33 -24 -24 -31 -52 -39 -163 -1 -27 -6 -34
-19 -32 -12 2 -18 -4 -18 -18 0 -11 5 -20 10 -20 15 0 12 -22 -10 -68 -26 -53
-25 -60 5 -84 33 -26 32 -36 -7 -40 -32 -3 -33 -4 -43 -69 -5 -36 -16 -73 -23
-82 -12 -14 -11 -24 3 -66 9 -27 22 -52 30 -55 10 -4 13 -14 9 -35 -3 -16 -1
-45 6 -65 13 -40 41 -53 88 -41 15 3 65 11 112 16 146 16 130 -6 130 186 0
154 7 212 31 253 20 34 22 43 7 54 -8 6 -17 22 -20 36 -3 14 -7 32 -9 40 -3
12 15 16 101 22 132 8 239 18 266 23 29 6 46 48 34 81 -6 14 -10 50 -10 80 0
48 -4 58 -32 88 -39 41 -59 47 -113 34z m-289 -439 c9 -15 -18 -40 -34 -30
-15 9 -5 41 13 41 8 0 17 -5 21 -11z m-89 -46 c5 -14 -33 -27 -48 -17 -9 5 -6
11 7 21 20 14 36 13 41 -4z"/>
<path d="M1829 4026 c-7 -7 -129 -19 -179 -18 -64 2 -107 -6 -125 -24 -22 -23
-22 -290 1 -322 24 -35 4 -52 -65 -52 -31 0 -85 -7 -121 -15 -36 -8 -96 -20
-133 -26 -39 -7 -71 -18 -74 -26 -3 -7 5 -29 17 -50 12 -20 19 -45 16 -56 -3
-11 2 -34 12 -51 9 -17 16 -35 17 -41 1 -21 18 -61 33 -77 18 -21 111 -25 141
-6 14 9 29 9 58 1 25 -8 83 -9 171 -4 126 6 133 8 160 34 24 25 27 35 28 100
0 39 6 98 14 129 15 67 7 85 -43 90 -37 3 -43 21 -9 26 12 2 27 12 32 23 8 14
21 19 51 19 63 0 83 29 98 141 8 64 9 95 1 103 -5 5 -10 23 -10 38 0 21 -8 33
-32 48 -32 20 -50 24 -59 16z"/>
<path d="M3780 3815 c-6 -8 -10 -22 -8 -32 3 -15 15 -18 78 -21 64 -3 79 -7
101 -28 28 -27 39 -23 39 13 0 18 -5 23 -25 23 -13 0 -40 14 -58 30 -39 34
-105 42 -127 15z"/>
<path d="M8954 4218 c4 -18 10 -53 13 -78 8 -73 23 -71 25 3 1 37 2 75 2 85 1
11 -8 18 -23 20 -22 3 -23 1 -17 -30z"/>
<path d="M8508 3593 c-8 -132 21 -165 41 -48 10 55 9 70 -4 95 -9 16 -19 30
-24 30 -5 0 -11 -35 -13 -77z"/>
<path d="M8620 3361 c-17 -34 -12 -89 9 -101 27 -14 37 6 33 69 -4 54 -22 68
-42 32z"/>
<path d="M5555 4487 c-111 -14 -114 -15 -120 -45 -4 -15 -10 -34 -15 -43 -9
-17 -6 -101 4 -118 4 -6 29 -11 57 -11 27 0 49 -4 49 -10 0 -15 -40 -32 -62
-27 -34 9 -48 -3 -48 -43 0 -77 37 -93 170 -73 55 8 55 8 54 43 0 19 -2 51 -5
70 l-4 35 69 10 c64 9 70 12 77 37 4 15 15 35 24 44 15 16 18 16 33 1 13 -13
14 -20 4 -29 -14 -14 -16 -45 -2 -50 5 -1 73 1 150 6 139 9 157 15 128 44 -8
8 -8 15 2 27 11 13 11 20 1 37 -9 15 -9 23 -1 33 6 8 10 24 8 37 -3 22 -6 23
-122 26 -126 3 -146 -3 -146 -43 0 -12 -7 -29 -17 -36 -15 -13 -16 -10 -10 34
7 47 6 47 -22 47 -16 0 -52 -7 -80 -17 -45 -14 -53 -14 -69 -1 -27 23 -33 24
-107 15z"/>
<path d="M5785 4089 c-22 -3 -49 -10 -60 -16 -12 -7 -27 -8 -35 -3 -9 5 -54
11 -102 14 -73 5 -94 3 -133 -14 -46 -20 -47 -21 -41 -58 4 -20 2 -43 -3 -51
-12 -19 15 -102 40 -124 12 -10 30 -15 40 -12 10 3 36 1 57 -6 30 -9 44 -9 61
1 18 9 26 9 39 -3 9 -8 40 -17 67 -21 28 -3 75 -10 105 -15 135 -22 157 -23
180 -11 20 11 22 17 16 56 -3 24 -2 44 3 44 13 0 32 51 26 69 -3 10 2 37 10
61 18 51 13 76 -18 86 -27 9 -197 11 -252 3z"/>
<path d="M5421 3733 c-11 -62 -14 -104 -11 -157 1 -10 -6 -26 -15 -36 -14 -16
-15 -19 -2 -27 8 -4 19 -28 24 -53 8 -39 12 -45 31 -42 29 4 30 -23 1 -38 -16
-9 -20 -19 -17 -53 3 -38 6 -42 31 -45 16 -2 43 6 63 17 44 26 61 26 69 2 5
-17 17 -20 81 -23 60 -2 78 0 84 12 10 21 0 87 -16 101 -11 9 -9 15 11 32 22
20 24 27 17 72 -5 38 -12 52 -30 60 -27 12 -29 25 -3 25 29 0 43 23 32 52 -5
15 -6 30 0 39 5 8 9 24 9 36 0 27 -48 45 -131 48 -32 1 -65 7 -72 14 -12 10
-101 31 -131 31 -7 0 -18 -30 -25 -67z"/>
<path d="M9525 4483 c-63 -5 -82 -12 -89 -29 -4 -9 -1 -23 5 -30 9 -11 9 -18
0 -28 -7 -9 -11 -38 -9 -73 l3 -58 90 3 c50 2 158 11 240 19 83 8 187 17 233
19 46 2 92 9 103 14 20 11 27 64 9 75 -5 3 -10 17 -10 29 0 35 -17 43 -115 51
-109 10 -118 10 -175 -5 -95 -23 -133 -24 -154 -1 -19 21 -33 23 -131 14z m75
-47 c0 -11 -19 -15 -25 -6 -3 5 1 10 9 10 9 0 16 -2 16 -4z"/>
<path d="M9988 4271 c-97 -7 -133 -25 -112 -59 13 -20 49 -29 120 -31 63 -1
119 31 119 69 0 29 -3 29 -127 21z"/>
<path d="M7120 3453 c0 -37 14 -57 34 -50 19 7 21 48 4 65 -21 21 -38 14 -38
-15z"/>
<path d="M7150 3346 c0 -22 11 -46 21 -46 5 0 9 14 9 30 0 20 -5 30 -15 30 -8
0 -15 -6 -15 -14z"/>
<path d="M9707 3638 c-5 -37 -3 -43 12 -33 13 8 15 65 2 65 -5 0 -11 -15 -14
-32z"/>
<path d="M2385 3579 c-9 -24 -2 -94 10 -94 14 0 18 71 6 92 -9 16 -10 17 -16
2z"/>
<path d="M2210 15030 c-13 -8 -12 -11 5 -24 11 -9 25 -16 32 -16 21 0 26 23 8
37 -22 15 -25 16 -45 3z"/>
<path d="M1180 14984 c0 -9 5 -14 12 -12 18 6 21 28 4 28 -9 0 -16 -7 -16 -16z"/>
<path d="M830 14905 c0 -9 6 -12 15 -9 8 4 15 10 15 15 0 5 -7 9 -15 9 -8 0
-15 -7 -15 -15z"/>
<path d="M2680 14896 c0 -8 10 -16 22 -18 13 -2 33 -19 47 -41 22 -33 27 -36
39 -23 22 22 -40 96 -80 96 -18 0 -28 -5 -28 -14z"/>
<path d="M1098 14833 c-24 -6 -23 -30 2 -43 15 -8 21 -6 30 9 20 38 12 46 -32
34z"/>
<path d="M2355 14830 c-9 -15 3 -60 15 -60 13 0 13 57 1 65 -5 3 -13 0 -16 -5z"/>
<path d="M10791 14824 c0 -11 3 -14 6 -6 3 7 2 16 -1 19 -3 4 -6 -2 -5 -13z"/>
<path d="M2647 14783 c-12 -11 -8 -21 13 -26 15 -4 20 -14 20 -36 0 -35 15
-42 25 -11 12 37 -35 96 -58 73z"/>
<path d="M470 14750 c0 -5 7 -10 16 -10 8 0 12 5 9 10 -3 6 -10 10 -16 10 -5
0 -9 -4 -9 -10z"/>
<path d="M2790 14720 c0 -5 5 -10 10 -10 6 0 10 5 10 10 0 6 -4 10 -10 10 -5
0 -10 -4 -10 -10z"/>
<path d="M2185 14700 c-4 -6 -11 -8 -16 -5 -5 4 -9 2 -9 -3 0 -10 23 -22 41
-22 12 0 12 27 0 35 -5 3 -12 1 -16 -5z"/>
<path d="M2460 14691 c0 -25 20 -38 31 -20 15 23 10 39 -11 39 -13 0 -20 -7
-20 -19z"/>
<path d="M2560 14681 c0 -24 18 -37 32 -23 8 8 7 16 -2 27 -17 21 -30 19 -30
-4z"/>
<path d="M560 14668 c0 -30 15 -46 23 -24 3 8 -1 22 -8 33 -13 17 -14 16 -15
-9z"/>
<path d="M430 14624 c0 -8 5 -12 10 -9 6 3 10 10 10 16 0 5 -4 9 -10 9 -5 0
-10 -7 -10 -16z"/>
<path d="M593 14520 c-13 -5 -23 -16 -23 -25 0 -20 10 -19 38 4 35 30 29 38
-15 21z"/>
<path d="M448 14323 c-39 -45 -42 -83 -7 -83 21 0 39 35 39 76 0 28 -11 31
-32 7z"/>
<path d="M3286 14303 c-15 -15 -4 -33 19 -33 14 0 25 4 25 10 0 12 -35 31 -44
23z"/>
<path d="M345 14140 c-3 -6 1 -13 10 -16 19 -8 30 0 20 15 -8 14 -22 14 -30 1z"/>
<path d="M3260 14124 c-6 -15 -8 -35 -5 -43 6 -14 8 -13 21 3 16 23 18 52 4
61 -6 3 -15 -6 -20 -21z"/>
<path d="M254 14109 c-7 -12 43 -58 64 -59 17 0 15 21 -4 48 -16 23 -48 29
-60 11z"/>
<path d="M2702 14060 c0 -14 2 -19 5 -12 2 6 2 18 0 25 -3 6 -5 1 -5 -13z"/>
<path d="M2766 14021 c-3 -4 -10 -20 -16 -35 -9 -24 -7 -28 15 -36 32 -12 32
-35 0 -64 -28 -26 -32 -51 -10 -60 8 -3 15 -16 15 -30 0 -24 24 -41 42 -30 5
4 8 19 4 34 -5 28 17 60 42 60 17 0 22 31 12 75 -12 56 -86 116 -104 86z"/>
<path d="M3300 13966 c0 -56 15 -68 24 -18 9 54 8 62 -9 62 -11 0 -15 -12 -15
-44z"/>
<path d="M3306 13871 c-8 -12 3 -41 22 -63 25 -30 30 -20 14 27 -14 44 -25 54
-36 36z"/>
<path d="M2860 13826 c-11 -31 -7 -56 9 -56 16 0 24 46 13 67 -10 16 -12 15
-22 -11z"/>
<path d="M3025 13841 c-3 -5 -1 -12 5 -16 12 -7 30 2 30 16 0 12 -27 12 -35 0z"/>
<path d="M2960 13769 c0 -11 5 -17 10 -14 6 3 10 13 10 21 0 8 -4 14 -10 14
-5 0 -10 -9 -10 -21z"/>
<path d="M2717 13723 c-12 -11 -8 -40 8 -53 13 -11 15 -7 15 24 0 34 -8 44
-23 29z"/>
<path d="M3060 13714 c0 -8 5 -12 10 -9 6 4 8 11 5 16 -9 14 -15 11 -15 -7z"/>
<path d="M2777 13673 c-8 -13 12 -55 23 -48 16 10 12 55 -4 55 -8 0 -17 -3
-19 -7z"/>
<path d="M3095 13655 c4 -16 11 -47 15 -68 4 -22 15 -46 23 -55 15 -14 17 -14
23 2 4 10 0 24 -10 35 -9 10 -19 35 -23 55 -3 19 -12 41 -21 48 -13 11 -14 9
-7 -17z"/>
<path d="M2867 13664 c-9 -10 2 -24 19 -24 8 0 14 7 14 15 0 15 -21 21 -33 9z"/>
<path d="M2270 13615 c-9 -10 -10 -19 -4 -25 13 -13 49 13 40 28 -10 16 -21
15 -36 -3z"/>
<path d="M2615 13619 c-34 -17 -48 -46 -33 -72 12 -21 12 -21 19 10 10 48 28
67 47 51 13 -11 14 -10 11 1 -7 19 -19 22 -44 10z"/>
<path d="M2710 13615 c0 -15 38 -41 47 -32 7 8 -21 47 -34 47 -7 0 -13 -7 -13
-15z"/>
<path d="M3020 13595 c0 -9 6 -12 15 -9 8 4 15 10 15 15 0 5 -7 9 -15 9 -8 0
-15 -7 -15 -15z"/>
<path d="M2460 13556 c0 -9 5 -16 10 -16 6 0 10 4 10 9 0 6 -4 13 -10 16 -5 3
-10 -1 -10 -9z"/>
<path d="M2758 13503 c2 -21 10 -45 18 -53 9 -11 11 -28 7 -53 -5 -34 -3 -38
31 -58 25 -15 39 -32 47 -60 12 -39 34 -67 45 -56 6 6 -16 88 -28 102 -4 5 -8
19 -8 31 0 13 -4 26 -10 29 -5 3 -10 13 -10 21 0 9 -13 29 -29 45 -16 16 -31
42 -33 57 -2 15 -10 28 -19 30 -12 2 -14 -5 -11 -35z"/>
<path d="M8415 13491 c-95 -33 -175 -91 -175 -125 0 -48 21 -84 58 -102 36
-17 37 -16 87 9 52 27 78 34 155 43 24 3 61 14 82 25 20 10 44 19 52 19 12 0
14 5 6 25 -19 50 -53 85 -81 85 -16 0 -54 7 -86 15 -62 16 -68 17 -98 6z"/>
<path d="M2920 13404 c0 -8 5 -12 10 -9 6 3 10 10 10 16 0 5 -4 9 -10 9 -5 0
-10 -7 -10 -16z"/>
<path d="M4279 13373 c-33 -34 -36 -35 -90 -29 -49 5 -59 3 -77 -17 -12 -12
-28 -40 -37 -62 -9 -22 -30 -53 -45 -70 -20 -20 -34 -51 -44 -94 -8 -35 -25
-74 -37 -87 -30 -32 -21 -101 20 -153 17 -21 31 -49 33 -64 2 -14 8 -30 12
-34 10 -10 -4 127 -15 149 -5 9 -9 45 -9 81 0 61 2 66 39 103 75 76 156 146
186 160 17 8 41 21 55 29 14 8 35 15 47 15 12 0 43 7 69 16 l46 16 30 -29 c17
-15 47 -64 67 -108 21 -44 45 -86 55 -94 9 -8 38 -18 64 -22 26 -4 59 -10 75
-14 40 -11 34 10 -12 36 -25 14 -37 27 -34 36 3 7 -1 21 -9 31 -22 24 -27 44
-17 64 6 10 5 19 -2 23 -6 4 -13 -2 -16 -14 -8 -30 -20 -26 -28 9 -4 17 -24
44 -46 64 -34 29 -48 34 -90 34 -37 1 -65 9 -103 31 l-53 30 -34 -36z"/>
<path d="M2090 13327 c0 -19 21 -37 42 -37 24 0 23 8 -4 31 -27 22 -38 24 -38
6z"/>
<path d="M2045 13278 c-3 -7 1 -29 8 -49 11 -33 15 -35 30 -24 17 12 17 15 1
49 -18 37 -31 45 -39 24z"/>
<path d="M2780 13235 c-10 -12 -9 -16 5 -21 19 -8 40 9 31 25 -10 15 -21 14
-36 -4z"/>
<path d="M2910 13181 c0 -15 6 -21 21 -21 14 0 19 5 17 17 -5 26 -38 29 -38 4z"/>
<path d="M3061 13131 c-8 -5 -29 -7 -47 -4 -26 4 -35 1 -49 -20 -36 -55 12
-62 104 -16 45 23 59 34 50 40 -18 11 -40 11 -58 0z"/>
<path d="M2877 13109 c-9 -6 -26 -9 -36 -7 -10 2 -25 -3 -34 -10 -14 -12 -14
-15 4 -33 15 -15 17 -24 10 -38 -14 -25 -6 -30 42 -24 67 8 101 68 61 107 -18
19 -23 19 -47 5z"/>
<path d="M180 13040 c0 -22 20 -26 38 -8 19 19 14 28 -13 28 -18 0 -25 -5 -25
-20z"/>
<path d="M8448 13045 c-3 -3 -56 -6 -116 -6 -116 1 -140 -8 -128 -47 9 -28 74
-94 88 -90 7 3 25 26 39 51 39 72 42 73 72 18 35 -64 67 -84 118 -76 21 4 42
12 46 18 5 7 17 17 28 23 24 14 25 68 1 92 -16 16 -135 30 -148 17z"/>
<path d="M2670 13010 c-6 -11 -18 -20 -27 -20 -20 0 -103 -78 -103 -97 0 -8
-11 -18 -25 -23 -26 -10 -33 -34 -14 -46 7 -4 22 7 36 25 13 17 33 31 43 31
10 0 22 9 25 20 8 25 40 43 63 36 26 -8 48 15 56 57 6 35 5 37 -18 37 -15 0
-30 -8 -36 -20z"/>
<path d="M4670 13003 c0 -9 57 -43 71 -43 5 0 9 8 9 19 0 13 -10 20 -31 25
-41 8 -49 8 -49 -1z"/>
<path d="M102 12978 c7 -19 38 -22 38 -4 0 10 -9 16 -21 16 -12 0 -19 -5 -17
-12z"/>
<path d="M2775 12961 c-3 -5 -1 -12 5 -16 12 -7 30 2 30 16 0 12 -27 12 -35 0z"/>
<path d="M2873 12924 c-9 -23 13 -40 32 -24 8 7 15 19 15 26 0 19 -39 18 -47
-2z"/>
<path d="M2972 12929 c2 -7 10 -15 17 -17 8 -3 12 1 9 9 -2 7 -10 15 -17 17
-8 3 -12 -1 -9 -9z"/>
<path d="M3060 12920 c0 -5 9 -14 20 -20 22 -12 27 -1 8 18 -14 14 -28 16 -28
2z"/>
<path d="M2610 12861 c0 -9 24 -21 41 -21 5 0 9 7 9 15 0 9 -9 15 -25 15 -14
0 -25 -4 -25 -9z"/>
<path d="M7 12834 c-12 -12 4 -24 31 -24 25 0 25 1 6 15 -21 16 -28 18 -37 9z"/>
<path d="M555 12810 c-3 -5 -1 -10 4 -10 6 0 11 5 11 10 0 6 -2 10 -4 10 -3 0
-8 -4 -11 -10z"/>
<path d="M8279 12794 c-11 -13 -7 -20 26 -50 44 -39 65 -43 65 -14 0 14 7 20
21 20 11 0 29 5 40 11 15 8 24 7 35 -2 19 -16 31 -3 18 19 -20 32 -181 45
-205 16z"/>
<path d="M2491 12779 c-24 -20 -23 -21 24 -23 23 -1 31 -6 35 -26 7 -35 32
-67 55 -71 11 -3 21 -14 23 -26 2 -12 10 -24 19 -27 24 -9 28 2 10 22 -16 18
-16 20 3 37 17 15 24 16 45 7 20 -9 25 -9 25 2 0 7 -7 19 -15 26 -8 7 -15 19
-15 27 0 7 7 16 15 19 8 4 15 12 15 19 0 8 -15 12 -46 11 -36 -1 -50 -6 -58
-21 -6 -11 -12 -22 -14 -25 -2 -3 -9 2 -15 10 -7 9 -28 25 -48 36 -35 21 -36
21 -58 3z"/>
<path d="M2 12750 c0 -14 2 -19 5 -12 2 6 2 18 0 25 -3 6 -5 1 -5 -13z"/>
<path d="M2932 12757 c-77 -12 -80 -34 -4 -29 40 3 53 0 58 -12 5 -13 9 -12
25 8 38 48 30 51 -79 33z"/>
<path d="M3062 12758 c7 -19 38 -22 38 -4 0 10 -9 16 -21 16 -12 0 -19 -5 -17
-12z"/>
<path d="M2790 12740 c0 -5 9 -10 20 -10 11 0 20 5 20 10 0 6 -9 10 -20 10
-11 0 -20 -4 -20 -10z"/>
<path d="M1170 12721 c0 -5 7 -11 15 -15 9 -3 15 0 15 9 0 8 -7 15 -15 15 -8
0 -15 -4 -15 -9z"/>
<path d="M3 11947 l2 -761 55 -14 c85 -21 93 -33 87 -122 -3 -55 -1 -81 9 -95
13 -18 15 -18 39 5 22 21 26 22 47 8 48 -31 75 -31 110 3 36 34 58 34 124 3
85 -41 136 -155 105 -238 -14 -36 9 -53 50 -36 24 10 29 17 25 34 -6 21 -39
187 -51 260 -5 31 -2 43 16 62 l21 23 -29 48 c-17 27 -40 78 -53 113 -12 36
-31 74 -41 86 -30 33 -36 65 -49 304 -10 175 -16 228 -27 237 -12 9 -38 178
-43 275 0 3 -18 25 -39 48 -38 41 -81 132 -81 172 0 23 -38 117 -57 139 -7 8
-13 22 -13 30 0 7 -10 37 -22 66 -21 52 -22 53 -64 53 -24 0 -47 6 -54 15 -7
8 -25 21 -41 29 l-29 14 3 -761z m551 -880 c13 -35 -3 -54 -32 -38 -24 13 -34
45 -19 60 18 18 41 8 51 -22z m-248 -23 c49 -29 58 -54 19 -54 -33 0 -105 37
-105 54 0 34 28 34 86 0z"/>
<path d="M2790 12666 c0 -8 9 -20 21 -26 18 -10 20 -9 17 12 -3 26 -38 39 -38
14z"/>
<path d="M8316 12671 c-13 -5 -16 -10 -9 -14 13 -8 88 -25 152 -34 38 -5 43
-4 39 13 -3 19 -14 22 -128 38 -19 3 -44 2 -54 -3z"/>
<path d="M1202 12641 c5 -25 36 -38 56 -23 9 7 25 15 35 18 33 12 17 20 -38
20 -43 0 -55 -4 -53 -15z"/>
<path d="M8432 12568 c3 -7 20 -14 38 -16 30 -3 32 -2 21 12 -16 19 -65 22
-59 4z"/>
<path d="M2813 12534 c-3 -8 -16 -20 -29 -25 -27 -10 -29 -26 -8 -84 7 -22 11
-28 9 -13 -5 28 12 51 63 85 26 18 29 38 6 47 -25 9 -34 7 -41 -10z"/>
<path d="M2637 12523 c-10 -9 -9 -43 1 -43 10 0 42 33 42 43 0 9 -35 9 -43 0z"/>
<path d="M2439 12483 c-79 -14 -86 -17 -96 -44 -13 -33 -1 -38 31 -14 13 10
24 11 37 5 27 -15 35 -12 47 15 8 16 20 25 35 25 13 0 32 7 43 15 23 18 18 18
-97 -2z"/>
<path d="M1830 12476 c0 -16 19 -25 38 -19 10 4 10 8 1 19 -15 18 -39 18 -39
0z"/>
<path d="M2702 12469 c2 -6 8 -10 13 -10 5 0 11 4 13 10 2 6 -4 11 -13 11 -9
0 -15 -5 -13 -11z"/>
<path d="M6485 12429 c-4 -6 -17 -14 -29 -19 -20 -8 -20 -9 5 -9 24 -1 49 15
49 31 0 12 -18 10 -25 -3z"/>
<path d="M5185 12370 c-4 -6 -3 -16 3 -22 6 -6 12 -6 17 2 4 6 3 16 -3 22 -6
6 -12 6 -17 -2z"/>
<path d="M6486 12344 c-10 -26 1 -32 61 -29 32 1 59 3 61 4 1 0 -2 10 -8 21
-14 26 -104 29 -114 4z"/>
<path d="M6236 12291 c-21 -23 -20 -34 2 -54 23 -21 32 -13 32 29 0 40 -12 49
-34 25z"/>
<path d="M6478 12249 c-25 -14 -22 -28 7 -39 14 -5 25 -14 25 -20 0 -6 10 -10
23 -8 14 2 21 9 19 19 -1 10 7 19 19 22 19 5 20 8 9 21 -14 18 -76 21 -102 5z"/>
<path d="M180 10250 c0 -5 5 -10 11 -10 5 0 7 5 4 10 -3 6 -8 10 -11 10 -2 0
-4 -4 -4 -10z"/>
<path d="M137 9954 c-14 -14 -7 -25 13 -22 12 2 21 8 21 13 0 12 -24 18 -34 9z"/>
</g>
</svg>
